<svg width="16" height="16" viewBox="0 0 16 16" fill="none" xmlns="http://www.w3.org/2000/svg">
<path d="M0.499987 4.99997H15.5C15.776 4.99997 16 4.77596 16 4.49999C16 4.22398 15.7759 4 15.5 4H0.499987C0.223976 4 0 4.22402 0 4.49999C0 4.77596 0.224017 4.99997 0.499987 4.99997Z" fill="#4F4F4F"/>
<path d="M15.5 7.5H0.499987C0.223976 7.5 0 7.72402 0 7.99999C0 8.27596 0.224017 8.49997 0.499987 8.49997H15.5C15.776 8.49997 16 8.27596 16 7.99999C16 7.72402 15.776 7.5 15.5 7.5Z" fill="#4F4F4F"/>
<path d="M15.5 11H5.49999C5.22398 11 5 11.224 5 11.5C5 11.776 5.22402 12 5.49999 12H15.5C15.776 12 16 11.776 16 11.5C16 11.224 15.776 11 15.5 11Z" fill="#4F4F4F"/>
</svg>
