<svg width="115" height="24" viewBox="0 0 115 24" fill="none" xmlns="http://www.w3.org/2000/svg">
<path d="M8.31126 0.694553C6.4888 1.3061 4.83717 2.35538 3.49555 3.754C2.15392 5.15262 1.1616 6.8596 0.602201 8.7311C-1.33839 15.1898 1.61141 21.2492 6.57962 23.9821C6.61333 23.9997 6.65211 24.0045 6.68899 23.9956C6.72586 23.9867 6.7584 23.9647 6.78074 23.9334C6.80308 23.9022 6.81376 23.8639 6.81086 23.8254C6.80795 23.7868 6.79165 23.7506 6.76488 23.7233C6.27424 23.2402 5.90202 22.8606 5.58057 22.4949C5.26295 22.1368 4.96338 21.7625 4.68302 21.3734C4.58489 21.2388 4.48338 21.1068 4.37848 20.9774C3.63913 20.0622 3.20685 19.5308 2.86679 19.297C2.81298 19.2591 2.77041 19.2069 2.74371 19.1461C2.71701 19.0852 2.7072 19.018 2.71536 18.9519C2.75851 18.5905 2.98353 18.078 3.78379 18.3765C4.156 18.5197 4.53667 18.7733 5.45537 19.7939C6.32246 20.7255 7.45348 22.1722 9.38899 22.4785C9.64354 22.5163 9.90084 22.5313 10.158 22.5233C10.5936 22.5121 10.8982 22.4871 11.124 22.4603C11.152 22.4574 11.1787 22.4468 11.2014 22.4297C11.224 22.4127 11.2417 22.3897 11.2527 22.3633C11.2637 22.3369 11.2675 22.3079 11.2637 22.2795C11.26 22.251 11.2489 22.2241 11.2315 22.2015C9.40591 19.7093 8.96179 18.3109 8.8442 16.9911C8.79818 16.4535 8.81836 15.9121 8.90427 15.3796C9.06669 14.3634 9.45244 12.5147 10.2671 11.081C10.2872 11.0231 10.3239 10.9728 10.3725 10.9367C10.4211 10.9005 10.4793 10.8801 10.5395 10.8783C10.5754 10.8772 10.6111 10.8843 10.6439 10.8993C10.6767 10.9142 10.7058 10.9365 10.729 10.9645C10.756 10.9988 10.7724 11.0406 10.7758 11.0844C10.7793 11.1283 10.7698 11.1722 10.7484 11.2104C10.1351 12.5337 7.85445 16.8996 12.832 21.2897C12.9145 21.3616 13.0195 21.4011 13.1281 21.4011C13.2366 21.4011 13.3416 21.3616 13.4241 21.2897C13.8192 20.9447 13.875 20.8584 13.8386 20.4521C13.8319 20.377 13.8217 20.3037 13.8099 20.2295C13.6331 19.1684 13.5815 18.926 13.0485 18.5145C12.9995 18.4766 12.9512 18.4369 12.9047 18.3964C12.2212 17.7925 11.514 17.268 11.6942 16.4985C11.7319 16.3497 11.7984 16.2101 11.8898 16.0879C11.9812 15.9657 12.0956 15.8633 12.2263 15.7868C12.4217 15.6686 12.6247 15.6427 12.8404 15.8843C13.1069 16.1819 13.804 17.1274 15.0137 17.8425C15.5219 18.1393 16.0708 18.3571 16.6421 18.4887C18.0277 18.8165 19.0505 19.0787 20.6916 20.8178L21.3531 21.508C21.368 21.5236 21.3857 21.536 21.4053 21.5444C21.4249 21.5529 21.446 21.5573 21.4673 21.5573C21.4886 21.5573 21.5097 21.5529 21.5294 21.5444C21.549 21.536 21.5667 21.5236 21.5815 21.508C23.7801 19.143 25.0039 16.0073 25 12.7485C25 4.32377 16.9898 -2.19191 8.31126 0.694553ZM13.7371 3.24803C14.523 3.41021 15.8275 3.65089 17.0202 5.55565C17.099 5.67892 17.1613 5.81238 17.2055 5.95247C17.329 6.36223 17.2977 6.84274 16.8451 7.15243C16.3925 7.46213 15.6464 7.50526 14.4604 7.36896C14.0552 7.32238 13.8454 6.91951 14.0374 6.46662C14.1787 6.12932 14.6846 5.54443 15.44 5.17262C15.3715 5.17262 15.3072 5.17262 15.2446 5.17262C14.8741 5.17262 14.5272 5.25889 13.3835 6.29408C13.3652 6.31117 13.3436 6.32426 13.3201 6.33255C13.2966 6.34084 13.2717 6.34415 13.2469 6.3423C13.2222 6.34044 13.198 6.33345 13.176 6.32175C13.1539 6.31004 13.1345 6.29388 13.1187 6.27424C12.8692 5.96196 12.3912 5.13726 12.3785 4.38933C12.3765 4.21711 12.4125 4.04663 12.4836 3.89043C12.5548 3.73424 12.6594 3.59631 12.7897 3.4868C12.9201 3.3773 13.0729 3.299 13.2368 3.25767C13.4008 3.21635 13.5718 3.21306 13.7371 3.24803ZM13.7853 8.26526C13.606 8.67158 13.2558 8.93469 12.5021 8.2437C11.9564 7.75543 11.6003 7.48111 11.4226 7.31461C11.3826 7.27663 11.3521 7.22931 11.3339 7.17671C11.3157 7.1241 11.3103 7.06778 11.3181 7.01257C11.3259 6.95736 11.3468 6.90491 11.3788 6.8597C11.4109 6.8145 11.4532 6.77789 11.5022 6.75302C11.882 6.55806 12.5951 6.3122 13.2829 6.73404C13.7879 7.04374 14.0281 7.71834 13.7853 8.26526ZM5.677 4.11241C5.77598 4.01838 5.89864 3.91055 6.04245 3.79754C7.56514 2.60707 9.7316 2.66746 11.1545 3.97611C11.679 4.45748 12.085 5.1131 12.0994 5.99302C12.0995 6.02916 12.0889 6.0645 12.0691 6.09445C12.0492 6.12439 12.021 6.14757 11.9881 6.16096C11.9552 6.17435 11.9191 6.17734 11.8845 6.16955C11.8498 6.16175 11.8183 6.14353 11.794 6.11724C11.3473 5.63415 10.3043 4.72922 9.48374 4.85517C10.4659 5.43919 10.9506 5.85672 10.9514 6.29926C10.9514 6.60464 10.8076 6.8436 10.2975 6.76251C9.52688 6.63915 6.8241 6.35016 5.72945 5.45558C5.63168 5.37607 5.55183 5.27603 5.49534 5.16226C5.43885 5.04849 5.40704 4.92365 5.40206 4.79623C5.39708 4.6688 5.41906 4.54178 5.46651 4.42379C5.51395 4.30579 5.58574 4.1996 5.677 4.11241ZM9.10306 22.2473C8.69278 22.1714 7.36381 21.8013 6.29962 20.3494L5.94263 19.8931C5.15844 18.9441 4.50453 18.1677 3.843 18.0168C3.83113 18.0146 3.82039 18.0082 3.81266 17.9987C3.80494 17.9893 3.8007 17.9773 3.8007 17.965C3.80029 17.9616 3.80029 17.9581 3.8007 17.9547C3.83665 17.7402 3.93857 17.5429 4.09171 17.3914C4.29727 17.1947 4.62973 17.0549 5.10684 17.3776L5.12037 17.3879L5.38684 17.6217C5.39005 17.6238 5.3929 17.6264 5.3953 17.6294C5.75568 18.0082 6.12874 18.4386 6.78096 19.7223C6.82579 19.8025 6.87063 19.8836 6.91461 19.9647C7.52285 20.9861 7.77663 21.5925 9.11406 22.2171C9.11663 22.2194 9.11845 22.2224 9.11928 22.2258C9.12011 22.2292 9.11992 22.2328 9.11873 22.236C9.11754 22.2393 9.11541 22.2421 9.11261 22.2441C9.10981 22.2461 9.10648 22.2472 9.10306 22.2473ZM9.55987 22.1783C9.56511 22.1813 9.56899 22.1863 9.57073 22.1922C9.57247 22.1981 9.57193 22.2045 9.56923 22.21C9.56653 22.2155 9.56187 22.2197 9.5562 22.2219C9.55053 22.224 9.54428 22.2238 9.53872 22.2214C8.84675 21.9669 7.86207 21.5856 6.97722 19.4997C6.92646 19.3806 6.86978 19.2633 6.80803 19.1477C6.40536 18.361 6.23955 18.0263 5.74383 17.6027C5.72198 17.5827 5.70704 17.5561 5.70124 17.5267C5.69544 17.4974 5.69908 17.4669 5.71163 17.4399C5.72418 17.4128 5.74497 17.3906 5.77089 17.3766C5.79682 17.3626 5.82649 17.3575 5.8555 17.362C6.20741 17.3767 6.93238 17.4267 7.39173 18.6966C8.08878 20.4495 8.0744 21.1008 9.55987 22.1783ZM10.6418 10.3063C9.00493 11.2259 6.90193 10.4469 6.26578 8.65519C6.15073 7.95729 6.08136 7.18866 6.99921 6.79011C7.30989 6.65873 7.64724 6.60633 7.98219 6.63742C9.41014 6.75388 10.5742 7.14381 11.4396 7.75888C11.4748 7.7867 11.5002 7.82538 11.5121 7.86914C11.5239 7.91291 11.5216 7.95942 11.5054 8.00173C11.4893 8.04403 11.4601 8.07987 11.4223 8.10389C11.3845 8.12791 11.3401 8.13883 11.2957 8.135C10.5852 8.03407 9.55057 7.9849 8.89242 8.41105C8.97702 8.39553 11.0208 8.01509 11.9979 8.44556C12.0504 8.46704 12.0973 8.50079 12.1348 8.54411C12.1723 8.58742 12.1992 8.6391 12.2135 8.69497C12.2279 8.75085 12.2291 8.80937 12.2172 8.86584C12.2053 8.92231 12.1806 8.97514 12.1451 9.02009C11.8879 9.38759 11.3355 9.92071 10.6418 10.3063ZM13.9072 13.4749C13.057 13.4171 11.4116 13.6345 11.4692 11.4847C11.5622 10.3771 11.7466 9.743 12.3498 9.15553C12.4103 9.09748 12.488 9.06157 12.5707 9.05346C12.6534 9.04533 12.7363 9.06546 12.8066 9.11067C13.1737 9.34618 13.8979 9.99749 14.0992 10.6488C14.1542 10.6488 14.391 10.3745 13.6576 9.2116C13.5849 9.10636 13.6466 9.08307 13.7075 9.06754C13.9528 9.00802 14.8233 9.30046 16.0829 10.8429C18.0362 13.3714 14.1567 13.4921 13.9072 13.4749ZM19.5674 10.7894C19.5208 11.2458 19.6215 11.6115 18.8737 11.6115C17.9702 11.6115 13.9334 9.34877 14.5374 8.37655C14.5457 8.36075 14.557 8.3468 14.5706 8.33554C14.5843 8.32427 14.6 8.31592 14.6169 8.31098C14.9003 8.22472 16.2758 8.25923 17.2537 9.50836C17.4187 9.39449 17.5151 8.53441 14.957 7.94867C14.9229 7.94139 14.8925 7.9222 14.8709 7.89442C14.8493 7.86663 14.8379 7.83201 14.8387 7.79656C14.8395 7.76111 14.8524 7.72706 14.8753 7.70032C14.8981 7.67359 14.9294 7.65585 14.9637 7.65019C19.2958 6.94022 19.7357 9.12189 19.5674 10.7894Z" fill="#2F7005"/>
<path d="M37.0582 15.823C37.0119 15.8251 36.9657 15.8177 36.9223 15.8014C36.8789 15.785 36.8393 15.76 36.8058 15.7279C36.7751 15.6977 36.7509 15.6615 36.7346 15.6216C36.7183 15.5817 36.7103 15.5388 36.711 15.4957V9.63943C36.711 9.49988 36.6938 9.42578 36.6581 9.41837C36.6224 9.41096 36.5707 9.45048 36.5214 9.51347C36.1283 9.99182 35.7114 10.5121 35.2707 11.0745L34.4397 12.0884C34.3715 12.1485 34.2842 12.1823 34.1935 12.1835C34.1022 12.1851 34.0139 12.151 33.9473 12.0884C33.9325 12.0662 33.8475 11.9649 33.6887 11.7661L33.1101 11.0535L32.4318 10.2149C32.2077 9.93706 32.0218 9.71106 31.8753 9.53446C31.8187 9.47148 31.7769 9.43937 31.7522 9.43937C31.703 9.43937 31.6784 9.50606 31.6784 9.63943V15.4957C31.6797 15.5381 31.6725 15.5803 31.657 15.6198C31.6416 15.6593 31.6182 15.6952 31.5885 15.7254C31.5563 15.7576 31.5178 15.7827 31.4754 15.799C31.433 15.8154 31.3877 15.8227 31.3423 15.8205C31.297 15.8218 31.2519 15.814 31.2097 15.7977C31.1674 15.7814 31.1288 15.7568 31.0961 15.7254C31.0655 15.6956 31.0412 15.6599 31.0247 15.6204C31.0082 15.5809 30.9998 15.5385 31 15.4957V8.44768C30.9993 8.40455 31.0073 8.36172 31.0236 8.3218C31.0399 8.28188 31.0641 8.24571 31.0948 8.21551C31.125 8.18471 31.161 8.1604 31.2008 8.14405C31.2406 8.1277 31.2833 8.11966 31.3263 8.12041C31.3817 8.11817 31.4371 8.12742 31.4888 8.14758C31.5167 8.15736 31.5419 8.17341 31.5627 8.19451C31.5737 8.20933 31.5799 8.21551 31.5836 8.21551C31.5873 8.21551 31.7067 8.35506 31.9357 8.63293C32.1646 8.9108 32.4343 9.23189 32.7359 9.59745L33.5508 10.5854C33.7971 10.8818 33.9374 11.0572 33.9866 11.114C34.0777 11.2375 34.1442 11.2931 34.1873 11.2931C34.2304 11.2931 34.3301 11.2153 34.4495 11.0609C34.548 10.9489 34.9617 10.4496 35.6905 9.56287L36.8157 8.20439C36.8897 8.15103 36.9781 8.12133 37.0693 8.11918C37.1121 8.11852 37.1545 8.1266 37.1941 8.14295C37.2337 8.1593 37.2696 8.18357 37.2995 8.21427C37.3304 8.2443 37.3548 8.28043 37.3711 8.32039C37.3874 8.36035 37.3953 8.40328 37.3943 8.44645V15.4945C37.3953 15.5376 37.3874 15.5805 37.3711 15.6205C37.3548 15.6605 37.3304 15.6966 37.2995 15.7266C37.268 15.7584 37.2303 15.7833 37.1888 15.7999C37.1473 15.8165 37.1028 15.8243 37.0582 15.823Z" fill="#4B901D"/>
<path d="M41.3604 15.9584C41.0094 15.9639 40.6609 15.8985 40.3356 15.7661C40.0104 15.6337 39.715 15.4371 39.467 15.1878C39.2126 14.9472 39.0111 14.656 38.8754 14.3327C38.7397 14.0095 38.6729 13.6613 38.6791 13.3106C38.6785 12.9597 38.7469 12.6121 38.8805 12.2878C39.0141 11.9635 39.2102 11.6689 39.4577 11.4208C39.7051 11.1727 39.9989 10.9761 40.3222 10.8422C40.6456 10.7083 40.9921 10.6398 41.3419 10.6406C41.7014 10.6397 42.0573 10.7115 42.3883 10.8518C42.7059 10.9808 42.9861 11.1876 43.2033 11.4532C43.2112 11.4658 43.2221 11.4762 43.235 11.4835C43.2479 11.4909 43.2624 11.4949 43.2772 11.4952C43.2926 11.4949 43.3074 11.4892 43.319 11.4792C43.3338 11.4693 43.34 11.4211 43.34 11.3372V11.0902C43.3393 11.0472 43.3474 11.0046 43.3637 10.9649C43.38 10.9252 43.4042 10.8892 43.4348 10.8592C43.5006 10.798 43.587 10.764 43.6767 10.764C43.7664 10.764 43.8528 10.798 43.9186 10.8592C43.9492 10.8892 43.9734 10.9252 43.9897 10.9649C44.006 11.0046 44.014 11.0472 44.0134 11.0902V15.5015C44.0141 15.5446 44.006 15.5874 43.9897 15.6273C43.9734 15.6672 43.9492 15.7034 43.9186 15.7337C43.8524 15.7941 43.7661 15.8275 43.6767 15.8275C43.5872 15.8275 43.5009 15.7941 43.4348 15.7337C43.4041 15.7034 43.3799 15.6672 43.3636 15.6273C43.3473 15.5874 43.3393 15.5446 43.34 15.5015V15.1841C43.34 15.1211 43.3227 15.089 43.2883 15.089C43.2797 15.088 43.271 15.0895 43.2633 15.0935C43.2556 15.0974 43.2493 15.1036 43.2452 15.1112C43.0123 15.3827 42.7227 15.5993 42.397 15.7457C42.0712 15.8921 41.7173 15.9648 41.3604 15.9584ZM41.3604 15.3249C41.6208 15.3297 41.8793 15.2797 42.1193 15.1783C42.3593 15.0768 42.5755 14.9261 42.754 14.7358C43.1235 14.3536 43.3293 13.8416 43.3274 13.3093C43.3256 12.7769 43.1162 12.2663 42.7441 11.8867C42.5629 11.6952 42.3446 11.5426 42.1027 11.4384C41.8608 11.3342 41.6003 11.2804 41.337 11.2804C41.0737 11.2804 40.8132 11.3342 40.5713 11.4384C40.3294 11.5426 40.1112 11.6952 39.9299 11.8867C39.7439 12.0748 39.597 12.2981 39.4977 12.5436C39.3984 12.7891 39.3486 13.0519 39.3513 13.3168C39.3545 13.8502 39.5673 14.3609 39.9434 14.738C40.3195 15.115 40.8287 15.3282 41.3604 15.3311V15.3249Z" fill="#4B901D"/>
<path d="M45.8303 15.8216C45.785 15.8229 45.74 15.8151 45.6977 15.7988C45.6554 15.7825 45.6168 15.7579 45.5841 15.7265C45.5534 15.6963 45.5292 15.6601 45.5129 15.6202C45.4966 15.5803 45.4885 15.5375 45.4893 15.4943V11.0941C45.4886 11.0512 45.4967 11.0086 45.513 10.9689C45.5293 10.9291 45.5535 10.8932 45.5841 10.8632C45.6167 10.8315 45.6553 10.8068 45.6976 10.7905C45.7399 10.7741 45.785 10.7665 45.8303 10.7681C45.8757 10.7655 45.9212 10.7727 45.9636 10.7891C46.006 10.8055 46.0445 10.8307 46.0765 10.8632C46.1074 10.893 46.1317 10.9289 46.148 10.9687C46.1643 11.0084 46.1723 11.0511 46.1713 11.0941V12.8033C46.1713 12.8749 46.1886 12.9095 46.2243 12.9095C46.2546 12.905 46.2824 12.8902 46.303 12.8675L46.6613 12.5403L47.3655 11.8919C47.6289 11.6449 47.862 11.4284 48.0647 11.2423L48.3589 10.9681C48.4282 10.9111 48.5157 10.8813 48.6052 10.8842C48.6912 10.8916 48.7715 10.9308 48.8305 10.9941C48.8636 11.0251 48.8897 11.0629 48.9071 11.1049C48.9246 11.1469 48.9328 11.1922 48.9314 11.2376C48.93 11.2831 48.919 11.3277 48.899 11.3686C48.8791 11.4094 48.8507 11.4455 48.8157 11.4745L48.1214 12.092C47.6929 12.4723 47.4467 12.6938 47.3827 12.7564C47.3689 12.7703 47.3581 12.7869 47.3509 12.8052C47.3437 12.8234 47.3403 12.843 47.3408 12.8626C47.3427 12.8974 47.3556 12.9308 47.3778 12.9577C47.4012 12.9923 47.5009 13.1256 47.6769 13.3578C47.853 13.59 48.0524 13.8518 48.2765 14.1494C48.5005 14.4471 48.7012 14.7052 48.876 14.9299L49.1222 15.2782C49.164 15.3406 49.1859 15.4142 49.185 15.4894C49.1847 15.5373 49.1735 15.5844 49.1521 15.6273C49.1308 15.6701 49.0999 15.7074 49.0619 15.7364C49.0333 15.7619 49 15.7814 48.9639 15.7939C48.9278 15.8064 48.8895 15.8116 48.8514 15.8092H48.7455C48.7107 15.8013 48.6778 15.7862 48.649 15.7649C48.6202 15.7437 48.5961 15.7167 48.5781 15.6857L47.7779 14.5039C47.5612 14.1939 47.3704 13.9185 47.2054 13.6752C47.0405 13.4319 46.9457 13.2961 46.9211 13.264C46.911 13.2497 46.8977 13.238 46.8823 13.2299C46.8669 13.2217 46.8498 13.2173 46.8324 13.217C46.8032 13.217 46.7751 13.228 46.7536 13.2479C46.7278 13.2689 46.6859 13.3084 46.6305 13.364C46.5751 13.4196 46.5074 13.4875 46.4409 13.5492C46.3745 13.611 46.3178 13.6727 46.2575 13.7283C46.2288 13.7561 46.2063 13.7898 46.1917 13.8271C46.177 13.8644 46.1705 13.9044 46.1726 13.9444V15.4956C46.1736 15.5387 46.1657 15.5816 46.1494 15.6216C46.1331 15.6616 46.1087 15.6977 46.0778 15.7277C46.0453 15.7598 46.0066 15.7848 45.9639 15.801C45.9213 15.8171 45.8758 15.8241 45.8303 15.8216Z" fill="#4B901D"/>
<path d="M52.5709 15.9598C52.2215 15.9652 51.8748 15.8982 51.5524 15.763C51.23 15.6279 50.9389 15.4275 50.6972 15.1744C50.4483 14.929 50.2515 14.6357 50.1186 14.312C49.9857 13.9884 49.9195 13.6411 49.924 13.291C49.9239 12.9423 49.9924 12.5969 50.1257 12.2748C50.2589 11.9527 50.4543 11.6602 50.7006 11.414C50.9469 11.1679 51.2392 10.973 51.5608 10.8405C51.8824 10.708 52.2269 10.6405 52.5746 10.642C53.1895 10.6213 53.7899 10.8324 54.2574 11.2336C54.2887 11.258 54.3129 11.2903 54.3279 11.3272C54.3428 11.364 54.3478 11.4041 54.3424 11.4435V12.0202C54.3424 12.119 54.3202 12.1684 54.2784 12.1684C54.2365 12.1684 54.1873 12.1265 54.1109 12.045C53.924 11.8156 53.6934 11.6258 53.4326 11.4867C53.1675 11.3452 52.8712 11.2726 52.5709 11.2756C52.3093 11.2719 52.0499 11.3229 51.8091 11.4254C51.5683 11.5279 51.3514 11.6796 51.1724 11.8708C50.986 12.0566 50.8387 12.278 50.7394 12.522C50.64 12.766 50.5904 13.0275 50.5937 13.291C50.5911 13.5558 50.6409 13.8184 50.7402 14.0637C50.8395 14.309 50.9864 14.532 51.1724 14.7199C51.3496 14.9142 51.5659 15.0687 51.8069 15.1732C52.048 15.2777 52.3083 15.3299 52.5709 15.3263C52.8893 15.3282 53.2022 15.2428 53.4757 15.0793C53.7481 14.9183 53.9845 14.7026 54.17 14.4457C54.2119 14.3902 54.2501 14.3618 54.2858 14.3618C54.2965 14.3632 54.3069 14.3666 54.3165 14.3716C54.3313 14.3791 54.3387 14.4149 54.3387 14.4779V15.1324C54.343 15.1743 54.3365 15.2166 54.3199 15.2553C54.3034 15.294 54.2772 15.3278 54.2439 15.3535C53.7769 15.7506 53.183 15.9659 52.5709 15.9598Z" fill="#4B901D"/>
<path d="M57.6086 15.9595C57.2805 15.9587 56.9557 15.8941 56.6521 15.7693C56.3297 15.6376 56.0574 15.4067 55.874 15.1099C55.6697 14.7978 55.5679 14.3635 55.5687 13.807V11.1061C55.5665 11.0601 55.5743 11.0142 55.5915 10.9716C55.6087 10.9289 55.635 10.8905 55.6684 10.8591C55.7029 10.827 55.7434 10.802 55.7876 10.7857C55.8318 10.7694 55.8787 10.762 55.9257 10.764C55.9704 10.7623 56.0149 10.7698 56.0565 10.7861C56.0982 10.8024 56.136 10.8272 56.1676 10.8588C56.1993 10.8905 56.2241 10.9283 56.2405 10.97C56.2569 11.0117 56.2646 11.0563 56.2631 11.1011V13.76C56.2631 14.2952 56.3944 14.6855 56.657 14.9308C56.9132 15.1752 57.2552 15.3084 57.6086 15.3013C58.5631 15.3013 59.04 14.8653 59.0391 13.9935V11.1061C59.0369 11.0601 59.0447 11.0142 59.0619 10.9716C59.0791 10.9289 59.1054 10.8905 59.1389 10.8591C59.1716 10.8277 59.2102 10.8032 59.2525 10.7869C59.2948 10.7706 59.3398 10.7628 59.3851 10.764C59.4304 10.7624 59.4756 10.7699 59.5179 10.7863C59.5602 10.8026 59.5988 10.8274 59.6313 10.8591C59.6636 10.8912 59.6888 10.9298 59.7051 10.9724C59.7215 11.015 59.7286 11.0605 59.7261 11.1061L59.7372 15.4853C59.7376 15.5296 59.729 15.5735 59.7118 15.6142C59.6947 15.655 59.6694 15.6918 59.6374 15.7224C59.6052 15.7548 59.5668 15.7804 59.5245 15.7976C59.4822 15.8148 59.4369 15.8232 59.3912 15.8225C59.3017 15.8253 59.2142 15.7955 59.145 15.7385C59.1119 15.7099 59.0858 15.6741 59.0685 15.6339C59.0512 15.5937 59.0433 15.5501 59.0453 15.5063V15.4112C59.0461 15.4055 59.0455 15.3996 59.0437 15.3941C59.0419 15.3886 59.0389 15.3835 59.0349 15.3794C59.0308 15.3752 59.0259 15.372 59.0205 15.37C59.015 15.3681 59.0092 15.3674 59.0034 15.368C58.9951 15.3686 58.987 15.3708 58.9796 15.3747C58.9722 15.3785 58.9657 15.3838 58.9604 15.3902C58.7982 15.6015 58.5737 15.7562 58.319 15.8323C58.09 15.9107 57.8505 15.9536 57.6086 15.9595Z" fill="#4B901D"/>
<path d="M65.3191 15.8216C65.2738 15.8229 65.2287 15.8152 65.1864 15.7989C65.1442 15.7826 65.1056 15.7579 65.0729 15.7265C65.0419 15.6965 65.0175 15.6603 65.0012 15.6204C64.9849 15.5804 64.977 15.5375 64.9781 15.4943V11.9919C64.9781 11.9499 64.9707 11.9277 64.9572 11.9277L64.3625 12.5612C63.8791 13.0964 63.6182 13.3796 63.5796 13.4109C63.5388 13.4426 63.4883 13.4591 63.4368 13.4578C63.3921 13.4587 63.3485 13.4439 63.3137 13.4158C63.2659 13.3772 63.2203 13.3359 63.177 13.2923L61.925 11.9339C61.9115 11.9339 61.9041 11.9561 61.9041 11.9981V15.5005C61.9048 15.5436 61.8968 15.5864 61.8805 15.6264C61.8642 15.6663 61.84 15.7025 61.8093 15.7327C61.777 15.7647 61.7385 15.7897 61.6961 15.8061C61.6537 15.8224 61.6084 15.8298 61.5631 15.8278C61.5168 15.8299 61.4705 15.8226 61.4271 15.8063C61.3837 15.7899 61.3441 15.7649 61.3107 15.7327C61.2798 15.7026 61.2554 15.6665 61.2391 15.6265C61.2227 15.5866 61.2149 15.5437 61.2159 15.5005V11.0941C61.215 11.0511 61.2229 11.0084 61.2392 10.9687C61.2555 10.9289 61.2799 10.893 61.3107 10.8632C61.344 10.8307 61.3835 10.8055 61.427 10.7891C61.4704 10.7727 61.5167 10.7656 61.5631 10.7681C61.609 10.7682 61.6545 10.7776 61.6967 10.7956C61.739 10.8136 61.7773 10.84 61.8093 10.873C61.8651 10.9438 61.9841 11.0809 62.1663 11.2843C62.6005 11.77 62.9091 12.1323 63.0921 12.3711C63.2398 12.5971 63.3518 12.7094 63.4282 12.7094C63.5045 12.7094 63.5968 12.6242 63.7015 12.4624C63.7712 12.3711 63.8943 12.2233 64.0708 12.0191C64.4811 11.5333 64.7684 11.204 64.9325 11.0311L65.0556 10.8829C65.0872 10.8449 65.1277 10.8155 65.1735 10.7971C65.2193 10.7788 65.2689 10.7722 65.3179 10.7779C65.3609 10.7769 65.4037 10.7848 65.4435 10.8012C65.4833 10.8175 65.5194 10.842 65.5493 10.873C65.5799 10.9031 65.6041 10.939 65.6204 10.9787C65.6367 11.0184 65.6448 11.061 65.6441 11.104V15.5042C65.6449 15.5473 65.6368 15.5902 65.6205 15.6301C65.6042 15.67 65.58 15.7062 65.5493 15.7364C65.4864 15.7935 65.4039 15.8241 65.3191 15.8216Z" fill="#4B901D"/>
<path d="M68 16.9091H67.7267C67.6208 16.9091 67.5691 16.8671 67.5691 16.7856C67.5689 16.7496 67.576 16.7138 67.59 16.6806L68.389 15.0023C68.4369 14.9365 68.4627 14.8572 68.4627 14.7757C68.4627 14.6942 68.4369 14.6149 68.389 14.5491C67.2638 12.1483 66.7012 10.9347 66.7012 10.9084C66.7012 10.817 66.7578 10.7713 66.8698 10.7713H67.1431C67.2177 10.7726 67.2905 10.7943 67.3536 10.8343C67.4181 10.8703 67.4697 10.9255 67.5014 10.9923L68.794 14.0798C68.8297 14.1576 68.8543 14.1959 68.8679 14.1959C68.8814 14.1959 68.9036 14.1613 68.9307 14.0909C68.9454 14.0703 69.3837 13.0362 70.2454 10.9886C70.2771 10.9218 70.3287 10.8666 70.3932 10.8306C70.4563 10.7906 70.5291 10.7688 70.6037 10.7676H70.8868C70.9989 10.7676 71.0555 10.8133 71.0555 10.9047C71.0555 10.9327 70.158 12.8563 68.3631 16.6757C68.3298 16.742 68.2786 16.7976 68.2154 16.8362C68.153 16.8827 68.0776 16.9082 68 16.9091Z" fill="#4B901D"/>
<path d="M76.2253 15.8216C76.179 15.8238 76.1327 15.8165 76.0894 15.8001C76.046 15.7838 76.0063 15.7587 75.9729 15.7265C75.9422 15.6963 75.918 15.6601 75.9017 15.6202C75.8854 15.5803 75.8774 15.5375 75.8781 15.4943V11.9919C75.8781 11.9499 75.8708 11.9277 75.8572 11.9277L75.2675 12.5612C74.7833 13.0964 74.5223 13.3796 74.4846 13.4109C74.4442 13.4426 74.3942 13.4592 74.343 13.4578C74.2984 13.4582 74.255 13.4434 74.2199 13.4159C74.1842 13.3874 74.1399 13.3455 74.0832 13.2924L72.8312 11.9339C72.8177 11.9339 72.8103 11.9561 72.8103 11.9981V15.5005C72.8113 15.5437 72.8035 15.5866 72.7871 15.6265C72.7708 15.6665 72.7464 15.7026 72.7155 15.7327C72.6833 15.7648 72.6448 15.7899 72.6024 15.8063C72.56 15.8227 72.5147 15.83 72.4693 15.8278C72.423 15.83 72.3767 15.8226 72.3333 15.8063C72.2899 15.7899 72.2503 15.7649 72.2169 15.7327C72.1862 15.7025 72.162 15.6663 72.1457 15.6264C72.1294 15.5865 72.1214 15.5436 72.1221 15.5005V11.0941C72.1215 11.0512 72.1295 11.0085 72.1458 10.9688C72.1621 10.9291 72.1863 10.8932 72.2169 10.8632C72.2502 10.8307 72.2897 10.8055 72.3332 10.7891C72.3766 10.7727 72.423 10.7656 72.4693 10.7681C72.5163 10.7673 72.5629 10.7762 72.6063 10.7943C72.6497 10.8123 72.689 10.8391 72.7217 10.873C72.7775 10.9438 72.8965 11.0809 73.0787 11.2843C73.5128 11.77 73.8214 12.1323 74.0044 12.3711C74.1522 12.5971 74.2642 12.7094 74.3418 12.7094C74.4193 12.7094 74.5092 12.6242 74.6151 12.4624C74.6852 12.3711 74.8071 12.2229 74.9844 12.0191C75.3947 11.5333 75.682 11.204 75.8461 11.0311L75.9692 10.8829C76.0009 10.845 76.0414 10.8156 76.0872 10.7973C76.1329 10.779 76.1825 10.7723 76.2315 10.7779C76.2743 10.7776 76.3168 10.7858 76.3564 10.8021C76.396 10.8183 76.4321 10.8423 76.4624 10.8726C76.4928 10.903 76.5168 10.939 76.5332 10.9787C76.5495 11.0184 76.5579 11.061 76.5577 11.104V15.5042C76.5587 15.5474 76.5509 15.5903 76.5345 15.6303C76.5182 15.6702 76.4938 15.7064 76.4629 15.7364C76.4309 15.7657 76.3934 15.7883 76.3526 15.803C76.3119 15.8176 76.2686 15.8239 76.2253 15.8216Z" fill="#4B901D"/>
<path opacity="0.75" d="M84.1831 16.6576C84.1379 16.6588 84.0928 16.6509 84.0506 16.6346C84.0083 16.6183 83.9697 16.5938 83.9369 16.5625C83.9062 16.5323 83.882 16.4961 83.8657 16.4562C83.8494 16.4163 83.8413 16.3735 83.8421 16.3303C83.8414 16.2479 83.8451 16.1654 83.8532 16.0833C83.8597 16.0255 83.863 15.9674 83.863 15.9092C83.863 15.8532 83.8544 15.8199 83.8372 15.8092C83.8127 15.7972 83.7856 15.7917 83.7584 15.7931C83.6673 15.8005 83.602 15.8079 83.5639 15.8141C83.4748 15.8241 83.3851 15.8279 83.2955 15.8252H78.5608C78.5154 15.8272 78.4702 15.8198 78.4278 15.8035C78.3854 15.7871 78.3469 15.7621 78.3146 15.7301C78.2839 15.6999 78.2596 15.6638 78.2433 15.6238C78.227 15.5839 78.219 15.5411 78.2198 15.498V8.44872C78.219 8.40559 78.227 8.36275 78.2433 8.32283C78.2596 8.28292 78.2839 8.24675 78.3146 8.21654C78.3804 8.15535 78.4668 8.12134 78.5565 8.12134C78.6462 8.12134 78.7326 8.15535 78.7984 8.21654C78.8291 8.24675 78.8533 8.28292 78.8696 8.32283C78.8859 8.36275 78.8939 8.40559 78.8932 8.44872V15.0225C78.8907 15.0398 78.8923 15.0574 78.8979 15.0739C78.9034 15.0904 78.9128 15.1054 78.9252 15.1176C78.9575 15.134 78.9937 15.1413 79.0298 15.1386H82.68C82.7146 15.1418 82.7493 15.1344 82.7797 15.1176C82.7903 15.1044 82.798 15.0891 82.8025 15.0727C82.8069 15.0564 82.808 15.0393 82.8055 15.0225V8.44872C82.8048 8.40559 82.8128 8.36275 82.8291 8.32283C82.8454 8.28292 82.8696 8.24675 82.9003 8.21654C82.9338 8.18438 82.9734 8.15936 83.0168 8.14301C83.0602 8.12667 83.1064 8.11933 83.1527 8.12145C83.198 8.11953 83.2433 8.12698 83.2857 8.14334C83.328 8.15969 83.3666 8.18461 83.3989 8.21654C83.4295 8.24681 83.4535 8.28302 83.4696 8.32294C83.4857 8.36286 83.4935 8.40567 83.4925 8.44872V15.0225C83.4904 15.0365 83.4913 15.0507 83.495 15.0644C83.4987 15.078 83.5053 15.0907 83.5142 15.1016C83.5232 15.1126 83.5343 15.1215 83.5468 15.1279C83.5594 15.1342 83.5732 15.1379 83.5873 15.1386H84.2028C84.2449 15.1383 84.2866 15.1464 84.3255 15.1625C84.3644 15.1786 84.3997 15.2024 84.4293 15.2324C84.4599 15.2628 84.484 15.299 84.5003 15.3389C84.5166 15.3788 84.5247 15.4215 84.5241 15.4646V16.3291C84.5249 16.3722 84.5169 16.4151 84.5006 16.455C84.4843 16.4949 84.46 16.5311 84.4293 16.5613C84.3971 16.5935 84.3586 16.6187 84.3163 16.6353C84.2739 16.6518 84.2286 16.6594 84.1831 16.6576Z" fill="#333333"/>
<path opacity="0.75" d="M88.0365 15.9599C87.3291 15.9599 86.7751 15.7981 86.3746 15.4746C85.6737 14.9114 85.3232 13.9794 85.3232 12.6786C85.3232 12.6008 85.3232 12.3871 85.3392 12.0351C85.3714 11.5266 85.4468 11.0217 85.5645 10.526C85.6945 9.8122 86.0616 9.16359 86.606 8.68589C87.1317 8.23168 87.8058 7.98767 88.4994 8.00048C88.9836 8.00048 89.353 8.14127 89.6074 8.42284C89.7771 8.60605 89.8713 8.84702 89.8708 9.09714C89.8572 9.29275 89.8199 9.48598 89.76 9.67263C89.6862 9.93527 89.3444 10.2646 88.7346 10.6606C88.7136 10.6742 88.7025 10.6828 88.7025 10.6866V10.7026C88.7025 10.71 88.7099 10.7199 88.7235 10.7335C89.2865 10.8831 89.7853 11.2131 90.1441 11.6733C90.4438 12.0684 90.6277 12.5396 90.6752 13.0338C90.7227 13.528 90.6318 14.0257 90.4129 14.471C90.194 14.9163 89.8556 15.2915 89.4358 15.5545C89.016 15.8175 88.5315 15.9579 88.0365 15.9599ZM86.0914 11.5597C86.1202 11.5559 86.1464 11.5408 86.1641 11.5177C86.4261 11.1725 86.7855 10.9143 87.1957 10.7767L87.3631 10.7137C87.5741 10.6437 87.8248 10.5433 88.1153 10.4124C88.4026 10.2851 88.6688 10.1143 88.9044 9.90605C89.0143 9.81652 89.1029 9.70357 89.1638 9.5754C89.2247 9.44723 89.2564 9.30705 89.2565 9.16506C89.2574 9.09058 89.2423 9.01679 89.2124 8.94863C89.1824 8.88047 89.1383 8.81952 89.083 8.76987C88.9672 8.66037 88.7727 8.60562 88.4994 8.60562C87.9895 8.59314 87.4919 8.76347 87.096 9.08602C86.6902 9.43019 86.3954 9.88754 86.249 10.4C86.2072 10.5408 86.1641 10.7051 86.1259 10.894C86.0787 11.0813 86.047 11.2721 86.0311 11.4646C86.0299 11.5263 86.0483 11.5597 86.0914 11.5597ZM88.0365 15.3264C88.2991 15.33 88.5594 15.2778 88.8005 15.1733C89.0415 15.0688 89.2578 14.9143 89.435 14.72C89.6212 14.5323 89.7682 14.3092 89.8676 14.0639C89.9669 13.8186 90.0166 13.5559 90.0136 13.2911C90.0172 13.0275 89.9678 12.7659 89.8684 12.5219C89.769 12.2779 89.6216 12.0565 89.435 11.8709C89.2537 11.6827 89.0364 11.533 88.7961 11.4307C88.5558 11.3285 88.2975 11.2758 88.0365 11.2758C87.7756 11.2758 87.5172 11.3285 87.277 11.4307C87.0367 11.533 86.8194 11.6827 86.638 11.8709C86.4517 12.0567 86.3044 12.2781 86.205 12.5221C86.1056 12.7661 86.0561 13.0276 86.0594 13.2911C86.0568 13.5559 86.1065 13.8185 86.2059 14.0638C86.3052 14.3091 86.4521 14.5321 86.638 14.72C86.8153 14.9143 87.0316 15.0688 87.2726 15.1733C87.5136 15.2778 87.774 15.33 88.0365 15.3264Z" fill="#333333"/>
<path opacity="0.75" d="M94.4414 15.9586C94.0918 15.959 93.7456 15.8904 93.4225 15.7564C93.0995 15.6225 92.8059 15.426 92.5587 15.1781C92.3115 14.9302 92.1154 14.6358 91.9818 14.3117C91.8481 13.9877 91.7795 13.6404 91.7798 13.2898C91.7729 12.9401 91.8381 12.5927 91.9713 12.2694C92.1046 11.9462 92.303 11.654 92.5541 11.4114C93.0569 10.9173 93.7327 10.6406 94.4365 10.6406C95.1403 10.6406 95.816 10.9173 96.3188 11.4114C96.6867 11.7724 96.9219 12.2477 96.986 12.76L96.9971 12.8341C96.9942 12.9109 96.9762 12.9865 96.9442 13.0564C96.9097 13.1387 96.8186 13.1799 96.6709 13.1799H92.6428C92.6187 13.1765 92.5942 13.1781 92.5707 13.1844C92.5472 13.1908 92.5253 13.2018 92.5061 13.2169C92.4827 13.249 92.4713 13.2884 92.4741 13.3281V13.3799C92.4998 13.8696 92.706 14.3322 93.0527 14.6779C93.4811 15.1077 93.9428 15.3213 94.4414 15.3213C94.7087 15.3211 94.9727 15.2616 95.2145 15.1472C95.4297 15.0557 95.6219 14.9173 95.7771 14.7421C95.9458 14.5309 96.0861 14.4247 96.1981 14.4247C96.2724 14.428 96.3447 14.4497 96.4086 14.4877C96.4541 14.5177 96.4913 14.5586 96.5169 14.6067C96.5425 14.6548 96.5556 14.7086 96.5551 14.7631C96.5531 14.8606 96.5159 14.954 96.4505 15.0262C95.8817 15.6478 95.212 15.9586 94.4414 15.9586ZM96.0615 12.513C96.1661 12.513 96.2191 12.492 96.2191 12.45C96.2127 12.4029 96.1905 12.3593 96.1563 12.3265V12.3154C96.0737 12.1593 95.9631 12.0199 95.83 11.9041C95.6548 11.7082 95.4406 11.5514 95.2012 11.4438C94.9618 11.3361 94.7026 11.2801 94.4402 11.2793C94.1779 11.2785 93.9183 11.3329 93.6782 11.439C93.4382 11.5452 93.223 11.7007 93.0466 11.8955C92.9065 12.0359 92.7827 12.1917 92.6773 12.3598C92.6602 12.389 92.6493 12.4214 92.6452 12.4549C92.6459 12.4627 92.6487 12.4701 92.6533 12.4764C92.6578 12.4827 92.664 12.4877 92.6711 12.4908C92.6883 12.5056 93.8185 12.513 96.0615 12.513Z" fill="#333333"/>
<path opacity="0.75" d="M99.9 15.822C99.8547 15.8234 99.8097 15.8157 99.7674 15.7993C99.7251 15.783 99.6865 15.7584 99.6538 15.7269C99.6231 15.6967 99.5989 15.6605 99.5826 15.6206C99.5663 15.5807 99.5583 15.5379 99.559 15.4948V11.549C99.5596 11.522 99.5504 11.4957 99.5332 11.4749C99.5231 11.4639 99.5106 11.4553 99.4968 11.4497C99.4829 11.4442 99.468 11.4418 99.4531 11.4428H98.3452C98.3023 11.4438 98.2596 11.436 98.2198 11.4198C98.18 11.4037 98.1439 11.3796 98.1137 11.3489C98.0819 11.3165 98.0571 11.2778 98.0408 11.2353C98.0244 11.1928 98.017 11.1474 98.0189 11.1019C98.0167 11.0564 98.024 11.0109 98.0403 10.9684C98.0567 10.9259 98.0817 10.8872 98.1137 10.855C98.1437 10.8239 98.1797 10.7994 98.2195 10.7831C98.2594 10.7667 98.3021 10.7588 98.3452 10.7599H101.468C101.511 10.7588 101.554 10.7667 101.594 10.7831C101.634 10.7994 101.67 10.8239 101.7 10.855C101.732 10.8872 101.757 10.9259 101.773 10.9684C101.79 11.0109 101.797 11.0564 101.795 11.1019C101.797 11.1474 101.789 11.1928 101.773 11.2353C101.757 11.2778 101.732 11.3165 101.7 11.3489C101.67 11.3796 101.634 11.4037 101.594 11.4198C101.554 11.436 101.511 11.4438 101.468 11.4428H100.343C100.33 11.4425 100.317 11.4453 100.306 11.4508C100.294 11.4564 100.284 11.4647 100.275 11.4749C100.257 11.4953 100.248 11.5218 100.248 11.549V15.4948C100.249 15.5379 100.242 15.5808 100.225 15.6208C100.209 15.6608 100.185 15.6969 100.154 15.7269C100.121 15.7601 100.081 15.7857 100.037 15.8021C99.9934 15.8185 99.9466 15.8253 99.9 15.822Z" fill="#333333"/>
<path opacity="0.75" d="M105.481 15.9591C104.866 15.9582 104.271 15.7436 103.797 15.352C103.322 14.9603 102.998 14.4158 102.879 13.8111C102.759 13.2063 102.853 12.5789 103.143 12.0355C103.433 11.4921 103.902 11.0665 104.47 10.831C105.038 10.5955 105.67 10.5648 106.257 10.7441C106.845 10.9234 107.353 11.3015 107.694 11.8142C108.035 12.3269 108.189 12.9423 108.129 13.5558C108.068 14.1692 107.798 14.7427 107.363 15.1786C107.12 15.4313 106.827 15.631 106.503 15.7653C106.179 15.8995 105.831 15.9655 105.481 15.9591ZM105.481 15.3255C105.743 15.3292 106.003 15.2776 106.244 15.1739C106.485 15.0703 106.701 14.9171 106.879 14.7241C107.25 14.3436 107.458 13.8324 107.458 13.3002C107.458 12.7679 107.25 12.2568 106.879 11.8762C106.7 11.6863 106.483 11.535 106.243 11.4316C106.003 11.3282 105.745 11.2749 105.483 11.2749C105.222 11.2749 104.964 11.3282 104.724 11.4316C104.484 11.535 104.267 11.6863 104.087 11.8762C103.713 12.2552 103.504 12.7669 103.504 13.3002C103.504 13.8334 103.713 14.3451 104.087 14.7241C104.265 14.9162 104.481 15.0689 104.721 15.1725C104.961 15.2761 105.22 15.3282 105.481 15.3255Z" fill="#333333"/>
<path opacity="0.75" d="M111.883 15.9599C111.173 15.9599 110.619 15.7981 110.221 15.4746C109.519 14.9114 109.168 13.9794 109.168 12.6786C109.168 12.6008 109.174 12.3871 109.184 12.0352C109.217 11.5266 109.293 11.0218 109.41 10.526C109.54 9.81254 109.906 9.16397 110.45 8.6859C110.975 8.23157 111.648 7.98752 112.342 8.00049C112.825 8.00049 113.194 8.14128 113.45 8.42285C113.62 8.60559 113.714 8.84687 113.713 9.09715C113.699 9.29276 113.662 9.48599 113.602 9.67264C113.53 9.93528 113.188 10.2646 112.577 10.6606C112.556 10.6742 112.546 10.6829 112.546 10.6866V10.7026C112.546 10.71 112.546 10.7199 112.567 10.7335C113.13 10.8832 113.628 11.2132 113.986 11.6733C114.286 12.0682 114.47 12.539 114.517 13.0329C114.565 13.5268 114.474 14.0242 114.256 14.4693C114.038 14.9145 113.7 15.2898 113.28 15.553C112.861 15.8163 112.377 15.9572 111.883 15.9599ZM109.936 11.5597C109.965 11.5557 109.992 11.5407 110.01 11.5177C110.272 11.1728 110.631 10.9146 111.04 10.7767L111.209 10.7137C111.42 10.6433 111.67 10.5433 111.961 10.4124C112.248 10.2849 112.514 10.1141 112.749 9.90606C112.859 9.81654 112.948 9.70361 113.009 9.57546C113.07 9.44731 113.102 9.30713 113.102 9.16507C113.103 9.09059 113.088 9.0168 113.058 8.94864C113.028 8.88048 112.984 8.81953 112.929 8.76988C112.813 8.66038 112.618 8.60563 112.344 8.60563C111.834 8.59315 111.337 8.76348 110.941 9.08603C110.535 9.43055 110.241 9.88777 110.094 10.4C110.052 10.5408 110.01 10.7051 109.971 10.894C109.923 11.0811 109.891 11.272 109.876 11.4646C109.871 11.5263 109.892 11.5597 109.934 11.5597H109.936ZM111.883 15.3264C112.145 15.3298 112.405 15.2776 112.646 15.1731C112.887 15.0686 113.104 14.9142 113.281 14.72C113.467 14.5321 113.614 14.3091 113.713 14.0638C113.813 13.8185 113.862 13.5559 113.86 13.2911C113.863 13.0276 113.813 12.7661 113.714 12.5221C113.615 12.2781 113.467 12.0567 113.281 11.8709C113.1 11.6826 112.882 11.5329 112.642 11.4307C112.401 11.3284 112.143 11.2757 111.882 11.2757C111.621 11.2757 111.362 11.3284 111.122 11.4307C110.882 11.5329 110.664 11.6826 110.483 11.8709C110.296 12.0567 110.149 12.2781 110.05 12.5221C109.95 12.7661 109.901 13.0276 109.904 13.2911C109.901 13.5559 109.951 13.8185 110.051 14.0638C110.15 14.3091 110.297 14.5321 110.483 14.72C110.66 14.9144 110.877 15.0689 111.118 15.1734C111.359 15.2779 111.62 15.3301 111.883 15.3264Z" fill="#333333"/>
</svg>
