<svg width="94" height="94" viewBox="0 0 94 94" fill="none" xmlns="http://www.w3.org/2000/svg">
<circle cx="45" cy="49" r="45" fill="#183E00"/>
<path d="M47 0C40.8279 -7.36019e-08 34.7162 1.21569 29.0139 3.57766C23.3116 5.93963 18.1303 9.40163 13.766 13.766C9.40163 18.1303 5.93963 23.3116 3.57766 29.0139C1.21569 34.7162 -9.31965e-07 40.8279 0 47L4.69852 47C4.69852 41.4449 5.79268 35.9442 7.91853 30.8119C10.0444 25.6797 13.1603 21.0164 17.0883 17.0883C21.0164 13.1603 25.6797 10.0444 30.8119 7.91853C35.9442 5.79268 41.4449 4.69852 47 4.69852L47 0Z" fill="#3F9B03"/>
<g clip-path="url(#clip0)">
<path d="M13.8815 89.1185C13.2075 89.1185 12.6611 88.5722 12.6611 87.8982V81.7965C12.6611 81.1225 13.2075 80.5762 13.8815 80.5762C14.5554 80.5762 15.1018 81.1225 15.1018 81.7965V87.8982C15.1018 88.5722 14.5554 89.1185 13.8815 89.1185Z" fill="#4FBA6F"/>
<path d="M18.7628 89.1183C18.0888 89.1183 17.5425 88.5719 17.5425 87.898V84.2369C17.5425 83.563 18.0888 83.0166 18.7628 83.0166C19.4368 83.0166 19.9832 83.563 19.9832 84.2369V87.898C19.9832 88.5719 19.4368 89.1183 18.7628 89.1183Z" fill="#4FBA6F"/>
<path d="M24.8644 89.1191C24.1904 89.1191 23.644 88.5728 23.644 87.8988V80.5768C23.644 79.9028 24.1904 79.3564 24.8644 79.3564C25.5384 79.3564 26.0847 79.9028 26.0847 80.5768V87.8988C26.0847 88.5728 25.5384 89.1191 24.8644 89.1191Z" fill="#4FBA6F"/>
<path d="M72.0648 75.8172C69.8792 68.6245 71.8952 60.447 73.0277 56.8348C73.1095 56.5756 73.01 56.2936 72.7837 56.1431C72.5573 55.9926 72.2588 56.0099 72.0514 56.1856C66.1981 60.987 62.76 68.1253 62.6548 75.6952L62.6951 87.8986H72.4578V78.1358L72.0648 75.8172Z" fill="#24AE5F"/>
<path d="M78.5593 87.8994H10.2203C9.54636 87.8994 9 88.4458 9 89.1198V92.7808C9 93.4547 9.54636 94.0011 10.2203 94.0011H78.5593C79.2333 94.0011 79.7797 93.4547 79.7797 92.7808V89.1198C79.7797 88.4458 79.2333 87.8994 78.5593 87.8994Z" fill="#A56A43"/>
<path d="M30.9663 75.6953H40.729V87.8987H30.9663V75.6953Z" fill="#2C3E50"/>
<path d="M51.9681 52.5091H47.7824L44.5363 42.8074C44.0454 41.3104 42.6459 40.3002 41.0705 40.3057H30.6244C29.049 40.3002 27.6496 41.3104 27.1586 42.8074L23.9125 52.5091H18.7627V48.8481C18.7587 47.5018 17.6683 46.4114 16.322 46.4074H11.4407C10.0944 46.4114 9.00402 47.5018 9 48.8481V57.3904C9.00402 58.7367 10.0944 59.8271 11.4407 59.8311H21.2034V67.1531C21.2034 68.5011 22.2961 69.5938 23.6441 69.5938H27.3051V73.2548C27.3091 74.6011 28.3995 75.6915 29.7458 75.6955H41.9492C43.2954 75.6915 44.3858 74.6011 44.3898 73.2548V65.2616L39.1546 59.8311L51.9681 52.5091ZM31.5031 45.187H40.1919L42.6325 52.5091H29.0624L31.5031 45.187Z" fill="#547580"/>
<path d="M51.9681 52.5079H18.7627V48.8469C18.7587 47.5006 17.6683 46.4103 16.322 46.4062H11.4407C10.0944 46.4103 9.00402 47.5006 9 48.8469V57.3893C9.00402 58.7356 10.0944 59.8259 11.4407 59.83H39.1546L51.9681 52.5079Z" fill="#35495E"/>
<path d="M44.3899 65.2616V73.2548C44.3859 74.6011 43.2955 75.6914 41.9492 75.6955H29.7459C28.3996 75.6914 27.3092 74.6011 27.3052 73.2548V59.8311H39.1547L44.3899 65.2616Z" fill="#547580"/>
<path d="M27.3048 69.5938H23.6438C22.2959 69.5938 21.2031 68.501 21.2031 67.1531V59.8311H27.3048V69.5938Z" fill="#2C3E50"/>
<path d="M56.5933 87.8987C56.5933 87.8987 59.9736 78.8829 56.9887 71.6816C56.9017 71.4845 56.9251 71.2561 57.0504 71.0807C57.1756 70.9054 57.3841 70.8091 57.5988 70.8274C60.3043 71.0373 67.5763 73.0106 67.5763 87.8987H56.5933Z" fill="#4FBA6F"/>
<path d="M77.3389 87.8985C77.3389 87.8985 74.332 74.8689 77.4011 68.7929C77.5342 68.5581 77.4972 68.2638 77.3102 68.0693C77.1233 67.8747 76.8307 67.826 76.5908 67.9496C73.4338 69.6251 67.5762 74.5333 67.5762 87.8985H77.3389Z" fill="#4FBA6F"/>
<path d="M46.8306 87.8976C48.0228 86.0267 48.8262 83.935 49.1931 81.7471C49.2234 81.521 49.3771 81.3307 49.5918 81.2536C49.8065 81.1766 50.0463 81.2257 50.2133 81.381C51.9564 83.101 52.936 85.4488 52.9323 87.8976H46.8306Z" fill="#4FBA6F"/>
<path d="M50.4914 43.9658H50.4121C50.0888 43.9454 49.787 43.7974 49.573 43.5543C49.3589 43.3112 49.2503 42.993 49.2711 42.6698C49.3538 41.7746 49.5172 40.8887 49.7592 40.0229C49.9317 39.3711 50.5999 38.9827 51.2517 39.1552C51.9034 39.3277 52.2919 39.996 52.1193 40.6477C51.9211 41.3599 51.7847 42.0879 51.7117 42.8235C51.6705 43.4668 51.136 43.9671 50.4914 43.9658V43.9658Z" fill="#2FA8CC"/>
<path d="M52.7516 37.0286C52.321 37.0282 51.9225 36.801 51.7029 36.4307C51.4833 36.0603 51.4751 35.6017 51.6813 35.2237C52.0946 34.4667 52.5531 33.7352 53.0542 33.0332C53.2991 32.6585 53.7294 32.448 54.1755 32.4846C54.6215 32.5211 55.0118 32.799 55.1924 33.2085C55.3729 33.6181 55.3148 34.0936 55.0409 34.4476C54.5966 35.0716 54.1891 35.7212 53.8206 36.3928C53.6071 36.784 53.1973 37.0278 52.7516 37.0286V37.0286Z" fill="#2FA8CC"/>
<path d="M57.3082 31.3471C56.8001 31.3475 56.345 31.033 56.1656 30.5578C55.9862 30.0825 56.12 29.5457 56.5015 29.2103C57.1452 28.6454 57.819 28.1158 58.52 27.6239C58.8764 27.3648 59.3447 27.318 59.7453 27.5013C60.146 27.6847 60.4167 28.0698 60.4535 28.5088C60.4904 28.9479 60.2878 29.3727 59.9234 29.6203C59.2951 30.0623 58.6913 30.5381 58.1148 31.0457C57.8918 31.2414 57.6049 31.3487 57.3082 31.3471V31.3471Z" fill="#2FA8CC"/>
<path d="M63.461 27.4481C62.8841 27.4494 62.385 27.0465 62.2647 26.4822C62.1444 25.9179 62.4358 25.3465 62.9632 25.1124C63.7185 24.7756 64.513 24.4619 65.3233 24.1788C65.9599 23.9567 66.6559 24.2927 66.878 24.9293C67.1001 25.5659 66.7641 26.262 66.1275 26.484C65.3806 26.744 64.6509 27.0332 63.9565 27.3383C63.801 27.4094 63.6321 27.4469 63.461 27.4481V27.4481Z" fill="#2FA8CC"/>
<path d="M70.4269 25.2866C69.7995 25.2854 69.2753 24.8085 69.2147 24.184C69.1542 23.5595 69.5771 22.9909 70.1926 22.8691C70.9859 22.7121 71.8104 22.575 72.6663 22.4579C73.1035 22.3876 73.5444 22.5597 73.8185 22.9075C74.0925 23.2553 74.1567 23.7242 73.9861 24.1329C73.8155 24.5415 73.437 24.8257 72.997 24.8754C72.1891 24.9864 71.4105 25.1194 70.6637 25.2634C70.5857 25.2789 70.5064 25.2867 70.4269 25.2866V25.2866Z" fill="#2FA8CC"/>
<path d="M77.6867 24.4785C77.0127 24.4903 76.4568 23.9535 76.445 23.2795C76.4332 22.6056 76.97 22.0496 77.644 22.0378C78.3355 22.0126 79.0474 22 79.7796 22C80.4536 22 80.9999 22.5464 80.9999 23.2203C80.9999 23.8943 80.4536 24.4407 79.7796 24.4407C79.0803 24.4407 78.3969 24.4541 77.7306 24.4773L77.6867 24.4785Z" fill="#2FA8CC"/>
<path d="M57.8136 43.9661C57.766 43.9661 57.7172 43.9661 57.6684 43.9576C57.0045 43.8785 56.5278 43.28 56.5994 42.6152C56.7497 41.662 57.0591 40.7409 57.5146 39.8902C57.6967 39.4773 58.0916 39.1986 58.5416 39.1654C58.9916 39.1323 59.4232 39.3501 59.6637 39.7318C59.9043 40.1136 59.9146 40.5969 59.6905 40.9885C59.3719 41.5838 59.1472 42.2247 59.0242 42.8886C58.9519 43.5025 58.4318 43.9654 57.8136 43.9661V43.9661Z" fill="#2FA8CC"/>
<path d="M61.6635 37.8995C61.1502 37.8991 60.6921 37.5777 60.5171 37.0953C60.342 36.6128 60.4876 36.0724 60.8812 35.7431C61.5545 35.1828 62.2706 34.676 63.0229 34.2275C63.6009 33.88 64.351 34.0669 64.6984 34.6448C65.0459 35.2227 64.859 35.9729 64.2811 36.3203C63.6381 36.7054 63.0261 37.14 62.4506 37.62C62.2292 37.8028 61.9505 37.9018 61.6635 37.8995V37.8995Z" fill="#2FA8CC"/>
<path d="M68.1035 34.5342C67.4994 34.5363 66.9848 34.0961 66.8931 33.499C66.8015 32.9019 67.1605 32.3276 67.7374 32.1484C68.5184 31.9044 69.3434 31.6811 70.1927 31.4907C70.8505 31.3434 71.5032 31.7573 71.6504 32.4151C71.7977 33.0729 71.3838 33.7255 70.726 33.8728C69.9438 34.0485 69.1872 34.2511 68.4733 34.483C68.3533 34.5185 68.2286 34.5358 68.1035 34.5342Z" fill="#2FA8CC"/>
<path d="M75.2728 33.1738C74.5988 33.2034 74.0284 32.6811 73.9988 32.0071C73.9691 31.3332 74.4914 30.7627 75.1654 30.7331C75.9611 30.6623 76.7929 30.6102 77.661 30.5769C77.9857 30.5596 78.3035 30.6748 78.5418 30.8961C78.7801 31.1173 78.9185 31.4258 78.9253 31.7509C78.9375 32.0744 78.8206 32.3895 78.6005 32.6268C78.3803 32.8641 78.0748 33.0043 77.7513 33.0163C76.9272 33.0464 76.1372 33.0957 75.3814 33.164C75.3448 33.1713 75.3082 33.1738 75.2728 33.1738V33.1738Z" fill="#2FA8CC"/>
<path d="M35.8473 69.5929C34.1907 69.5898 32.7427 68.4747 32.3164 66.8738C31.8902 65.273 32.5921 63.5855 34.0278 62.759L59.6549 48.1149C60.7927 47.3873 62.2387 47.3451 63.4169 48.0052C64.5952 48.6654 65.3143 49.9206 65.2878 51.2709C65.2613 52.6212 64.4935 53.8473 63.2903 54.4607L37.6632 69.1048C37.1113 69.4241 36.485 69.5925 35.8473 69.5929Z" fill="#95A5A5"/>
</g>
<defs>
<clipPath id="clip0">
<rect width="72" height="72" fill="white" transform="translate(9 22)"/>
</clipPath>
</defs>
</svg>
