<svg width="94" height="94" viewBox="0 0 94 94" fill="none" xmlns="http://www.w3.org/2000/svg">
<circle cx="45" cy="49" r="45" fill="#183E00"/>
<path d="M80.234 80.234C84.5984 75.8697 88.0604 70.6884 90.4223 64.9861C92.7843 59.2838 94 53.1721 94 47C94 40.8279 92.7843 34.7162 90.4223 29.0139C88.0604 23.3116 84.5984 18.1303 80.234 13.766L76.9117 17.0883C80.8397 21.0164 83.9556 25.6797 86.0815 30.8119C88.2073 35.9442 89.3015 41.4449 89.3015 47C89.3015 52.5551 88.2073 58.0558 86.0815 63.1881C83.9556 68.3203 80.8397 72.9836 76.9117 76.9117L80.234 80.234Z" fill="#3F9B03"/>
<path d="M46.862 43.6865V82.8272H41.8965V44.3445L46.862 43.6865Z" fill="#24AE5F"/>
<path d="M61.7589 93.9996H22.108C21.744 94.0012 21.3977 93.8429 21.1607 93.5667C20.9236 93.2905 20.8198 92.9241 20.8765 92.5646C21.2317 90.7016 22.7573 89.2862 24.6416 89.0714C24.5622 88.6497 24.5207 88.2218 24.5175 87.7927C24.5175 84.3648 27.2964 81.5859 30.7244 81.5859C30.7991 81.5838 30.8738 81.588 30.9478 81.5983C31.7492 78.1863 34.6633 75.6831 38.1571 75.4054C41.6509 75.1277 44.9238 77.1392 46.2541 80.3817C47.6591 78.7738 49.6926 77.8545 51.8278 77.8617C55.2281 77.8629 58.1959 80.1666 59.0403 83.4603C59.8846 83.04 60.8157 82.8232 61.7589 82.8272C64.7126 82.8278 67.2568 84.9099 67.8416 87.8052C67.8822 87.7949 67.924 87.7907 67.9658 87.7927C70.7958 87.792 73.2679 89.7056 73.9765 92.4454C74.0706 92.8184 73.9875 93.214 73.7513 93.5176C73.5151 93.8213 73.1521 93.9991 72.7674 93.9996H61.7589Z" fill="#A56A43"/>
<path d="M41.8967 66.1721C40.1265 65.0474 34.6967 51.8962 16.5254 61.466C16.0438 61.7277 15.7706 62.2566 15.8357 62.8007C15.9008 63.3449 16.2911 63.7944 16.8208 63.9351C16.945 63.9686 17.0604 63.9959 17.1535 64.017C18.5393 64.284 19.8638 64.8051 21.0601 65.5539C22.9123 66.7952 24.361 68.5443 26.2615 69.71C31.4803 72.9103 39.2376 72.4472 41.8967 66.1721Z" fill="#4FBA6F"/>
<path d="M46.8623 66.1721C48.6325 65.0474 54.0623 51.8962 72.2336 61.466C72.715 61.7285 72.9876 62.2582 72.9214 62.8025C72.8551 63.3468 72.4635 63.7957 71.9332 63.9351C71.8091 63.9686 71.6936 63.9959 71.6005 64.017C70.2147 64.284 68.8902 64.8051 67.6939 65.5539C65.8418 66.7952 64.3931 68.5443 62.4925 69.71C57.2787 72.9103 49.5213 72.4472 46.8623 66.1721V66.1721Z" fill="#4FBA6F"/>
<path d="M44.876 30.6674C45.6467 27.9277 46.9736 25.3762 48.7739 23.172C50.9587 20.9859 54.6456 22.0212 57.5517 24.9273C60.4578 27.8334 61.4931 31.519 59.307 33.7051C57.1018 35.5047 54.5501 36.8315 51.8103 37.603L44.876 30.6674Z" fill="#955BA5"/>
<path d="M43.8828 45.5203C43.1121 48.26 41.7852 50.8115 39.9849 53.0157C37.8 55.2018 34.1131 54.1665 31.2071 51.2604C28.301 48.3544 27.2657 44.6687 29.4518 42.4826C31.6567 40.6829 34.2086 39.3565 36.9484 38.5859L43.8828 45.5203Z" fill="#955BA5"/>
<path d="M51.8054 38.5859C54.5451 39.3571 57.0968 40.6835 59.3021 42.4826C61.4882 44.6687 60.4516 48.3556 57.5468 51.2604C54.642 54.1652 50.9539 55.2018 48.769 53.0157C46.9687 50.8115 45.6418 48.26 44.8711 45.5203L51.8054 38.5859Z" fill="#955BA5"/>
<path d="M36.9535 37.603C34.2138 36.8315 31.662 35.5047 29.4568 33.7051C27.2707 31.519 28.3073 27.8334 31.2121 24.9273C34.1169 22.0212 37.8001 20.9859 39.9899 23.172C41.7885 25.3766 43.1137 27.9281 43.8829 30.6674L36.9535 37.603Z" fill="#955BA5"/>
<path d="M49.6467 43.3601C48.3739 44.6418 46.6742 45.4106 44.8712 45.5201C44.5439 45.5462 44.2152 45.5462 43.888 45.5201C40.1617 45.2812 37.1926 42.3121 36.9536 38.5858C36.9276 38.2586 36.9276 37.9298 36.9536 37.6026C37.1917 33.8776 40.1582 30.9084 43.883 30.667C44.2102 30.6409 44.539 30.6409 44.8662 30.667C48.5929 30.906 51.5622 33.8758 51.8005 37.6026C51.8266 37.9298 51.8266 38.2586 51.8005 38.5858C51.6923 40.3875 50.9258 42.0866 49.6467 43.3601V43.3601Z" fill="#F0C419"/>
<path d="M41.8967 39.3796C41.2111 39.3796 40.6553 38.8238 40.6553 38.1382C40.6553 36.0814 42.3226 34.4141 44.3794 34.4141C45.065 34.4141 45.6208 34.9698 45.6208 35.6554C45.6208 36.341 45.065 36.8968 44.3794 36.8968C43.6938 36.8968 43.138 37.4526 43.138 38.1382C43.138 38.4674 43.0072 38.7832 42.7744 39.016C42.5416 39.2488 42.2259 39.3796 41.8967 39.3796Z" fill="#F3D55B"/>
<path d="M54.2283 85.931C53.6608 85.931 53.1656 85.5461 53.0254 84.9962C52.8859 84.449 52.3922 84.0668 51.8275 84.0689C51.4845 84.0594 51.1553 84.2038 50.93 84.4624C50.4785 84.9787 49.694 85.0312 49.1778 84.5797C48.6615 84.1283 48.609 83.3438 49.0604 82.8275C49.7565 82.0285 50.7679 81.5748 51.8275 81.5861C53.5248 81.5849 55.007 82.7348 55.4275 84.3793C55.5969 85.0432 55.1963 85.7189 54.5324 85.8888C54.4333 85.9158 54.3311 85.9299 54.2283 85.931Z" fill="#805333"/>
<path d="M35.7841 83.9686C35.6888 83.9689 35.5938 83.9581 35.501 83.9363C34.8343 83.7802 34.42 83.1137 34.575 82.4467C35.0078 80.6129 36.5753 79.2684 38.4536 79.12C40.3319 78.9716 42.0911 80.0531 42.8066 81.7962C42.9868 82.2091 42.9291 82.6873 42.6559 83.0455C42.3827 83.4038 41.9369 83.5859 41.491 83.5213C41.0451 83.4568 40.6692 83.1557 40.5088 82.7347C40.2013 81.9924 39.4508 81.5325 38.6498 81.5955C37.8488 81.6586 37.1795 82.2302 36.9919 83.0115C36.8601 83.5721 36.36 83.9684 35.7841 83.9686V83.9686Z" fill="#805333"/>
<path d="M31.9655 87.7933C32.6511 87.7933 33.2069 87.2375 33.2069 86.5519C33.2069 85.8663 32.6511 85.3105 31.9655 85.3105C31.2799 85.3105 30.7241 85.8663 30.7241 86.5519C30.7241 87.2375 31.2799 87.7933 31.9655 87.7933Z" fill="#805333"/>
<path d="M45.6208 86.5521C46.3064 86.5521 46.8621 85.9963 46.8621 85.3107C46.8621 84.6251 46.3064 84.0693 45.6208 84.0693C44.9352 84.0693 44.3794 84.6251 44.3794 85.3107C44.3794 85.9963 44.9352 86.5521 45.6208 86.5521Z" fill="#805333"/>
<path d="M40.655 90.2767C41.3406 90.2767 41.8963 89.7209 41.8963 89.0353C41.8963 88.3497 41.3406 87.7939 40.655 87.7939C39.9694 87.7939 39.4136 88.3497 39.4136 89.0353C39.4136 89.7209 39.9694 90.2767 40.655 90.2767Z" fill="#805333"/>
<path d="M61.7585 89.0345C62.4441 89.0345 62.9998 88.4787 62.9998 87.7931C62.9998 87.1075 62.4441 86.5518 61.7585 86.5518C61.0729 86.5518 60.5171 87.1075 60.5171 87.7931C60.5171 88.4787 61.0729 89.0345 61.7585 89.0345Z" fill="#805333"/>
</svg>
