<svg width="94" height="94" viewBox="0 0 94 94" fill="none" xmlns="http://www.w3.org/2000/svg">
<circle cx="45" cy="49" r="45" fill="#183E00"/>
<path d="M80.234 13.766C75.8697 9.40162 70.6884 5.93963 64.9861 3.57766C59.2838 1.21569 53.1721 -1.39795e-06 47 0C40.8279 1.39795e-06 34.7162 1.21569 29.0139 3.57767C23.3116 5.93964 18.1303 9.40164 13.766 13.766L17.0883 17.0883C21.0164 13.1603 25.6797 10.0444 30.8119 7.91854C35.9442 5.79269 41.4449 4.69853 47 4.69852C52.5551 4.69852 58.0558 5.79268 63.1881 7.91853C68.3203 10.0444 72.9836 13.1603 76.9117 17.0883L80.234 13.766Z" fill="#3F9B03"/>
<g clip-path="url(#clip0)">
<path d="M63.6208 85.3112V46.8285C63.6167 45.459 62.5075 44.3498 61.138 44.3457H28.8622C27.4927 44.3498 26.3835 45.459 26.3794 46.8285V85.3112H63.6208Z" fill="#95A5A5"/>
<path d="M81 64.207V92.7588C81 93.4444 80.4442 94.0001 79.7586 94.0001H10.2414C9.55578 94.0001 9 93.4444 9 92.7588V64.207H35.4041C36.4322 67.8414 36.942 71.6026 36.9186 75.3794C36.931 75.7767 36.931 76.1988 36.931 76.6208C36.9403 78.7033 37.8146 80.6882 39.3448 82.1007C40.875 83.5133 42.9235 84.2262 45 84.0691C47.0765 84.2262 49.125 83.5133 50.6552 82.1007C52.1854 80.6882 53.0597 78.7033 53.069 76.6208C53.069 76.1988 53.069 75.7767 53.0814 75.3794C53.058 71.6026 53.5678 67.8414 54.5959 64.207H81Z" fill="#A56A43"/>
<path d="M54.5957 64.2061C56.135 59.3275 58.4688 57.6392 59.8964 57.0682C60.2882 56.8909 60.7087 56.7858 61.1378 56.7578H79.7585C80.4441 56.7578 80.9998 57.3136 80.9998 57.9992V64.2061H54.5957Z" fill="#71C285"/>
<path d="M9 64.2061V57.9992C9 57.3136 9.55578 56.7578 10.2414 56.7578H28.8621C29.2912 56.7858 29.7117 56.8909 30.1034 57.0682C31.531 57.6392 33.8648 59.3275 35.4041 64.2061H9Z" fill="#71C285"/>
<path d="M45.0002 79.1041C44.3146 79.1041 43.7588 78.5483 43.7588 77.8627V69.173C43.7588 68.4874 44.3146 67.9316 45.0002 67.9316C45.6858 67.9316 46.2415 68.4874 46.2415 69.173V77.8627C46.2415 78.5483 45.6858 79.1041 45.0002 79.1041Z" fill="#547580"/>
<path d="M16.4479 71.6546C17.1335 71.6546 17.6893 71.0988 17.6893 70.4132C17.6893 69.7277 17.1335 69.1719 16.4479 69.1719C15.7623 69.1719 15.2065 69.7277 15.2065 70.4132C15.2065 71.0988 15.7623 71.6546 16.4479 71.6546Z" fill="#805333"/>
<path d="M15.2067 76.6195C15.8923 76.6195 16.4481 76.0637 16.4481 75.3781C16.4481 74.6925 15.8923 74.1367 15.2067 74.1367C14.5211 74.1367 13.9653 74.6925 13.9653 75.3781C13.9653 76.0637 14.5211 76.6195 15.2067 76.6195Z" fill="#805333"/>
<path d="M76.0343 89.0335C76.7199 89.0335 77.2757 88.4777 77.2757 87.7922C77.2757 87.1066 76.7199 86.5508 76.0343 86.5508C75.3487 86.5508 74.793 87.1066 74.793 87.7922C74.793 88.4777 75.3487 89.0335 76.0343 89.0335Z" fill="#805333"/>
<path d="M72.3102 85.3089C72.9958 85.3089 73.5516 84.7531 73.5516 84.0675C73.5516 83.382 72.9958 82.8262 72.3102 82.8262C71.6246 82.8262 71.0688 83.382 71.0688 84.0675C71.0688 84.7531 71.6246 85.3089 72.3102 85.3089Z" fill="#805333"/>
<path d="M69.8273 89.0335C70.5129 89.0335 71.0687 88.4777 71.0687 87.7922C71.0687 87.1066 70.5129 86.5508 69.8273 86.5508C69.1417 86.5508 68.5859 87.1066 68.5859 87.7922C68.5859 88.4777 69.1417 89.0335 69.8273 89.0335Z" fill="#805333"/>
<path d="M20.172 74.137C20.8576 74.137 21.4134 73.5813 21.4134 72.8957C21.4134 72.2101 20.8576 71.6543 20.172 71.6543C19.4864 71.6543 18.9307 72.2101 18.9307 72.8957C18.9307 73.5813 19.4864 74.137 20.172 74.137Z" fill="#805333"/>
<path d="M25.1379 87.7933C25.8235 87.7933 26.3792 87.2375 26.3792 86.5519C26.3792 85.8663 25.8235 85.3105 25.1379 85.3105C24.4523 85.3105 23.8965 85.8663 23.8965 86.5519C23.8965 87.2375 24.4523 87.7933 25.1379 87.7933Z" fill="#805333"/>
<path d="M62.3791 71.6546C63.0647 71.6546 63.6204 71.0988 63.6204 70.4132C63.6204 69.7277 63.0647 69.1719 62.3791 69.1719C61.6935 69.1719 61.1377 69.7277 61.1377 70.4132C61.1377 71.0988 61.6935 71.6546 62.3791 71.6546Z" fill="#805333"/>
<path d="M18.31 86.5506C20.024 86.5506 21.4134 85.1612 21.4134 83.4472C21.4134 81.7332 20.024 80.3438 18.31 80.3438C16.596 80.3438 15.2065 81.7332 15.2065 83.4472C15.2065 85.1612 16.596 86.5506 18.31 86.5506Z" fill="#805333"/>
<path d="M69.8277 77.8623C71.8844 77.8623 73.5518 76.195 73.5518 74.1382C73.5518 72.0814 71.8844 70.4141 69.8277 70.4141C67.7709 70.4141 66.1035 72.0814 66.1035 74.1382C66.1035 76.195 67.7709 77.8623 69.8277 77.8623Z" fill="#805333"/>
<path d="M15.3433 56.7588L15.3433 54.0774C15.3521 51.6704 14.1542 49.4191 12.1529 48.0815C11.952 47.9038 11.6597 47.8753 11.4282 48.0108C11.1967 48.1463 11.0784 48.4152 11.135 48.6774C11.9047 52.1533 10.2412 56.7588 10.2412 56.7588H15.3433Z" fill="#24AE5F"/>
<path d="M15.043 56.7589C15.043 56.7589 16.437 46.69 15.1932 40.9822C15.1391 40.706 15.2776 40.428 15.5306 40.3048C15.7837 40.1817 16.0879 40.2441 16.2719 40.4571C18.1526 42.6729 21.4137 47.9687 21.4137 56.7589H15.043Z" fill="#4FBA6F"/>
<path d="M79.7587 56.758C79.7587 56.758 78.0952 50.9111 78.8649 47.4352C78.9215 47.173 78.8032 46.9041 78.5717 46.7686C78.3402 46.6331 78.0479 46.6616 77.847 46.8394C76.1463 48.329 74.0161 51.3567 74.8466 56.758H79.7587Z" fill="#24AE5F"/>
<path d="M74.9572 56.7591C74.9572 56.7591 74.1838 41.1041 75.4277 35.3962C75.4817 35.1201 75.3432 34.8421 75.0902 34.7189C74.8372 34.5957 74.5329 34.6582 74.3489 34.8711C72.4682 37.087 68.5864 47.9689 68.5864 56.7591H74.9572Z" fill="#4FBA6F"/>
<path d="M48.6499 57.6387L47.694 69.1835C47.5607 70.575 46.3981 71.6412 45.0002 71.6539C43.5988 71.6504 42.4309 70.5794 42.3064 69.1835L41.3506 57.6387H48.6499Z" fill="#7F8C8D"/>
<path d="M42.5173 22H47.4828C48.1684 22 48.7242 22.5558 48.7242 23.2414V39.3793H41.2759V23.2414C41.2759 22.5558 41.8317 22 42.5173 22Z" fill="#A56A43"/>
<path d="M41.276 39.3789H48.7243C49.4099 39.3789 49.9657 39.9347 49.9657 40.6203V54.2754C49.9657 57.0178 47.7426 59.241 45.0002 59.241C42.2578 59.241 40.0347 57.0178 40.0347 54.2754V40.6203C40.0347 39.9347 40.5905 39.3789 41.276 39.3789Z" fill="#547580"/>
<path d="M45.0002 47.4476C45.6858 47.4476 46.2415 46.8918 46.2415 46.2062C46.2415 45.5206 45.6858 44.9648 45.0002 44.9648C44.3146 44.9648 43.7588 45.5206 43.7588 46.2062C43.7588 46.8918 44.3146 47.4476 45.0002 47.4476Z" fill="#35495E"/>
<path d="M45.0002 53.6546C45.6858 53.6546 46.2415 53.0989 46.2415 52.4133C46.2415 51.7277 45.6858 51.1719 45.0002 51.1719C44.3146 51.1719 43.7588 51.7277 43.7588 52.4133C43.7588 53.0989 44.3146 53.6546 45.0002 53.6546Z" fill="#35495E"/>
</g>
<defs>
<clipPath id="clip0">
<rect width="72" height="72" fill="white" transform="translate(9 22)"/>
</clipPath>
</defs>
</svg>
