<svg width="94" height="94" viewBox="0 0 94 94" fill="none" xmlns="http://www.w3.org/2000/svg">
<circle cx="45" cy="49" r="45" fill="#183E00"/>
<path d="M94 47C94 40.8279 92.7843 34.7162 90.4223 29.0139C88.0604 23.3116 84.5984 18.1303 80.234 13.766C75.8697 9.40162 70.6884 5.93963 64.9861 3.57766C59.2838 1.21569 53.1721 -1.00557e-06 47 0L47 4.69852C52.5551 4.69852 58.0558 5.79268 63.1881 7.91853C68.3203 10.0444 72.9836 13.1603 76.9117 17.0883C80.8397 21.0164 83.9556 25.6797 86.0815 30.8119C88.2073 35.9442 89.3015 41.4449 89.3015 47H94Z" fill="#3F9B03"/>
<g clip-path="url(#clip0)">
<path d="M69.7966 60.441C68.6362 58.5335 68.1067 56.3087 68.2834 54.083H63.9878C64.1645 56.3087 63.635 58.5335 62.4746 60.441H69.7966Z" fill="#A56A43"/>
<path d="M23.4236 76.3062C22.2579 74.4224 21.6761 72.2355 21.7517 70.0215H17.7734C17.849 72.2355 17.2673 74.4224 16.1016 76.3062H23.4236Z" fill="#A56A43"/>
<path d="M46.6222 48.25C41.3015 50.6907 34.4066 54.73 34.4066 59.2208C34.4066 66.5429 55.1523 70.2039 49.0506 73.8649C43.2272 77.3587 25.1784 78.6303 16.1173 91.4671C15.8537 91.8411 15.8216 92.3312 16.034 92.7365C16.2464 93.1419 16.6678 93.3943 17.1253 93.3903H45.6813C46.2778 93.3876 46.8528 93.1672 47.2982 92.7704C51.1758 89.5801 55.458 86.9162 60.0337 84.848C88.1015 71.4242 61.254 64.1022 51.4913 60.4412C44.0838 57.6588 49.3191 51.3741 52.2723 48.5063" fill="#F3D55B"/>
<path d="M38.5922 48.5068C38.2406 47.6471 38.0623 46.7264 38.0675 45.7976C38.0675 41.7538 41.3457 38.4756 45.3895 38.4756C49.4334 38.4756 52.7116 41.7538 52.7116 45.7976C52.7144 46.7262 52.5362 47.6464 52.1868 48.5068H38.5922Z" fill="#F0C419"/>
<path d="M80.7798 55.1816C80.735 55.1816 80.6902 55.1792 80.6456 55.1743C76.4987 54.6514 72.3956 53.8263 68.369 52.7056C67.7162 52.5371 67.3237 51.8713 67.4922 51.2186C67.6607 50.5658 68.3264 50.1733 68.9791 50.3418C72.8934 51.4333 76.8818 52.2392 80.9128 52.7532C81.5411 52.8408 81.9976 53.3951 81.9629 54.0286C81.9282 54.662 81.4139 55.1632 80.7798 55.1816V55.1816Z" fill="#A56A43"/>
<path d="M28.454 51.2879C27.8376 51.286 27.3193 50.8247 27.246 50.2126C27.1728 49.6006 27.5674 49.03 28.166 48.8826C33.8134 47.5824 39.595 46.9561 45.3898 47.0167C45.817 47.0167 46.2441 47.0167 46.659 47.0289C48.6115 47.0533 50.5421 47.1412 52.3714 47.2901C55.4982 47.5384 58.6058 47.9868 61.6753 48.6324C62.1113 48.7106 62.4708 49.0189 62.6144 49.438C62.758 49.857 62.6633 50.321 62.3669 50.6502C62.0704 50.9794 61.6189 51.1221 61.1871 51.0231C58.2163 50.3967 55.2086 49.9605 52.1823 49.7173C50.4054 49.5733 48.5322 49.4879 46.6126 49.4647C46.2014 49.4525 45.7987 49.4647 45.3923 49.4525C39.7918 49.3934 34.204 49.9976 28.7457 51.2525C28.6503 51.2764 28.5523 51.2882 28.454 51.2879V51.2879Z" fill="#A56A43"/>
<path d="M42.9493 89.7288C43.6233 89.7288 44.1697 89.1824 44.1697 88.5084C44.1697 87.8345 43.6233 87.2881 42.9493 87.2881C42.2754 87.2881 41.729 87.8345 41.729 88.5084C41.729 89.1824 42.2754 89.7288 42.9493 89.7288Z" fill="#F0C419"/>
<path d="M42.9493 82.4075C43.6233 82.4075 44.1697 81.8611 44.1697 81.1871C44.1697 80.5132 43.6233 79.9668 42.9493 79.9668C42.2754 79.9668 41.729 80.5132 41.729 81.1871C41.729 81.8611 42.2754 82.4075 42.9493 82.4075Z" fill="#F0C419"/>
<path d="M66.1359 72.6448C66.8098 72.6448 67.3562 72.0984 67.3562 71.4244C67.3562 70.7505 66.8098 70.2041 66.1359 70.2041C65.4619 70.2041 64.9155 70.7505 64.9155 71.4244C64.9155 72.0984 65.4619 72.6448 66.1359 72.6448Z" fill="#F0C419"/>
<path d="M60.0338 70.2034C60.7078 70.2034 61.2542 69.657 61.2542 68.983C61.2542 68.3091 60.7078 67.7627 60.0338 67.7627C59.3598 67.7627 58.8135 68.3091 58.8135 68.983C58.8135 69.657 59.3598 70.2034 60.0338 70.2034Z" fill="#F0C419"/>
<path d="M39.2882 60.4407C39.9622 60.4407 40.5086 59.8943 40.5086 59.2203C40.5086 58.5464 39.9622 58 39.2882 58C38.6142 58 38.0679 58.5464 38.0679 59.2203C38.0679 59.8943 38.6142 60.4407 39.2882 60.4407Z" fill="#F0C419"/>
<path d="M61.2545 73.8645C61.9285 73.8645 62.4749 73.3181 62.4749 72.6442C62.4749 71.9702 61.9285 71.4238 61.2545 71.4238C60.5805 71.4238 60.0342 71.9702 60.0342 72.6442C60.0342 73.3181 60.5805 73.8645 61.2545 73.8645Z" fill="#F0C419"/>
<path d="M45.3898 34.8149C44.7158 34.8149 44.1694 34.2686 44.1694 33.5946V31.1539C44.1694 30.48 44.7158 29.9336 45.3898 29.9336C46.0637 29.9336 46.6101 30.48 46.6101 31.1539V33.5946C46.6101 34.2686 46.0637 34.8149 45.3898 34.8149Z" fill="#F29C1F"/>
<path d="M39.2882 36.4498C38.8517 36.4503 38.4483 36.2176 38.2301 35.8397L37.0098 33.726C36.6782 33.1429 36.8795 32.4015 37.4605 32.066C38.0414 31.7306 38.7841 31.927 39.1234 32.5057L40.3437 34.6193C40.5616 34.9967 40.5617 35.4616 40.3441 35.8391C40.1264 36.2166 39.7239 36.4494 39.2882 36.4498V36.4498Z" fill="#F29C1F"/>
<path d="M51.4916 36.45C51.0558 36.4495 50.6533 36.2168 50.4356 35.8393C50.218 35.4618 50.2181 34.9969 50.436 34.6195L51.6563 32.5059C51.8727 32.1252 52.2766 31.8896 52.7145 31.8887C53.1524 31.8877 53.5572 32.1215 53.7754 32.5012C53.9935 32.8809 53.9914 33.3484 53.7699 33.7262L52.5496 35.8398C52.3314 36.2178 51.928 36.4504 51.4916 36.45Z" fill="#F29C1F"/>
<path d="M74.678 44.5768C74.678 50.9799 70.8535 54.3395 66.1356 54.3395C61.4178 54.3395 57.5933 50.9799 57.5933 44.5768C57.5933 40.2909 61.4202 29.0443 63.9512 23.9653C64.3641 23.1369 65.21 22.6133 66.1356 22.6133C67.0612 22.6133 67.9072 23.1369 68.32 23.9653C70.851 29.0443 74.678 40.2909 74.678 44.5768Z" fill="#4FBA6F"/>
<path d="M28.7201 53.3632H28.7323C31.3927 51.9354 33.1865 48.97 33.1865 44.5768C33.1865 40.2934 29.3547 29.0419 26.8286 23.9653C26.4157 23.1369 25.5698 22.6133 24.6442 22.6133C23.7186 22.6133 22.8726 23.1369 22.4598 23.9653C20.9451 27.1788 19.6446 30.4891 18.5669 33.8744L28.7201 53.3632Z" fill="#24AE5F"/>
<path d="M29.5254 58.9387C29.5254 66.3266 25.1542 70.2037 19.7627 70.2037C14.3713 70.2037 10 66.3266 10 58.9387C10 53.9939 14.3737 41.018 17.2671 35.1567C17.731 34.2008 18.7001 33.5938 19.7627 33.5938C20.8253 33.5938 21.7945 34.2008 22.2583 35.1567C25.1517 41.018 29.5254 53.9939 29.5254 58.9387Z" fill="#4FBA6F"/>
<path d="M66.1358 50.6785C63.0336 50.6785 61.2544 48.455 61.2544 44.5768C61.2544 43.9028 61.8008 43.3564 62.4747 43.3564C63.1487 43.3564 63.6951 43.9028 63.6951 44.5768C63.6951 48.2378 65.4682 48.2378 66.1358 48.2378C66.8097 48.2378 67.3561 48.7842 67.3561 49.4581C67.3561 50.1321 66.8097 50.6785 66.1358 50.6785Z" fill="#7ED09E"/>
<path d="M19.7628 66.543C15.9419 66.543 13.6611 63.7009 13.6611 58.9391C13.6611 58.2651 14.2075 57.7188 14.8815 57.7188C15.5554 57.7188 16.1018 58.2651 16.1018 58.9391C16.1018 62.3658 17.3331 64.1024 19.7628 64.1024C20.4368 64.1024 20.9832 64.6487 20.9832 65.3227C20.9832 65.9967 20.4368 66.543 19.7628 66.543Z" fill="#7ED09E"/>
</g>
<defs>
<clipPath id="clip0">
<rect width="72" height="72" fill="white" transform="translate(10 22)"/>
</clipPath>
</defs>
</svg>
