<svg width="234" height="157" viewBox="0 0 234 157" fill="none" xmlns="http://www.w3.org/2000/svg">
<g clip-path="url(#clip0)">
<ellipse cx="117" cy="50.9836" rx="50.8345" ry="50.9845" fill="black" fill-opacity="0.25"/>
<path d="M99.9185 2.78844C92.4886 5.24448 85.7551 9.45855 80.2855 15.0756C74.8159 20.6926 70.7704 27.5481 68.4898 35.0643C60.5782 61.0034 72.6042 85.3385 92.8589 96.3142C92.9963 96.3851 93.1544 96.4044 93.3047 96.3686C93.4551 96.3328 93.5877 96.2442 93.6788 96.1189C93.7699 95.9935 93.8134 95.8396 93.8016 95.6849C93.7897 95.5301 93.7233 95.3847 93.6142 95.2749C91.6139 93.3347 90.0964 91.8103 88.7859 90.3413C87.491 88.9033 86.2697 87.4 85.1267 85.8374C84.7266 85.2969 84.3128 84.7669 83.8851 84.2472C80.8709 80.5713 79.1086 78.4371 77.7222 77.4982C77.5028 77.3461 77.3292 77.1365 77.2204 76.8921C77.1115 76.6477 77.0716 76.378 77.1048 76.1124C77.2807 74.6607 78.1981 72.6028 81.4606 73.8015C82.9781 74.3766 84.5301 75.3952 88.2754 79.4938C91.8104 83.2355 96.4215 89.0456 104.312 90.2755C105.35 90.4273 106.399 90.4875 107.447 90.4557C109.223 90.4106 110.465 90.3101 111.386 90.2027C111.5 90.1908 111.609 90.1484 111.701 90.0799C111.793 90.0113 111.866 89.9192 111.91 89.813C111.955 89.7068 111.971 89.5906 111.955 89.4763C111.94 89.362 111.895 89.254 111.824 89.1634C104.381 79.1543 102.571 73.5382 102.091 68.2374C101.904 66.0784 101.986 63.9042 102.336 61.7656C102.998 57.6844 104.571 50.2598 107.892 44.5017C107.974 44.2694 108.124 44.0674 108.322 43.9221C108.52 43.7768 108.757 43.6951 109.003 43.6876C109.149 43.6831 109.295 43.712 109.428 43.772C109.562 43.832 109.681 43.9216 109.775 44.034C109.886 44.1716 109.952 44.3393 109.966 44.5154C109.98 44.6916 109.941 44.8679 109.854 45.0214C107.354 50.3361 98.0562 67.8702 118.349 85.5013C118.685 85.79 119.113 85.9486 119.556 85.9486C119.998 85.9486 120.426 85.79 120.763 85.5013C122.374 84.1155 122.601 83.7691 122.453 82.1372C122.425 81.8358 122.384 81.5413 122.336 81.2434C121.615 76.982 121.404 76.0084 119.232 74.3558C119.032 74.2034 118.835 74.044 118.645 73.8812C115.859 71.456 112.976 69.3496 113.71 66.2592C113.864 65.6616 114.135 65.1009 114.508 64.6101C114.88 64.1192 115.347 63.7081 115.88 63.4009C116.676 62.9263 117.504 62.8223 118.383 63.7924C119.47 64.9877 122.311 68.7848 127.243 71.657C129.315 72.849 131.553 73.7236 133.882 74.2519C139.531 75.5684 143.701 76.6217 150.391 83.6062L153.088 86.3779C153.149 86.4405 153.221 86.4903 153.301 86.5244C153.381 86.5584 153.467 86.5759 153.554 86.5759C153.641 86.5759 153.727 86.5584 153.807 86.5244C153.887 86.4903 153.959 86.4405 154.02 86.3779C162.983 76.88 167.972 64.2863 167.956 51.1987C167.956 17.3638 135.3 -8.80398 99.9185 2.78844ZM122.039 13.0435C125.243 13.6949 130.561 14.6615 135.424 22.3112C135.745 22.8063 135.999 23.3423 136.179 23.9049C136.683 25.5506 136.555 27.4804 134.71 28.7241C132.865 29.9679 129.823 30.1411 124.988 29.5937C123.336 29.4067 122.48 27.7887 123.263 25.9698C123.839 24.6152 125.902 22.2662 128.981 20.773C128.702 20.773 128.44 20.773 128.185 20.773C126.674 20.773 125.26 21.1194 120.597 25.2769C120.523 25.3455 120.435 25.3981 120.339 25.4314C120.243 25.4647 120.142 25.478 120.041 25.4705C119.94 25.4631 119.841 25.435 119.751 25.388C119.661 25.341 119.582 25.2761 119.518 25.1972C118.501 23.943 116.552 20.6309 116.5 17.6271C116.492 16.9355 116.639 16.2508 116.929 15.6235C117.219 14.9962 117.645 14.4423 118.177 14.0025C118.708 13.5627 119.331 13.2482 119.999 13.0823C120.668 12.9163 121.365 12.9031 122.039 13.0435V13.0435ZM122.236 33.1934C121.504 34.8252 120.077 35.8819 117.004 33.1068C114.779 31.1459 113.327 30.0441 112.603 29.3755C112.44 29.2229 112.316 29.0329 112.242 28.8216C112.167 28.6104 112.145 28.3842 112.177 28.1624C112.209 27.9407 112.294 27.73 112.425 27.5485C112.555 27.3669 112.728 27.2199 112.927 27.12C114.476 26.3371 117.383 25.3497 120.187 27.0438C122.246 28.2876 123.225 30.9969 122.236 33.1934ZM89.179 16.515C89.5825 16.1374 90.0826 15.7043 90.6689 15.2505C96.8767 10.4694 105.709 10.7119 111.51 15.9676C113.648 17.9008 115.304 20.5339 115.362 24.0678C115.363 24.2129 115.32 24.3549 115.239 24.4751C115.158 24.5954 115.043 24.6885 114.908 24.7422C114.774 24.796 114.627 24.808 114.486 24.7767C114.345 24.7454 114.216 24.6722 114.117 24.5667C112.296 22.6265 108.044 18.9922 104.699 19.498C108.703 21.8435 110.679 23.5204 110.682 25.2977C110.682 26.5241 110.096 27.4838 108.016 27.1582C104.874 26.6627 93.8556 25.5021 89.3928 21.9093C88.9942 21.59 88.6687 21.1883 88.4384 20.7313C88.2081 20.2744 88.0784 19.7731 88.0581 19.2613C88.0378 18.7495 88.1274 18.2394 88.3208 17.7655C88.5143 17.2917 88.8069 16.8652 89.179 16.515V16.515ZM103.147 89.347C101.474 89.0421 96.0559 87.5558 91.7173 81.725L90.2619 79.8922C87.0649 76.0812 84.399 72.9631 81.7021 72.3568C81.6536 72.3479 81.6099 72.3222 81.5784 72.2842C81.5469 72.2462 81.5296 72.1984 81.5296 72.1489C81.5279 72.1351 81.5279 72.1212 81.5296 72.1073C81.6762 71.2459 82.0917 70.4536 82.716 69.845C83.554 69.0551 84.9094 68.4938 86.8545 69.7896L86.9097 69.8311L87.9961 70.77C88.0091 70.7785 88.0208 70.7891 88.0306 70.8012C89.4998 72.3222 91.0207 74.051 93.6797 79.2062C93.8625 79.5284 94.0453 79.8541 94.2246 80.1798C96.7043 84.2818 97.7389 86.7174 103.191 89.2257C103.202 89.235 103.209 89.2472 103.213 89.2608C103.216 89.2744 103.215 89.2887 103.21 89.3018C103.206 89.315 103.197 89.3263 103.186 89.3344C103.174 89.3424 103.161 89.3468 103.147 89.347ZM105.009 89.0698C105.03 89.0822 105.046 89.1023 105.053 89.1259C105.06 89.1496 105.058 89.1751 105.047 89.1973C105.036 89.2194 105.017 89.2364 104.994 89.245C104.971 89.2535 104.945 89.2528 104.923 89.2431C102.102 88.221 98.0872 86.6897 94.4798 78.3124C94.2729 77.8343 94.0418 77.3631 93.79 76.8988C92.1484 73.7392 91.4725 72.3949 89.4515 70.6938C89.3624 70.6136 89.3015 70.5066 89.2778 70.3887C89.2542 70.2709 89.269 70.1486 89.3202 70.0399C89.3714 69.9313 89.4561 69.8421 89.5618 69.7858C89.6675 69.7294 89.7885 69.7089 89.9067 69.7272C91.3414 69.7861 94.297 69.987 96.1697 75.0869C99.0115 82.1269 98.9529 84.7426 105.009 89.0698V89.0698ZM109.42 41.3906C102.747 45.0838 94.1729 41.9553 91.5794 34.7594C91.1103 31.9566 90.8275 28.8696 94.5695 27.269C95.8361 26.7414 97.2114 26.5309 98.577 26.6558C104.399 27.1235 109.144 28.6895 112.672 31.1597C112.816 31.2714 112.919 31.4268 112.968 31.6025C113.016 31.7783 113.007 31.9651 112.941 32.135C112.875 32.3049 112.756 32.4489 112.602 32.5453C112.448 32.6418 112.267 32.6856 112.086 32.6703C109.189 32.2649 104.971 32.0674 102.288 33.7789C102.633 33.7166 110.965 32.1887 114.948 33.9175C115.163 34.0038 115.354 34.1393 115.507 34.3133C115.659 34.4872 115.769 34.6948 115.828 34.9192C115.886 35.1436 115.891 35.3786 115.843 35.6054C115.794 35.8322 115.693 36.0444 115.548 36.2249C114.5 37.7008 112.248 39.8419 109.42 41.3906V41.3906ZM122.732 54.1159C119.266 53.8838 112.558 54.7568 112.793 46.1232C113.172 41.6747 113.924 39.1282 116.383 36.7688C116.63 36.5357 116.946 36.3915 117.284 36.3589C117.621 36.3263 117.959 36.4071 118.245 36.5887C119.742 37.5345 122.694 40.1503 123.515 42.766C123.739 42.766 124.705 41.6643 121.715 36.994C121.418 36.5714 121.67 36.4778 121.918 36.4155C122.918 36.1764 126.467 37.3509 131.603 43.5455C139.566 53.7001 123.75 54.1852 122.732 54.1159V54.1159ZM145.808 43.3307C145.618 45.1635 146.029 46.6324 142.98 46.6324C139.297 46.6324 122.839 37.5449 125.302 33.6403C125.335 33.5769 125.381 33.5209 125.437 33.4756C125.493 33.4304 125.557 33.3969 125.626 33.377C126.781 33.0306 132.389 33.1692 136.376 38.1858C137.048 37.7285 137.441 34.2744 127.012 31.9219C126.873 31.8927 126.749 31.8156 126.661 31.704C126.573 31.5925 126.527 31.4534 126.53 31.311C126.533 31.1686 126.586 31.0319 126.679 30.9245C126.772 30.8172 126.9 30.7459 127.04 30.7232C144.701 27.8719 146.494 36.6337 145.808 43.3307V43.3307Z" fill="#2F7005"/>
<path d="M16.9716 135.045C16.8419 135.051 16.7124 135.03 16.5909 134.984C16.4693 134.938 16.3583 134.868 16.2646 134.778C16.1786 134.693 16.1107 134.592 16.065 134.48C16.0194 134.368 15.9969 134.248 15.999 134.127V117.698C15.999 117.306 15.9508 117.098 15.8507 117.077C15.7507 117.057 15.6059 117.168 15.4679 117.344C14.3666 118.686 13.1986 120.146 11.964 121.723L9.63604 124.568C9.44516 124.737 9.20052 124.831 8.94628 124.835C8.69057 124.839 8.44314 124.743 8.25653 124.568C8.21514 124.505 7.97718 124.221 7.53228 123.664L5.91135 121.665L4.01107 119.312C3.38339 118.533 2.86263 117.899 2.45222 117.403C2.29358 117.226 2.17632 117.136 2.10734 117.136C1.96939 117.136 1.90042 117.323 1.90042 117.698V134.127C1.9042 134.245 1.88383 134.364 1.84055 134.475C1.79726 134.586 1.73197 134.686 1.64866 134.771C1.55851 134.861 1.4506 134.932 1.33182 134.977C1.21304 135.023 1.08602 135.044 0.958899 135.038C0.832076 135.041 0.705804 135.02 0.587403 134.974C0.469001 134.928 0.360824 134.859 0.269143 134.771C0.183363 134.687 0.115312 134.587 0.0690826 134.476C0.0228532 134.366 -0.000598803 134.247 0.000137364 134.127V114.354C-0.00198334 114.233 0.0204712 114.113 0.0661296 114.001C0.111788 113.889 0.179692 113.788 0.265694 113.703C0.350048 113.617 0.451048 113.548 0.562526 113.502C0.674003 113.457 0.793618 113.434 0.914065 113.436C1.06941 113.43 1.22438 113.456 1.3693 113.512C1.44739 113.54 1.51817 113.585 1.57623 113.644C1.60727 113.686 1.62451 113.703 1.63486 113.703C1.64521 113.703 1.97974 114.094 2.62121 114.874C3.26269 115.654 4.01797 116.554 4.86292 117.58L7.14602 120.351C7.83578 121.183 8.22894 121.675 8.36689 121.834C8.6221 122.181 8.80833 122.337 8.92904 122.337C9.04975 122.337 9.3291 122.118 9.66363 121.685C9.93953 121.371 11.0983 119.97 13.14 117.483L16.2922 113.672C16.4997 113.522 16.7473 113.439 17.0026 113.433C17.1225 113.431 17.2416 113.454 17.3524 113.499C17.4633 113.545 17.5637 113.613 17.6476 113.699C17.7342 113.784 17.8026 113.885 17.8483 113.997C17.894 114.109 17.9161 114.23 17.9131 114.351V134.123C17.9161 134.244 17.894 134.365 17.8483 134.477C17.8026 134.589 17.7342 134.69 17.6476 134.774C17.5593 134.864 17.4538 134.934 17.3375 134.98C17.2212 135.026 17.0967 135.048 16.9716 135.045V135.045Z" fill="#4B901D"/>
<path d="M29.0214 135.429C28.0381 135.445 27.0618 135.261 26.1506 134.89C25.2393 134.518 24.4118 133.967 23.7171 133.267C23.0044 132.592 22.4399 131.775 22.0599 130.868C21.6798 129.962 21.4924 128.985 21.5099 128.001C21.5081 127.017 21.6998 126.042 22.0741 125.132C22.4484 124.222 22.9979 123.395 23.691 122.699C24.3841 122.003 25.2072 121.452 26.113 121.076C27.0189 120.701 27.9897 120.508 28.9696 120.511C29.9765 120.508 30.9736 120.71 31.9011 121.103C32.7906 121.465 33.5756 122.045 34.1842 122.79C34.2064 122.826 34.2368 122.855 34.2729 122.875C34.309 122.896 34.3496 122.907 34.3911 122.908C34.4342 122.907 34.4757 122.891 34.5084 122.863C34.5498 122.835 34.567 122.7 34.567 122.465V121.772C34.5652 121.651 34.5877 121.532 34.6334 121.42C34.6791 121.309 34.7468 121.208 34.8326 121.124C35.0169 120.952 35.2589 120.857 35.5103 120.857C35.7616 120.857 36.0036 120.952 36.1879 121.124C36.2737 121.208 36.3414 121.309 36.3871 121.42C36.4328 121.532 36.4553 121.651 36.4535 121.772V134.147C36.4554 134.268 36.4329 134.388 36.3872 134.5C36.3416 134.612 36.2738 134.714 36.1879 134.799C36.0025 134.968 35.7609 135.062 35.5103 135.062C35.2596 135.062 35.018 134.968 34.8326 134.799C34.7467 134.714 34.6789 134.612 34.6333 134.5C34.5876 134.388 34.5651 134.268 34.567 134.147V133.257C34.567 133.08 34.5187 132.99 34.4222 132.99C34.3981 132.987 34.3738 132.992 34.3523 133.003C34.3307 133.014 34.313 133.031 34.3015 133.052C33.6491 133.814 32.8378 134.422 31.9253 134.832C31.0127 135.243 30.0212 135.447 29.0214 135.429V135.429ZM29.0214 133.652C29.7509 133.665 30.4751 133.525 31.1475 133.241C31.8198 132.956 32.4255 132.533 32.9254 131.999C33.9604 130.927 34.537 129.491 34.5318 127.997C34.5267 126.504 33.9402 125.071 32.8978 124.007C32.39 123.469 31.7786 123.041 31.1009 122.749C30.4232 122.456 29.6934 122.306 28.9558 122.306C28.2183 122.306 27.4884 122.456 26.8107 122.749C26.133 123.041 25.5217 123.469 25.0139 124.007C24.4929 124.534 24.0813 125.161 23.8031 125.849C23.5248 126.538 23.3854 127.275 23.3929 128.018C23.402 129.515 23.998 130.947 25.0517 132.005C26.1054 133.063 27.5317 133.661 29.0214 133.669V133.652Z" fill="#4B901D"/>
<path d="M41.5443 135.045C41.4175 135.048 41.2912 135.026 41.1728 134.981C41.0544 134.935 40.9462 134.866 40.8546 134.778C40.7686 134.693 40.7007 134.592 40.655 134.48C40.6093 134.368 40.5869 134.247 40.589 134.126V121.782C40.5872 121.662 40.6097 121.542 40.6554 121.431C40.7011 121.319 40.7688 121.219 40.8546 121.134C40.9458 121.046 41.0539 120.976 41.1724 120.93C41.2909 120.885 41.4174 120.863 41.5443 120.868C41.6715 120.86 41.7988 120.881 41.9177 120.927C42.0366 120.973 42.1444 121.043 42.2341 121.134C42.3205 121.218 42.3887 121.319 42.4344 121.43C42.4801 121.542 42.5023 121.662 42.4996 121.782V126.577C42.4996 126.778 42.5479 126.875 42.6479 126.875C42.7328 126.863 42.8108 126.821 42.8686 126.757L43.8722 125.839L45.8449 124.02C46.583 123.327 47.236 122.72 47.8039 122.198L48.6281 121.429C48.822 121.269 49.0671 121.185 49.3179 121.193C49.5589 121.214 49.7838 121.324 49.949 121.502C50.0418 121.589 50.115 121.695 50.1638 121.813C50.2126 121.93 50.2358 122.057 50.2319 122.185C50.228 122.312 50.197 122.438 50.1411 122.552C50.0852 122.667 50.0056 122.768 49.9076 122.849L47.9625 124.582C46.7623 125.649 46.0726 126.27 45.8932 126.446C45.8546 126.485 45.8242 126.531 45.8041 126.582C45.7839 126.634 45.7743 126.688 45.776 126.743C45.7811 126.841 45.8174 126.935 45.8794 127.01C45.945 127.107 46.2243 127.481 46.7175 128.133C47.2107 128.784 47.7694 129.519 48.397 130.354C49.0247 131.189 49.5869 131.913 50.0766 132.543L50.7664 133.52C50.8834 133.695 50.9448 133.902 50.9422 134.113C50.9414 134.247 50.9099 134.379 50.8501 134.499C50.7903 134.62 50.7039 134.724 50.5974 134.806C50.5174 134.877 50.4241 134.932 50.3229 134.967C50.2216 135.002 50.1145 135.017 50.0076 135.01H49.711C49.6134 134.988 49.5214 134.945 49.4407 134.886C49.36 134.826 49.2924 134.75 49.242 134.663L47.0003 131.348C46.3933 130.478 45.8587 129.706 45.3966 129.023C44.9345 128.341 44.6689 127.96 44.5999 127.869C44.5718 127.829 44.5346 127.797 44.4914 127.774C44.4483 127.751 44.4004 127.739 44.3516 127.738C44.2698 127.738 44.191 127.769 44.1309 127.824C44.0585 127.883 43.9412 127.994 43.786 128.15C43.6308 128.306 43.4411 128.497 43.2549 128.67C43.0687 128.843 42.91 129.016 42.741 129.172C42.6605 129.25 42.5976 129.345 42.5566 129.449C42.5155 129.554 42.4973 129.666 42.5031 129.778V134.13C42.506 134.251 42.4839 134.371 42.4382 134.484C42.3925 134.596 42.3242 134.697 42.2375 134.781C42.1467 134.871 42.0381 134.941 41.9187 134.987C41.7993 135.032 41.6718 135.052 41.5443 135.045V135.045Z" fill="#4B901D"/>
<path d="M60.4296 135.429C59.4509 135.444 58.4796 135.256 57.5765 134.877C56.6733 134.498 55.8577 133.936 55.1806 133.226C54.4833 132.537 53.932 131.714 53.5598 130.806C53.1875 129.898 53.0022 128.924 53.0148 127.942C53.0143 126.964 53.2062 125.995 53.5796 125.091C53.9529 124.188 54.5003 123.367 55.1902 122.677C55.8802 121.986 56.6991 121.439 57.6 121.068C58.5009 120.696 59.4661 120.507 60.44 120.511C62.1627 120.453 63.8446 121.045 65.1545 122.17C65.242 122.239 65.31 122.329 65.3518 122.433C65.3935 122.536 65.4075 122.649 65.3925 122.759V124.377C65.3925 124.654 65.3304 124.793 65.2131 124.793C65.0959 124.793 64.9579 124.675 64.7441 124.446C64.2204 123.803 63.5744 123.271 62.8438 122.88C62.101 122.483 61.271 122.28 60.4296 122.288C59.697 122.278 58.9701 122.421 58.2956 122.708C57.621 122.996 57.0135 123.421 56.5118 123.958C55.9898 124.479 55.5772 125.1 55.2988 125.785C55.0204 126.469 54.8816 127.203 54.8909 127.942C54.8834 128.685 55.0229 129.422 55.3012 130.11C55.5794 130.798 55.9909 131.424 56.5118 131.951C57.0085 132.496 57.6143 132.929 58.2896 133.222C58.9648 133.516 59.6941 133.662 60.4296 133.652C61.3217 133.657 62.1982 133.418 62.9645 132.959C63.7277 132.507 64.3899 131.902 64.9096 131.182C65.0269 131.026 65.1338 130.946 65.2338 130.946C65.2639 130.95 65.2931 130.96 65.32 130.974C65.3614 130.994 65.3821 131.095 65.3821 131.272V133.108C65.3941 133.225 65.3761 133.344 65.3296 133.453C65.2831 133.561 65.2098 133.656 65.1165 133.728C63.8084 134.842 62.1446 135.446 60.4296 135.429V135.429Z" fill="#4B901D"/>
<path d="M74.5423 135.429C73.6232 135.426 72.7132 135.245 71.8626 134.895C70.9596 134.526 70.1965 133.878 69.683 133.045C69.1105 132.17 68.8254 130.951 68.8277 129.39V121.813C68.8215 121.684 68.8432 121.555 68.8915 121.436C68.9397 121.316 69.0133 121.208 69.1071 121.12C69.2037 121.03 69.3171 120.96 69.4408 120.914C69.5646 120.868 69.6961 120.848 69.8278 120.853C69.9529 120.849 70.0777 120.87 70.1943 120.916C70.3109 120.961 70.4168 121.031 70.5055 121.119C70.5942 121.208 70.6637 121.314 70.7097 121.431C70.7557 121.548 70.7772 121.674 70.7728 121.799V129.258C70.7728 130.76 71.1407 131.855 71.8764 132.543C72.5941 133.229 73.5521 133.602 74.5423 133.582C77.2163 133.582 78.5521 132.359 78.5498 129.913V121.813C78.5436 121.684 78.5654 121.555 78.6136 121.436C78.6618 121.316 78.7354 121.208 78.8292 121.12C78.921 121.032 79.0292 120.963 79.1475 120.918C79.2659 120.872 79.3921 120.85 79.5189 120.853C79.6459 120.849 79.7724 120.87 79.891 120.916C80.0095 120.962 80.1176 121.031 80.2087 121.12C80.2993 121.21 80.3698 121.319 80.4155 121.438C80.4613 121.557 80.4813 121.685 80.4743 121.813L80.5053 134.098C80.5065 134.223 80.4823 134.346 80.4343 134.46C80.3862 134.575 80.3153 134.678 80.2259 134.764C80.1356 134.855 80.028 134.926 79.9095 134.974C79.791 135.023 79.664 135.046 79.5362 135.044C79.2854 135.052 79.0403 134.969 78.8464 134.809C78.7538 134.728 78.6805 134.628 78.6321 134.515C78.5837 134.402 78.5615 134.28 78.5671 134.157V133.891C78.5693 133.874 78.5678 133.858 78.5627 133.843C78.5576 133.827 78.5491 133.813 78.5378 133.801C78.5265 133.79 78.5127 133.781 78.4975 133.775C78.4822 133.77 78.4659 133.768 78.4498 133.769C78.4265 133.771 78.4038 133.777 78.3831 133.788C78.3623 133.799 78.344 133.814 78.3291 133.832C77.8747 134.424 77.246 134.858 76.5323 135.072C75.8909 135.292 75.2199 135.412 74.5423 135.429Z" fill="#4B901D"/>
<path d="M96.142 135.045C96.0152 135.048 95.8889 135.027 95.7704 134.981C95.652 134.935 95.5438 134.866 95.4523 134.778C95.3656 134.694 95.2973 134.592 95.2516 134.48C95.2059 134.368 95.1838 134.248 95.1867 134.126V124.301C95.1867 124.183 95.166 124.121 95.1281 124.121L93.4623 125.898C92.1081 127.399 91.377 128.194 91.2689 128.282C91.1546 128.371 91.0133 128.417 90.8688 128.413C90.7437 128.416 90.6217 128.374 90.524 128.296C90.3903 128.187 90.2625 128.071 90.1411 127.949L86.6337 124.138C86.5958 124.138 86.5751 124.2 86.5751 124.318V134.144C86.5772 134.265 86.5548 134.385 86.5091 134.497C86.4635 134.609 86.3955 134.71 86.3095 134.795C86.2192 134.885 86.1112 134.955 85.9925 135.001C85.8738 135.047 85.7469 135.068 85.6198 135.062C85.4901 135.068 85.3605 135.047 85.2389 135.002C85.1174 134.956 85.0064 134.885 84.9128 134.795C84.8261 134.711 84.7578 134.609 84.7121 134.497C84.6664 134.385 84.6443 134.265 84.6472 134.144V121.782C84.6446 121.662 84.6668 121.542 84.7125 121.43C84.7582 121.319 84.8264 121.218 84.9128 121.134C85.0059 121.043 85.1168 120.973 85.2385 120.927C85.3602 120.881 85.49 120.861 85.6198 120.868C85.7485 120.868 85.8758 120.894 85.9943 120.945C86.1127 120.995 86.2199 121.069 86.3095 121.162C86.4659 121.361 86.7993 121.745 87.3097 122.316C88.526 123.678 89.3905 124.695 89.9032 125.365C90.317 125.999 90.6309 126.314 90.8447 126.314C91.0585 126.314 91.3172 126.075 91.6103 125.621C91.8058 125.365 92.1506 124.95 92.645 124.377C93.7946 123.014 94.5993 122.091 95.0591 121.606L95.404 121.19C95.4924 121.083 95.6059 121.001 95.7342 120.949C95.8624 120.898 96.0014 120.879 96.1386 120.895C96.2591 120.892 96.379 120.914 96.4906 120.96C96.6022 121.006 96.7031 121.075 96.787 121.162C96.8727 121.246 96.9405 121.347 96.9861 121.459C97.0318 121.57 97.0544 121.689 97.0525 121.81V134.154C97.0546 134.275 97.0322 134.395 96.9865 134.507C96.9409 134.619 96.873 134.721 96.787 134.805C96.6108 134.966 96.3797 135.051 96.142 135.045V135.045Z" fill="#4B901D"/>
<path d="M103.653 138.094H102.887C102.591 138.094 102.446 137.976 102.446 137.747C102.445 137.646 102.465 137.546 102.505 137.453L104.743 132.744C104.877 132.56 104.95 132.337 104.95 132.108C104.95 131.88 104.877 131.657 104.743 131.473C101.591 124.738 100.015 121.333 100.015 121.259C100.015 121.003 100.173 120.875 100.487 120.875H101.253C101.462 120.878 101.666 120.939 101.842 121.051C102.023 121.152 102.168 121.307 102.256 121.495L105.878 130.156C105.978 130.374 106.047 130.482 106.085 130.482C106.122 130.482 106.185 130.385 106.26 130.187C106.302 130.13 107.53 127.229 109.944 121.484C110.032 121.297 110.177 121.142 110.358 121.041C110.534 120.929 110.738 120.868 110.947 120.864H111.741C112.054 120.864 112.213 120.992 112.213 121.249C112.213 121.327 109.699 126.724 104.671 137.439C104.577 137.625 104.434 137.781 104.257 137.889C104.082 138.019 103.871 138.091 103.653 138.094V138.094Z" fill="#4B901D"/>
<path d="M126.695 135.045C126.565 135.051 126.435 135.03 126.314 134.984C126.192 134.938 126.081 134.868 125.988 134.778C125.902 134.693 125.834 134.592 125.788 134.48C125.742 134.368 125.72 134.247 125.722 134.126V124.301C125.722 124.183 125.701 124.121 125.663 124.121L124.011 125.898C122.655 127.399 121.924 128.194 121.818 128.282C121.705 128.371 121.565 128.417 121.421 128.413C121.297 128.414 121.175 128.373 121.077 128.296C120.977 128.216 120.852 128.098 120.694 127.949L117.186 124.138C117.148 124.138 117.128 124.2 117.128 124.318V134.144C117.131 134.265 117.109 134.385 117.063 134.497C117.017 134.609 116.949 134.711 116.862 134.795C116.772 134.885 116.664 134.956 116.545 135.002C116.427 135.048 116.3 135.068 116.172 135.062C116.043 135.068 115.913 135.047 115.792 135.002C115.67 134.956 115.559 134.885 115.465 134.795C115.379 134.71 115.311 134.609 115.266 134.497C115.22 134.385 115.198 134.265 115.2 134.144V121.782C115.198 121.662 115.221 121.542 115.266 121.431C115.312 121.319 115.38 121.219 115.465 121.134C115.559 121.043 115.669 120.973 115.791 120.927C115.913 120.881 116.043 120.861 116.172 120.868C116.304 120.865 116.435 120.89 116.556 120.941C116.678 120.992 116.788 121.067 116.879 121.162C117.036 121.361 117.369 121.745 117.88 122.316C119.096 123.678 119.96 124.695 120.473 125.365C120.887 125.999 121.201 126.314 121.418 126.314C121.635 126.314 121.887 126.075 122.184 125.621C122.38 125.365 122.722 124.949 123.218 124.377C124.368 123.014 125.173 122.091 125.632 121.606L125.977 121.19C126.066 121.083 126.179 121.001 126.308 120.95C126.436 120.898 126.575 120.88 126.712 120.895C126.832 120.894 126.951 120.917 127.062 120.963C127.173 121.009 127.274 121.076 127.359 121.161C127.444 121.246 127.511 121.347 127.557 121.459C127.603 121.57 127.626 121.689 127.626 121.81V134.154C127.629 134.275 127.607 134.396 127.561 134.508C127.515 134.62 127.447 134.721 127.36 134.805C127.271 134.888 127.166 134.951 127.051 134.992C126.937 135.033 126.816 135.051 126.695 135.045V135.045Z" fill="#4B901D"/>
<path opacity="0.75" d="M148.988 137.383C148.861 137.386 148.735 137.364 148.616 137.318C148.498 137.272 148.39 137.204 148.298 137.116C148.212 137.031 148.144 136.93 148.098 136.818C148.053 136.706 148.03 136.586 148.032 136.465C148.03 136.233 148.041 136.002 148.063 135.772C148.082 135.609 148.091 135.446 148.091 135.283C148.091 135.126 148.067 135.032 148.019 135.002C147.95 134.969 147.874 134.953 147.798 134.957C147.543 134.978 147.36 134.999 147.253 135.016C147.003 135.044 146.752 135.055 146.501 135.047H133.237C133.11 135.053 132.983 135.032 132.865 134.986C132.746 134.94 132.638 134.87 132.547 134.781C132.461 134.696 132.394 134.595 132.348 134.483C132.302 134.371 132.28 134.25 132.282 134.129V114.354C132.28 114.233 132.302 114.113 132.348 114.001C132.394 113.889 132.461 113.787 132.547 113.702C132.732 113.531 132.974 113.435 133.225 113.435C133.476 113.435 133.719 113.531 133.903 113.702C133.989 113.787 134.057 113.889 134.102 114.001C134.148 114.113 134.17 114.233 134.168 114.354V132.796C134.161 132.844 134.166 132.893 134.182 132.94C134.197 132.986 134.223 133.028 134.258 133.062C134.349 133.108 134.45 133.129 134.551 133.121H144.777C144.874 133.13 144.971 133.11 145.056 133.062C145.086 133.025 145.108 132.982 145.12 132.936C145.132 132.891 145.135 132.843 145.129 132.796V114.354C145.126 114.233 145.149 114.113 145.195 114.001C145.24 113.889 145.308 113.787 145.394 113.702C145.488 113.612 145.599 113.542 145.72 113.496C145.842 113.45 145.971 113.43 146.101 113.436C146.228 113.43 146.355 113.451 146.474 113.497C146.592 113.543 146.7 113.613 146.791 113.702C146.876 113.787 146.944 113.889 146.989 114.001C147.034 114.113 147.056 114.233 147.053 114.354V132.796C147.047 132.835 147.05 132.875 147.06 132.913C147.071 132.951 147.089 132.987 147.114 133.017C147.139 133.048 147.17 133.073 147.205 133.091C147.241 133.109 147.279 133.119 147.319 133.121H149.043C149.161 133.12 149.278 133.143 149.387 133.188C149.496 133.234 149.595 133.3 149.678 133.385C149.763 133.47 149.831 133.571 149.876 133.683C149.922 133.795 149.945 133.915 149.943 134.036V136.461C149.945 136.582 149.923 136.702 149.877 136.814C149.831 136.926 149.764 137.028 149.678 137.112C149.587 137.203 149.479 137.273 149.361 137.32C149.242 137.366 149.115 137.388 148.988 137.383Z" fill="white"/>
<path opacity="0.75" d="M159.782 135.429C157.8 135.429 156.248 134.975 155.126 134.067C153.163 132.488 152.181 129.873 152.181 126.224C152.181 126.005 152.181 125.406 152.226 124.419C152.316 122.992 152.527 121.576 152.857 120.185C153.221 118.183 154.25 116.363 155.775 115.023C157.247 113.749 159.136 113.064 161.079 113.1C162.436 113.1 163.47 113.495 164.183 114.285C164.658 114.799 164.922 115.475 164.921 116.176C164.883 116.725 164.778 117.267 164.611 117.791C164.404 118.528 163.446 119.452 161.738 120.563C161.679 120.601 161.648 120.625 161.648 120.635V120.68C161.648 120.701 161.669 120.729 161.707 120.767C163.284 121.187 164.681 122.113 165.687 123.404C166.526 124.512 167.041 125.834 167.174 127.22C167.307 128.607 167.053 130.003 166.439 131.252C165.826 132.501 164.878 133.554 163.702 134.292C162.526 135.03 161.169 135.423 159.782 135.429V135.429ZM154.333 123.085C154.414 123.074 154.487 123.032 154.537 122.967C155.271 121.999 156.278 121.274 157.427 120.888L157.896 120.712C158.487 120.515 159.189 120.234 160.003 119.866C160.808 119.509 161.553 119.03 162.214 118.446C162.521 118.195 162.77 117.878 162.94 117.518C163.111 117.159 163.2 116.765 163.2 116.367C163.202 116.158 163.16 115.951 163.076 115.76C162.992 115.569 162.869 115.398 162.714 115.258C162.39 114.951 161.845 114.798 161.079 114.798C159.651 114.763 158.257 115.24 157.147 116.145C156.01 117.111 155.185 118.394 154.775 119.832C154.657 120.227 154.537 120.687 154.43 121.217C154.297 121.743 154.209 122.278 154.164 122.818C154.161 122.991 154.212 123.085 154.333 123.085ZM159.782 133.652C160.518 133.662 161.247 133.515 161.922 133.222C162.598 132.929 163.203 132.496 163.7 131.951C164.222 131.424 164.634 130.798 164.912 130.11C165.19 129.422 165.329 128.685 165.321 127.942C165.331 127.203 165.193 126.469 164.914 125.784C164.636 125.1 164.223 124.479 163.7 123.958C163.192 123.43 162.583 123.01 161.91 122.723C161.237 122.436 160.513 122.288 159.782 122.288C159.051 122.288 158.327 122.436 157.654 122.723C156.981 123.01 156.373 123.43 155.864 123.958C155.342 124.479 154.93 125.1 154.651 125.785C154.373 126.469 154.234 127.203 154.244 127.942C154.236 128.685 154.376 129.422 154.654 130.11C154.932 130.798 155.344 131.424 155.864 131.951C156.361 132.496 156.967 132.929 157.642 133.222C158.317 133.515 159.047 133.662 159.782 133.652V133.652Z" fill="white"/>
<path opacity="0.75" d="M177.726 135.429C176.747 135.431 175.777 135.238 174.872 134.862C173.967 134.487 173.145 133.935 172.452 133.24C171.759 132.544 171.21 131.719 170.836 130.81C170.461 129.901 170.269 128.926 170.27 127.943C170.251 126.961 170.433 125.987 170.806 125.08C171.18 124.173 171.736 123.354 172.439 122.673C173.848 121.287 175.741 120.511 177.712 120.511C179.684 120.511 181.577 121.287 182.986 122.673C184.016 123.686 184.675 125.019 184.855 126.456L184.886 126.664C184.878 126.88 184.827 127.092 184.738 127.288C184.641 127.519 184.386 127.634 183.972 127.634H172.688C172.62 127.625 172.551 127.629 172.486 127.647C172.42 127.665 172.358 127.696 172.305 127.738C172.239 127.828 172.207 127.939 172.215 128.05V128.195C172.287 129.569 172.865 130.867 173.836 131.837C175.036 133.042 176.329 133.642 177.726 133.642C178.475 133.641 179.215 133.474 179.892 133.153C180.495 132.897 181.033 132.508 181.468 132.017C181.941 131.424 182.334 131.127 182.648 131.127C182.856 131.136 183.058 131.196 183.237 131.303C183.365 131.387 183.469 131.502 183.541 131.637C183.612 131.772 183.649 131.923 183.648 132.076C183.642 132.349 183.538 132.611 183.355 132.814C181.761 134.558 179.885 135.429 177.726 135.429ZM182.265 125.763C182.558 125.763 182.706 125.704 182.706 125.587C182.688 125.455 182.626 125.332 182.53 125.24V125.209C182.299 124.771 181.989 124.38 181.616 124.055C181.126 123.506 180.526 123.066 179.855 122.764C179.184 122.462 178.458 122.305 177.723 122.302C176.988 122.3 176.261 122.453 175.588 122.751C174.916 123.048 174.313 123.485 173.819 124.031C173.426 124.425 173.079 124.862 172.784 125.334C172.736 125.416 172.706 125.506 172.694 125.601C172.696 125.622 172.704 125.643 172.717 125.661C172.73 125.678 172.747 125.692 172.767 125.701C172.815 125.743 175.981 125.763 182.265 125.763Z" fill="white"/>
<path opacity="0.75" d="M193.018 135.044C192.892 135.048 192.765 135.026 192.647 134.981C192.528 134.935 192.42 134.866 192.329 134.777C192.243 134.693 192.175 134.591 192.129 134.479C192.083 134.367 192.061 134.247 192.063 134.126V123.057C192.065 122.981 192.039 122.907 191.991 122.849C191.962 122.818 191.928 122.794 191.889 122.778C191.85 122.763 191.808 122.756 191.766 122.759H188.663C188.542 122.762 188.423 122.74 188.311 122.695C188.2 122.649 188.099 122.582 188.014 122.496C187.925 122.405 187.855 122.296 187.81 122.177C187.764 122.058 187.743 121.93 187.749 121.803C187.742 121.675 187.763 121.547 187.809 121.428C187.854 121.309 187.924 121.2 188.014 121.11C188.098 121.023 188.199 120.954 188.311 120.908C188.422 120.862 188.542 120.84 188.663 120.843H197.412C197.533 120.84 197.653 120.862 197.764 120.908C197.876 120.954 197.977 121.023 198.06 121.11C198.15 121.2 198.22 121.309 198.266 121.428C198.312 121.547 198.332 121.675 198.326 121.803C198.331 121.93 198.311 122.058 198.265 122.177C198.219 122.296 198.15 122.405 198.06 122.496C197.976 122.582 197.875 122.649 197.763 122.695C197.652 122.74 197.532 122.762 197.412 122.759H194.26C194.224 122.758 194.187 122.766 194.154 122.781C194.122 122.797 194.093 122.82 194.07 122.849C194.02 122.906 193.992 122.98 193.994 123.057V134.126C193.997 134.247 193.975 134.368 193.93 134.48C193.884 134.592 193.815 134.693 193.729 134.777C193.636 134.87 193.525 134.942 193.402 134.988C193.28 135.034 193.149 135.053 193.018 135.044V135.044Z" fill="white"/>
<path opacity="0.75" d="M208.652 135.429C206.931 135.426 205.263 134.824 203.934 133.725C202.605 132.627 201.696 131.099 201.362 129.403C201.028 127.706 201.289 125.946 202.102 124.422C202.915 122.897 204.229 121.703 205.82 121.043C207.411 120.382 209.18 120.296 210.827 120.799C212.474 121.302 213.897 122.363 214.853 123.801C215.808 125.239 216.238 126.966 216.069 128.687C215.9 130.407 215.142 132.016 213.925 133.239C213.243 133.948 212.422 134.508 211.515 134.885C210.608 135.262 209.633 135.447 208.652 135.429ZM208.652 133.651C209.386 133.662 210.114 133.517 210.789 133.226C211.464 132.935 212.071 132.505 212.57 131.964C213.609 130.897 214.191 129.463 214.191 127.969C214.191 126.476 213.609 125.042 212.57 123.975C212.066 123.442 211.459 123.017 210.787 122.727C210.115 122.437 209.391 122.288 208.659 122.288C207.927 122.288 207.203 122.437 206.531 122.727C205.858 123.017 205.252 123.442 204.748 123.975C203.7 125.038 203.113 126.473 203.113 127.969C203.113 129.465 203.7 130.901 204.748 131.964C205.246 132.503 205.85 132.932 206.522 133.222C207.195 133.513 207.92 133.659 208.652 133.651Z" fill="white"/>
<path opacity="0.75" d="M226.586 135.429C224.599 135.429 223.047 134.975 221.93 134.068C219.964 132.488 218.981 129.873 218.981 126.224C218.981 126.005 218.998 125.406 219.026 124.419C219.119 122.992 219.331 121.576 219.66 120.185C220.023 118.183 221.048 116.364 222.571 115.023C224.042 113.748 225.93 113.064 227.872 113.1C229.226 113.1 230.261 113.495 230.976 114.285C231.453 114.798 231.718 115.474 231.714 116.177C231.676 116.725 231.571 117.267 231.403 117.791C231.201 118.528 230.244 119.452 228.531 120.563C228.472 120.601 228.444 120.625 228.444 120.635V120.68C228.444 120.701 228.444 120.729 228.503 120.767C230.079 121.187 231.476 122.113 232.48 123.404C233.318 124.511 233.834 125.832 233.967 127.218C234.1 128.603 233.847 129.999 233.235 131.247C232.623 132.496 231.676 133.549 230.502 134.288C229.327 135.026 227.971 135.422 226.586 135.429V135.429ZM221.133 123.085C221.214 123.074 221.289 123.032 221.34 122.967C222.073 121.999 223.079 121.275 224.227 120.888L224.699 120.712C225.289 120.514 225.989 120.234 226.806 119.866C227.61 119.509 228.354 119.03 229.013 118.446C229.322 118.195 229.57 117.878 229.741 117.518C229.912 117.159 230.002 116.766 230.003 116.367C230.006 116.158 229.963 115.951 229.88 115.76C229.796 115.569 229.672 115.398 229.517 115.258C229.193 114.951 228.647 114.798 227.879 114.798C226.45 114.763 225.056 115.24 223.947 116.145C222.811 117.112 221.986 118.395 221.574 119.832C221.457 120.227 221.34 120.687 221.23 121.217C221.095 121.742 221.007 122.278 220.964 122.818C220.95 122.991 221.009 123.085 221.126 123.085H221.133ZM226.586 133.652C227.321 133.661 228.05 133.515 228.725 133.222C229.401 132.929 230.006 132.495 230.503 131.951C231.024 131.424 231.436 130.798 231.714 130.11C231.992 129.422 232.132 128.685 232.124 127.942C232.134 127.203 231.995 126.469 231.716 125.785C231.438 125.1 231.025 124.479 230.503 123.958C229.995 123.43 229.386 123.01 228.712 122.723C228.039 122.436 227.315 122.288 226.584 122.288C225.852 122.288 225.128 122.436 224.455 122.723C223.782 123.01 223.173 123.43 222.664 123.958C222.142 124.479 221.73 125.1 221.451 125.785C221.173 126.469 221.034 127.203 221.043 127.942C221.036 128.685 221.175 129.422 221.454 130.11C221.732 130.798 222.143 131.424 222.664 131.951C223.161 132.496 223.768 132.93 224.444 133.223C225.12 133.516 225.849 133.662 226.586 133.652V133.652Z" fill="white"/>
<path opacity="0.75" d="M5.43872 156.272C5.38332 156.275 5.3286 156.259 5.28265 156.228C5.2367 156.197 5.20194 156.152 5.18351 156.099L3.11424 151.006C3.02457 150.774 2.95215 150.66 2.90386 150.66C2.85558 150.66 2.78316 150.774 2.68659 151.006L0.61732 156.099C0.597791 156.152 0.562291 156.197 0.515859 156.228C0.469428 156.259 0.414425 156.274 0.358661 156.272C0.307263 156.274 0.25592 156.267 0.206914 156.252C0.157437 156.227 0.115906 156.189 0.0871947 156.142C0.058484 156.095 0.0437846 156.04 0.0448214 155.985C0.0384449 155.948 0.0384449 155.911 0.0448214 155.874L2.62451 149.738C2.64439 149.685 2.68095 149.639 2.72878 149.607C2.7766 149.576 2.83316 149.561 2.89007 149.565C2.94728 149.564 3.00343 149.58 3.05177 149.611C3.10012 149.642 3.13858 149.686 3.16252 149.738L5.72497 155.867C5.74183 155.902 5.75123 155.939 5.75256 155.978C5.75102 156.037 5.73173 156.094 5.69725 156.141C5.66277 156.189 5.61471 156.225 5.55943 156.245C5.52137 156.262 5.48037 156.271 5.43872 156.272V156.272Z" fill="white"/>
<path opacity="0.75" d="M13.6363 156.251C13.5812 156.252 13.527 156.238 13.4799 156.209C13.4329 156.18 13.395 156.138 13.3707 156.089L12.681 154.398C12.6609 154.357 12.6289 154.324 12.5895 154.303C12.5501 154.281 12.505 154.272 12.4603 154.277H9.71158C9.66345 154.273 9.61544 154.285 9.57536 154.312C9.53529 154.34 9.5055 154.379 9.49086 154.426L8.8011 156.089C8.77619 156.138 8.73817 156.179 8.69128 156.208C8.6444 156.237 8.59048 156.252 8.53555 156.251C8.49374 156.251 8.45247 156.242 8.41484 156.224C8.3606 156.207 8.31333 156.173 8.28031 156.127C8.24728 156.08 8.23032 156.024 8.23205 155.967C8.23288 155.929 8.23987 155.892 8.25275 155.856L10.8117 149.728C10.8335 149.673 10.872 149.627 10.9216 149.596C10.9712 149.565 11.0293 149.55 11.0876 149.554C11.1449 149.553 11.2013 149.569 11.2497 149.6C11.2981 149.631 11.3365 149.675 11.3601 149.728L13.9225 155.856C13.9394 155.891 13.9488 155.929 13.9501 155.967C13.9513 156.026 13.9328 156.083 13.8978 156.129C13.8628 156.176 13.8132 156.209 13.757 156.224C13.7195 156.243 13.6782 156.252 13.6363 156.251V156.251ZM12.2085 153.681C12.2947 153.681 12.3361 153.66 12.3361 153.615C12.3333 153.584 12.3239 153.555 12.3085 153.528L12.0705 152.991C11.936 152.669 11.7877 152.298 11.6222 151.917L11.1566 150.777C11.1325 150.698 11.1049 150.66 11.0739 150.66C11.0428 150.66 10.629 151.557 9.92196 153.359L9.83919 153.577C9.83608 153.59 9.83608 153.605 9.83919 153.618C9.83919 153.667 9.88057 153.691 9.95989 153.691L12.2085 153.681Z" fill="white"/>
<path opacity="0.75" d="M21.2651 156.272C21.2246 156.274 21.1842 156.268 21.1462 156.253C21.1082 156.239 21.0736 156.217 21.0444 156.189C21.0175 156.163 20.9963 156.132 20.982 156.097C20.9678 156.062 20.9608 156.025 20.9616 155.988V153.216C20.9616 153.154 20.934 153.123 20.8789 153.123H17.468C17.4128 153.123 17.3852 153.154 17.3852 153.216V155.988C17.3861 156.025 17.3791 156.062 17.3649 156.097C17.3506 156.132 17.3294 156.163 17.3025 156.189C17.275 156.216 17.2421 156.238 17.2059 156.252C17.1697 156.267 17.131 156.273 17.0921 156.272C17.0522 156.274 17.0123 156.267 16.9749 156.253C16.9375 156.239 16.9035 156.217 16.8748 156.189C16.8479 156.163 16.8267 156.132 16.8124 156.097C16.7982 156.062 16.7912 156.025 16.7921 155.988V149.849C16.7912 149.811 16.7982 149.774 16.8124 149.739C16.8267 149.705 16.8479 149.674 16.8748 149.648C16.9035 149.62 16.9375 149.598 16.9749 149.583C17.0123 149.569 17.0522 149.563 17.0921 149.564C17.131 149.563 17.1697 149.57 17.2059 149.584C17.2421 149.598 17.275 149.62 17.3025 149.648C17.3294 149.674 17.3506 149.705 17.3649 149.739C17.3791 149.774 17.3861 149.811 17.3852 149.849V152.44C17.3848 152.452 17.3866 152.463 17.3908 152.474C17.395 152.485 17.4013 152.494 17.4094 152.502C17.4159 152.512 17.4248 152.519 17.4351 152.524C17.4453 152.529 17.4567 152.531 17.468 152.53H20.8789C20.8906 152.531 20.9024 152.528 20.9132 152.524C20.9239 152.519 20.9335 152.512 20.9409 152.502C20.9549 152.485 20.9622 152.463 20.9616 152.44V149.838C20.9608 149.801 20.9678 149.764 20.982 149.729C20.9963 149.694 21.0175 149.663 21.0444 149.637C21.0736 149.609 21.1082 149.587 21.1462 149.573C21.1842 149.558 21.2246 149.552 21.2651 149.554C21.304 149.553 21.3426 149.56 21.3787 149.574C21.4149 149.588 21.4478 149.61 21.4755 149.637C21.5024 149.663 21.5237 149.694 21.5379 149.729C21.5521 149.764 21.5591 149.801 21.5583 149.838V155.977C21.5591 156.015 21.5521 156.052 21.5379 156.087C21.5237 156.121 21.5024 156.152 21.4755 156.178C21.4487 156.208 21.4161 156.231 21.38 156.247C21.3438 156.263 21.3047 156.272 21.2651 156.272Z" fill="white"/>
<path opacity="0.75" d="M24.9761 156.272C24.9733 156.297 24.9733 156.321 24.9761 156.345C24.9761 156.39 24.9761 156.435 24.9761 156.484C24.9799 156.56 24.9799 156.636 24.9761 156.712C24.9768 156.75 24.9698 156.788 24.9555 156.823C24.9413 156.858 24.9202 156.89 24.8933 156.917C24.8675 156.944 24.8364 156.965 24.802 156.98C24.7676 156.994 24.7305 157.001 24.6933 157H24.6657C24.6284 157.001 24.5913 156.994 24.5569 156.98C24.5224 156.965 24.4913 156.944 24.4657 156.917C24.4388 156.89 24.4177 156.858 24.4034 156.823C24.3892 156.788 24.3822 156.75 24.3829 156.712V155.961C24.382 155.923 24.3886 155.886 24.4025 155.851C24.4164 155.816 24.4372 155.784 24.4636 155.758C24.4901 155.731 24.5216 155.71 24.5564 155.696C24.5911 155.682 24.6283 155.676 24.6657 155.677H24.8312C24.887 155.679 24.942 155.662 24.9864 155.628C25.0266 155.591 25.0573 155.544 25.0761 155.493C25.1002 155.431 25.2348 155.115 25.4762 154.54C25.7176 153.965 25.99 153.31 26.297 152.569L27.1247 150.594V150.577C27.1223 150.57 27.1223 150.563 27.1247 150.556V150.539C27.1247 150.539 27.1247 150.539 27.1247 150.521C27.1265 150.512 27.1265 150.503 27.1247 150.494V150.494V150.476C27.1232 150.473 27.1224 150.469 27.1224 150.466C27.1224 150.462 27.1232 150.459 27.1247 150.455C27.1247 150.455 27.1247 150.455 27.1247 150.455L27.2454 150.362V150.345V150.327V150.306C27.2446 150.297 27.2446 150.288 27.2454 150.279V150.279V150.258V150.203V150.157C27.2462 150.152 27.2462 150.146 27.2454 150.14V150.14V150.123C27.2937 150.012 27.3247 149.943 27.3351 149.912C27.36 149.86 27.3987 149.817 27.4468 149.786C27.4949 149.755 27.5506 149.739 27.6075 149.738C27.6635 149.739 27.718 149.756 27.7649 149.787C27.8118 149.817 27.8493 149.861 27.8731 149.912L28.2386 150.767C28.4686 151.342 28.7422 151.999 29.0595 152.739L30.0389 154.519C30.2803 155.094 30.4148 155.406 30.439 155.462C30.4572 155.524 30.4918 155.58 30.539 155.625C30.5816 155.654 30.6324 155.668 30.6838 155.666H30.8494C30.8868 155.665 30.924 155.672 30.9587 155.686C30.9934 155.7 31.025 155.721 31.0514 155.747C31.0779 155.774 31.0987 155.806 31.1126 155.84C31.1265 155.875 31.1331 155.913 31.1322 155.95V156.702C31.1328 156.74 31.1259 156.778 31.1116 156.813C31.0974 156.848 31.0762 156.88 31.0494 156.906C31.0237 156.934 30.9927 156.955 30.9582 156.969C30.9237 156.984 30.8867 156.991 30.8494 156.99H30.8218C30.7845 156.99 30.7475 156.983 30.7131 156.969C30.6786 156.955 30.6475 156.933 30.6218 156.906C30.5949 156.88 30.5738 156.848 30.5595 156.813C30.5453 156.778 30.5383 156.74 30.539 156.702C30.5351 156.626 30.5351 156.55 30.539 156.473C30.539 156.425 30.539 156.38 30.539 156.335C30.5418 156.311 30.5418 156.286 30.539 156.262L24.9761 156.272ZM29.6595 155.677C29.7871 155.677 29.832 155.6 29.7871 155.455C29.6664 155.16 29.4871 154.724 29.2526 154.145L28.5628 152.413L28.1455 151.374L27.9351 150.899C27.9295 150.879 27.9201 150.86 27.9076 150.843C27.8455 150.67 27.8006 150.591 27.7662 150.597C27.7317 150.604 27.6765 150.712 27.5972 150.916C27.5799 150.965 27.5041 151.145 27.3764 151.453C27.2488 151.762 27.0936 152.146 26.9143 152.583C26.735 153.019 26.5694 153.473 26.3729 153.92C26.1038 154.583 25.8992 155.085 25.759 155.427C25.7038 155.593 25.7417 155.677 25.8762 155.677H29.6595Z" fill="white"/>
<path opacity="0.75" d="M40.0057 156.272H34.2531C34.2154 156.273 34.1779 156.266 34.1429 156.252C34.1079 156.237 34.0762 156.216 34.0496 156.189C34.0227 156.163 34.0015 156.132 33.9872 156.097C33.973 156.063 33.966 156.026 33.9669 155.988V149.849C33.966 149.811 33.973 149.774 33.9872 149.74C34.0015 149.705 34.0227 149.674 34.0496 149.648C34.0788 149.62 34.1135 149.598 34.1514 149.583C34.1894 149.569 34.2299 149.563 34.2704 149.565C34.3088 149.563 34.3471 149.57 34.3828 149.584C34.4185 149.598 34.4507 149.62 34.4773 149.648C34.5025 149.675 34.5221 149.706 34.5351 149.741C34.5481 149.775 34.5543 149.812 34.5532 149.849V155.576C34.5532 155.617 34.5532 155.645 34.5807 155.656C34.6088 155.672 34.6414 155.679 34.6739 155.676H36.7121C36.7424 155.68 36.7728 155.672 36.7983 155.656C36.7983 155.656 36.8225 155.617 36.8225 155.576V149.849C36.8216 149.811 36.8286 149.774 36.8428 149.74C36.8571 149.705 36.8783 149.674 36.9052 149.648C36.9339 149.62 36.9679 149.598 37.0053 149.584C37.0427 149.57 37.0826 149.563 37.1225 149.565C37.1614 149.563 37.2002 149.57 37.2364 149.584C37.2727 149.598 37.3055 149.62 37.3329 149.648C37.3598 149.674 37.381 149.705 37.3953 149.74C37.4095 149.774 37.4165 149.811 37.4156 149.849V155.576C37.4156 155.617 37.4156 155.645 37.4432 155.656C37.4715 155.672 37.5039 155.679 37.5364 155.676H39.5746C39.6049 155.68 39.6356 155.673 39.6608 155.656C39.6608 155.656 39.6849 155.617 39.6849 155.576V149.849C39.6841 149.811 39.6911 149.774 39.7053 149.74C39.7196 149.705 39.7408 149.674 39.7677 149.648C39.7969 149.62 39.8315 149.598 39.8695 149.583C39.9075 149.569 39.9479 149.563 39.9884 149.565C40.0273 149.564 40.0659 149.571 40.102 149.585C40.1382 149.599 40.1711 149.621 40.1988 149.648C40.2506 149.702 40.2791 149.774 40.2781 149.849V155.988C40.2764 156.056 40.2535 156.121 40.2126 156.175C40.1888 156.207 40.1574 156.233 40.1213 156.25C40.0852 156.267 40.0455 156.274 40.0057 156.272V156.272Z" fill="white"/>
<path opacity="0.75" d="M48.5211 156.252C48.466 156.253 48.4118 156.238 48.3648 156.209C48.3177 156.18 48.2799 156.138 48.2556 156.089L47.5658 154.398C47.5457 154.358 47.5138 154.324 47.4743 154.303C47.4349 154.281 47.3898 154.272 47.3451 154.277H44.6102C44.5624 154.272 44.5146 154.285 44.475 154.312C44.4354 154.339 44.4064 154.379 44.393 154.426L43.7032 156.089C43.6789 156.138 43.6411 156.18 43.594 156.209C43.547 156.238 43.4927 156.253 43.4376 156.252C43.3969 156.252 43.3568 156.242 43.3204 156.224C43.2655 156.208 43.2175 156.174 43.1843 156.128C43.1511 156.081 43.1347 156.025 43.1376 155.967C43.1312 155.931 43.1312 155.893 43.1376 155.857L45.7 149.728C45.7207 149.673 45.7585 149.627 45.8076 149.596C45.8567 149.564 45.9145 149.55 45.9725 149.555C46.0302 149.554 46.0869 149.57 46.1358 149.6C46.1848 149.631 46.2239 149.675 46.2484 149.728L48.8074 155.857C48.8258 155.891 48.8353 155.929 48.835 155.967C48.8216 156.043 48.7839 156.111 48.7278 156.162C48.6717 156.214 48.6002 156.245 48.5246 156.252H48.5211ZM47.0933 153.681C47.1796 153.681 47.221 153.66 47.221 153.615C47.2181 153.584 47.2087 153.555 47.1934 153.528L46.9657 152.981C46.8312 152.659 46.6829 152.288 46.5174 151.907L46.0518 150.767C46.0277 150.687 46.0001 150.649 45.969 150.649C45.938 150.649 45.5242 151.547 44.8172 153.348L44.7344 153.567C44.7313 153.58 44.7313 153.594 44.7344 153.608C44.7344 153.657 44.7758 153.681 44.8551 153.681H47.0933Z" fill="white"/>
<path opacity="0.75" d="M54.7048 149.555C55.2198 149.587 55.7204 149.739 56.1671 149.998C56.6647 150.294 57.0789 150.713 57.3707 151.214C57.6621 151.73 57.8154 152.312 57.8154 152.905C57.8154 153.498 57.6621 154.08 57.3707 154.596C57.0828 155.1 56.6677 155.52 56.1671 155.812C55.7228 156.078 55.2212 156.232 54.7048 156.262V156.65C54.7076 156.739 54.6782 156.827 54.622 156.896C54.5992 156.928 54.5692 156.954 54.5344 156.972C54.4996 156.99 54.4611 157 54.422 157H54.4013C54.3622 157 54.3236 156.99 54.2889 156.972C54.2541 156.954 54.2241 156.928 54.2013 156.896C54.1451 156.827 54.1157 156.739 54.1185 156.65V156.252C53.6224 156.211 53.1416 156.06 52.7114 155.808C52.1961 155.518 51.7639 155.099 51.456 154.592C51.1515 154.081 50.9907 153.497 50.9907 152.901C50.9907 152.306 51.1515 151.722 51.456 151.211C51.7673 150.707 52.1988 150.289 52.7114 149.995C53.1429 149.748 53.6234 149.6 54.1185 149.562V149.184C54.1157 149.095 54.1451 149.007 54.2013 148.938C54.2241 148.906 54.2541 148.88 54.2889 148.862C54.3236 148.844 54.3622 148.834 54.4013 148.834H54.422C54.4611 148.834 54.4996 148.844 54.5344 148.862C54.5692 148.88 54.5992 148.906 54.622 148.938C54.6782 149.007 54.7076 149.095 54.7048 149.184V149.555ZM51.5767 152.908C51.5709 153.597 51.8163 154.264 52.2665 154.783C52.7033 155.314 53.315 155.67 53.9909 155.787C54.0806 155.787 54.1254 155.749 54.1254 155.676V150.133C54.1254 150.06 54.0737 150.026 53.9702 150.033C53.3035 150.157 52.701 150.511 52.2665 151.034C51.8166 151.553 51.5712 152.22 51.5767 152.908V152.908ZM54.7048 150.105V155.722C54.7174 155.744 54.736 155.763 54.7585 155.776C54.781 155.789 54.8065 155.795 54.8324 155.794C55.5096 155.695 56.125 155.344 56.5568 154.81C56.9993 154.281 57.2369 153.61 57.2258 152.919C57.2371 152.224 56.9997 151.547 56.5568 151.013C56.1267 150.478 55.5102 150.128 54.8324 150.033C54.8147 150.029 54.7964 150.029 54.7789 150.034C54.7615 150.039 54.7455 150.048 54.7324 150.06L54.7048 150.105Z" fill="white"/>
<path opacity="0.75" d="M62.5886 156.272C62.5497 156.273 62.511 156.267 62.4748 156.252C62.4386 156.238 62.4057 156.216 62.3782 156.189C62.3513 156.163 62.3301 156.132 62.3158 156.097C62.3016 156.062 62.2946 156.025 62.2955 155.988V150.271C62.3033 150.239 62.3033 150.206 62.2955 150.174C62.2713 150.157 62.2419 150.15 62.2127 150.153H60.8125C60.7752 150.154 60.7382 150.147 60.7038 150.133C60.6693 150.119 60.6382 150.097 60.6124 150.07C60.5596 150.013 60.5303 149.937 60.5303 149.859C60.5303 149.781 60.5596 149.705 60.6124 149.648C60.6382 149.621 60.6693 149.599 60.7038 149.585C60.7382 149.571 60.7752 149.564 60.8125 149.565H64.3992C64.4365 149.564 64.4735 149.571 64.5079 149.585C64.5424 149.599 64.5735 149.621 64.5992 149.648C64.6521 149.705 64.6814 149.781 64.6814 149.859C64.6814 149.937 64.6521 150.013 64.5992 150.07C64.5735 150.097 64.5424 150.119 64.5079 150.133C64.4735 150.147 64.4365 150.154 64.3992 150.153H63.0197C62.9884 150.151 62.957 150.158 62.93 150.174C62.9201 150.185 62.9126 150.197 62.9078 150.211C62.9031 150.225 62.9012 150.239 62.9024 150.254V155.988C62.9033 156.025 62.8963 156.062 62.8821 156.097C62.8678 156.132 62.8466 156.163 62.8197 156.189C62.7898 156.219 62.7536 156.242 62.7136 156.257C62.6736 156.271 62.6309 156.276 62.5886 156.272V156.272Z" fill="white"/>
<path opacity="0.75" d="M71.9726 156.272C71.9322 156.273 71.8918 156.267 71.8539 156.253C71.816 156.238 71.7813 156.217 71.7519 156.189C71.7002 156.135 71.6716 156.062 71.6726 155.988V153.216C71.6726 153.154 71.645 153.122 71.5898 153.122H68.1755C68.1238 153.122 68.0962 153.154 68.0962 153.216V155.988C68.097 156.025 68.0901 156.062 68.0758 156.097C68.0616 156.131 68.0403 156.163 68.0134 156.189C67.9857 156.216 67.9528 156.237 67.9167 156.252C67.8805 156.266 67.8419 156.273 67.8031 156.272C67.7626 156.274 67.7221 156.267 67.6841 156.253C67.6462 156.239 67.6115 156.217 67.5823 156.189C67.5554 156.163 67.5342 156.131 67.52 156.097C67.5057 156.062 67.4988 156.025 67.4996 155.988V149.848C67.4988 149.811 67.5057 149.774 67.52 149.739C67.5342 149.705 67.5554 149.673 67.5823 149.647C67.6115 149.619 67.6462 149.597 67.6841 149.583C67.7221 149.569 67.7626 149.562 67.8031 149.564C67.8419 149.563 67.8805 149.57 67.9167 149.584C67.9528 149.599 67.9857 149.62 68.0134 149.647C68.0403 149.673 68.0616 149.705 68.0758 149.739C68.0901 149.774 68.097 149.811 68.0962 149.848V152.44C68.0957 152.462 68.103 152.485 68.1169 152.502C68.1237 152.511 68.1326 152.519 68.1428 152.523C68.153 152.528 68.1642 152.531 68.1755 152.53H71.5898C71.6012 152.531 71.6125 152.529 71.6228 152.524C71.6331 152.519 71.6419 152.512 71.6485 152.502C71.6634 152.485 71.6719 152.463 71.6726 152.44V149.838C71.6716 149.763 71.7002 149.691 71.7519 149.637C71.7813 149.609 71.816 149.587 71.8539 149.573C71.8918 149.559 71.9322 149.552 71.9726 149.554C72.0115 149.553 72.0503 149.559 72.0865 149.573C72.1227 149.588 72.1555 149.609 72.183 149.637C72.2099 149.663 72.2312 149.694 72.2454 149.729C72.2597 149.763 72.2666 149.801 72.2658 149.838V155.977C72.2666 156.015 72.2597 156.052 72.2454 156.086C72.2312 156.121 72.2099 156.152 72.183 156.178C72.1564 156.208 72.124 156.231 72.0877 156.247C72.0515 156.264 72.0123 156.272 71.9726 156.272V156.272Z" fill="white"/>
<path opacity="0.75" d="M77.4253 156.272H75.7492C75.6742 156.272 75.6022 156.242 75.5492 156.189C75.4962 156.136 75.4664 156.063 75.4664 155.988V149.849C75.4656 149.811 75.4725 149.774 75.4867 149.74C75.501 149.705 75.5222 149.674 75.5491 149.648C75.5783 149.62 75.613 149.598 75.6509 149.583C75.6889 149.569 75.7294 149.563 75.7699 149.565C75.8087 149.564 75.8473 149.571 75.8835 149.585C75.9196 149.599 75.9525 149.621 75.9802 149.648C76.0071 149.674 76.0284 149.705 76.0426 149.74C76.0569 149.774 76.0638 149.811 76.063 149.849V151.973C76.0596 152.002 76.067 152.032 76.0837 152.056C76.1104 152.069 76.1402 152.075 76.1699 152.073H77.4253C77.8271 152.068 78.2247 152.156 78.5875 152.33C78.9225 152.493 79.2091 152.741 79.4187 153.05C79.6311 153.38 79.7392 153.766 79.7291 154.159C79.7383 154.451 79.681 154.741 79.5614 155.007C79.4418 155.273 79.2632 155.508 79.0393 155.694C78.5889 156.077 78.0153 156.282 77.4253 156.272ZM77.4253 155.683C77.8616 155.692 78.2876 155.55 78.6323 155.281C78.7977 155.147 78.9292 154.975 79.0161 154.78C79.103 154.585 79.1429 154.372 79.1324 154.159C79.1441 153.948 79.1047 153.738 79.0176 153.546C78.9304 153.354 78.7983 153.186 78.6323 153.057C78.2811 152.795 77.8525 152.658 77.4149 152.669H76.1527C76.138 152.667 76.123 152.668 76.1088 152.672C76.0945 152.677 76.0813 152.684 76.0699 152.693C76.0609 152.721 76.0609 152.752 76.0699 152.78V155.583C76.0699 155.652 76.0975 155.683 76.1596 155.683H77.4253ZM80.6085 156.272C80.5696 156.274 80.5309 156.267 80.4947 156.253C80.4585 156.238 80.4256 156.217 80.3981 156.189C80.3712 156.163 80.35 156.132 80.3357 156.097C80.3215 156.063 80.3145 156.026 80.3154 155.988V149.849C80.3145 149.811 80.3215 149.774 80.3357 149.74C80.35 149.705 80.3712 149.674 80.3981 149.648C80.4256 149.62 80.4585 149.599 80.4947 149.584C80.5309 149.57 80.5696 149.563 80.6085 149.565C80.6473 149.564 80.686 149.571 80.7221 149.585C80.7582 149.599 80.7911 149.621 80.8189 149.648C80.8458 149.674 80.867 149.705 80.8813 149.74C80.8955 149.774 80.9025 149.811 80.9016 149.849V155.988C80.9025 156.026 80.8955 156.063 80.8813 156.097C80.867 156.132 80.8458 156.163 80.8189 156.189C80.7911 156.216 80.7582 156.238 80.7221 156.252C80.686 156.266 80.6473 156.273 80.6085 156.272V156.272Z" fill="white"/>
<path opacity="0.75" d="M88.382 156.189C88.3551 156.163 88.3339 156.132 88.3197 156.097C88.3054 156.062 88.2985 156.025 88.2993 155.988V151.189C88.2993 151.037 88.2786 150.961 88.2372 150.961C88.2096 150.961 88.1682 151.006 88.1061 151.096L87.4888 151.99L86.3059 153.722L85.1436 155.42L84.6401 156.164C84.6147 156.201 84.5806 156.231 84.5409 156.252C84.5013 156.272 84.4571 156.283 84.4125 156.282C84.3649 156.282 84.3179 156.271 84.2746 156.251C84.2224 156.227 84.1791 156.187 84.1504 156.137C84.1219 156.092 84.1053 156.041 84.1021 155.988V149.849C84.1013 149.811 84.1082 149.774 84.1225 149.739C84.1367 149.705 84.158 149.674 84.1849 149.648C84.2135 149.62 84.2476 149.598 84.285 149.584C84.3223 149.569 84.3622 149.563 84.4022 149.565C84.441 149.563 84.4798 149.57 84.516 149.584C84.5522 149.598 84.585 149.62 84.6125 149.648C84.6394 149.674 84.6607 149.705 84.6749 149.739C84.6892 149.774 84.6961 149.811 84.6953 149.849V154.581C84.6953 154.741 84.7194 154.82 84.7677 154.82C84.8057 154.82 84.8574 154.779 84.9229 154.692L88.3441 149.693C88.3698 149.654 88.4041 149.623 88.4443 149.601C88.4844 149.578 88.5293 149.566 88.5752 149.565C88.6191 149.566 88.6624 149.575 88.7028 149.592C88.7592 149.61 88.8084 149.646 88.8432 149.694C88.8779 149.742 88.8964 149.8 88.8959 149.859V155.988C88.8967 156.025 88.8898 156.062 88.8755 156.097C88.8613 156.132 88.84 156.163 88.8131 156.189C88.7854 156.216 88.7525 156.238 88.7164 156.252C88.6802 156.266 88.6416 156.273 88.6028 156.272C88.5623 156.274 88.5218 156.268 88.4838 156.253C88.4459 156.239 88.4112 156.217 88.382 156.189V156.189ZM87.7406 148.442C87.8149 148.365 87.8601 148.265 87.8682 148.158L87.8509 148.085C87.8164 147.988 87.7647 147.933 87.7061 147.926H87.5854C87.5374 147.93 87.4909 147.944 87.4487 147.967C87.4065 147.991 87.3697 148.022 87.3405 148.061C87.2596 148.179 87.155 148.28 87.0336 148.355C86.9064 148.427 86.762 148.462 86.6163 148.456C86.4683 148.463 86.3214 148.428 86.1921 148.355C86.0689 148.282 85.964 148.181 85.8851 148.061C85.8556 148.022 85.8182 147.99 85.7754 147.967C85.7326 147.943 85.6854 147.929 85.6368 147.926H85.592C85.5607 147.926 85.5299 147.933 85.5013 147.946C85.4728 147.958 85.4471 147.977 85.4258 148C85.4045 148.023 85.3881 148.05 85.3775 148.079C85.367 148.109 85.3625 148.14 85.3644 148.172C85.3712 148.277 85.4125 148.377 85.4816 148.456C85.6223 148.617 85.7973 148.745 85.9937 148.83C86.1901 148.914 86.4028 148.953 86.6163 148.944C86.8293 148.951 87.0411 148.91 87.2358 148.823C87.4306 148.736 87.6031 148.606 87.7406 148.442V148.442Z" fill="white"/>
<path opacity="0.75" d="M96.4658 156.272C96.4608 156.296 96.4608 156.321 96.4658 156.345C96.4625 156.391 96.4625 156.438 96.4658 156.484C96.4658 156.55 96.4658 156.629 96.4658 156.712C96.4665 156.75 96.4595 156.788 96.4453 156.823C96.431 156.858 96.4099 156.89 96.383 156.917C96.3574 156.944 96.3263 156.966 96.2918 156.98C96.2574 156.994 96.2203 157.001 96.183 157H96.1554C96.1181 157.001 96.0811 156.994 96.0467 156.98C96.0123 156.965 95.9812 156.944 95.9554 156.917C95.9285 156.89 95.9074 156.858 95.8931 156.823C95.8789 156.788 95.8719 156.75 95.8726 156.712V155.961C95.8719 155.923 95.8789 155.885 95.8931 155.85C95.9074 155.815 95.9285 155.783 95.9554 155.756C96.009 155.704 96.0809 155.676 96.1554 155.677H96.321C96.3767 155.679 96.4317 155.662 96.4761 155.628C96.5175 155.592 96.5485 155.545 96.5658 155.493L96.9659 154.54C97.2073 153.969 97.4797 153.31 97.7901 152.569C98.1005 151.827 98.373 151.183 98.6179 150.594V150.577C98.6155 150.57 98.6155 150.563 98.6179 150.556V150.539C98.6179 150.539 98.6179 150.539 98.6179 150.521C98.6187 150.512 98.6187 150.503 98.6179 150.494V150.476C98.6164 150.469 98.6164 150.462 98.6179 150.455L98.6558 150.362V150.345V150.327V150.306C98.6539 150.297 98.6539 150.288 98.6558 150.279V150.279V150.258V150.203C98.6627 150.188 98.6685 150.173 98.673 150.157V150.157C98.6747 150.152 98.6747 150.146 98.673 150.14V150.14V150.123C98.7213 150.012 98.7523 149.943 98.7627 149.912C98.7879 149.86 98.8271 149.816 98.8759 149.785C98.9247 149.755 98.9811 149.738 99.0386 149.738C99.094 149.74 99.1477 149.757 99.194 149.788C99.2403 149.818 99.2772 149.861 99.3007 149.912L99.6697 150.767L100.487 152.739C100.793 153.475 101.068 154.13 101.311 154.703C101.549 155.278 101.684 155.59 101.708 155.645C101.728 155.707 101.762 155.763 101.808 155.808C101.852 155.838 101.904 155.852 101.956 155.85H102.118C102.194 155.849 102.267 155.877 102.322 155.929C102.349 155.956 102.37 155.988 102.384 156.023C102.398 156.058 102.405 156.096 102.405 156.134V156.886C102.405 156.924 102.398 156.961 102.384 156.996C102.37 157.031 102.348 157.063 102.322 157.09C102.295 157.117 102.263 157.138 102.228 157.152C102.194 157.167 102.156 157.174 102.118 157.173H102.091C102.054 157.174 102.017 157.167 101.982 157.153C101.948 157.138 101.917 157.117 101.891 157.09C101.864 157.063 101.843 157.032 101.829 156.996C101.814 156.961 101.807 156.924 101.808 156.886C101.804 156.81 101.804 156.733 101.808 156.657C101.811 156.611 101.811 156.565 101.808 156.518C101.813 156.494 101.813 156.47 101.808 156.446L96.4658 156.272ZM101.149 155.677C101.277 155.677 101.318 155.6 101.277 155.455C101.153 155.16 100.977 154.724 100.742 154.145C100.508 153.567 100.27 152.988 100.032 152.413L99.6145 151.374C99.5042 151.093 99.4387 150.934 99.418 150.892C99.4137 150.871 99.4042 150.852 99.3904 150.837C99.3317 150.663 99.2835 150.584 99.249 150.591C99.2145 150.597 99.1593 150.705 99.08 150.909C99.0627 150.958 98.9903 151.138 98.8627 151.446C98.7351 151.755 98.5799 152.139 98.4006 152.576C98.2212 153.012 98.0384 153.466 97.8557 153.913C97.5867 154.576 97.382 155.078 97.2418 155.42C97.1866 155.586 97.2418 155.67 97.3625 155.67L101.149 155.677Z" fill="white"/>
<path opacity="0.75" d="M109.958 156.272C109.917 156.274 109.877 156.268 109.839 156.254C109.801 156.239 109.766 156.217 109.737 156.189C109.71 156.163 109.689 156.132 109.675 156.097C109.66 156.063 109.653 156.026 109.654 155.988V151.19C109.654 151.037 109.634 150.961 109.589 150.961C109.544 150.961 109.523 151.006 109.461 151.096L108.844 151.99L107.661 153.722L106.499 155.42L105.995 156.165C105.969 156.201 105.935 156.231 105.896 156.251C105.856 156.272 105.812 156.283 105.767 156.283C105.72 156.282 105.673 156.271 105.63 156.251C105.577 156.227 105.534 156.187 105.505 156.137C105.477 156.092 105.46 156.041 105.457 155.988V149.849C105.456 149.811 105.463 149.774 105.477 149.74C105.492 149.705 105.513 149.674 105.54 149.648C105.568 149.62 105.602 149.598 105.64 149.584C105.677 149.569 105.717 149.563 105.757 149.565C105.796 149.563 105.835 149.57 105.871 149.584C105.907 149.599 105.94 149.62 105.968 149.648C105.994 149.674 106.016 149.705 106.03 149.74C106.044 149.774 106.051 149.811 106.05 149.849V154.582C106.05 154.741 106.074 154.821 106.123 154.821C106.161 154.821 106.209 154.782 106.264 154.703C106.319 154.623 106.526 154.332 106.868 153.83L108.04 152.118L109.196 150.427L109.699 149.693C109.725 149.655 109.759 149.623 109.799 149.601C109.839 149.579 109.884 149.566 109.93 149.565C109.974 149.566 110.017 149.575 110.058 149.593C110.114 149.61 110.163 149.646 110.197 149.694C110.231 149.742 110.249 149.8 110.247 149.859V155.988C110.248 156.063 110.22 156.135 110.168 156.189C110.14 156.216 110.107 156.238 110.071 156.252C110.035 156.266 109.997 156.273 109.958 156.272Z" fill="white"/>
<path opacity="0.75" d="M115.234 156.393C114.875 156.399 114.52 156.322 114.195 156.169C113.869 156.016 113.583 155.791 113.358 155.51C113.315 155.451 113.29 155.381 113.286 155.309C113.286 155.142 113.375 155.059 113.558 155.059C113.606 155.063 113.652 155.076 113.695 155.098C113.738 155.12 113.776 155.151 113.806 155.188C113.986 155.385 114.201 155.546 114.441 155.662C114.689 155.78 114.96 155.84 115.234 155.839C115.52 155.842 115.803 155.779 116.062 155.655C116.313 155.54 116.531 155.364 116.696 155.142C116.861 154.923 116.949 154.655 116.945 154.38C116.954 154.184 116.919 153.989 116.842 153.809C116.765 153.629 116.648 153.469 116.5 153.341C116.194 153.084 115.805 152.948 115.407 152.96H114.255C114.217 152.961 114.18 152.954 114.146 152.939C114.112 152.925 114.081 152.904 114.055 152.877C114.027 152.848 114.005 152.814 113.991 152.776C113.977 152.739 113.97 152.699 113.972 152.658C113.971 152.619 113.977 152.58 113.991 152.544C114.006 152.508 114.027 152.475 114.055 152.447C114.081 152.42 114.112 152.399 114.146 152.384C114.18 152.37 114.217 152.363 114.255 152.364H115.407C115.739 152.371 116.061 152.246 116.303 152.017C116.422 151.914 116.518 151.786 116.582 151.641C116.647 151.497 116.68 151.341 116.679 151.182C116.675 151.015 116.631 150.851 116.551 150.705C116.47 150.558 116.356 150.433 116.217 150.341C115.936 150.12 115.591 149.998 115.234 149.994C114.849 150.008 114.479 150.149 114.182 150.396C114.115 150.451 114.031 150.484 113.944 150.49C113.895 150.483 113.848 150.469 113.803 150.448C113.731 150.42 113.696 150.344 113.696 150.223C113.7 150.132 113.74 150.046 113.806 149.984C114.204 149.641 114.71 149.452 115.234 149.45C115.567 149.45 115.896 149.528 116.193 149.679C116.487 149.823 116.742 150.036 116.938 150.299C117.128 150.552 117.23 150.862 117.228 151.179C117.223 151.428 117.162 151.673 117.048 151.894C116.933 152.116 116.769 152.307 116.569 152.454V152.454C116.49 152.516 116.452 152.565 116.452 152.599C116.452 152.634 116.496 152.676 116.59 152.731C116.873 152.897 117.108 153.136 117.269 153.424C117.429 153.711 117.51 154.037 117.503 154.366C117.508 154.738 117.396 155.102 117.183 155.406C116.967 155.71 116.679 155.954 116.345 156.116C116.002 156.296 115.621 156.392 115.234 156.393V156.393Z" fill="white"/>
<path opacity="0.75" d="M125.577 156.251C125.522 156.251 125.468 156.236 125.421 156.207C125.374 156.179 125.336 156.137 125.312 156.088L124.622 154.397C124.602 154.357 124.571 154.324 124.532 154.303C124.493 154.281 124.449 154.272 124.405 154.276H121.67C121.622 154.272 121.574 154.285 121.533 154.312C121.493 154.339 121.464 154.379 121.449 154.425L120.759 156.088C120.735 156.138 120.697 156.18 120.65 156.209C120.603 156.238 120.549 156.252 120.494 156.251C120.451 156.262 120.406 156.262 120.363 156.251C120.308 156.234 120.261 156.2 120.228 156.154C120.195 156.108 120.178 156.052 120.18 155.995C120.181 155.957 120.187 155.92 120.197 155.884L122.759 149.755C122.781 149.701 122.818 149.655 122.867 149.623C122.916 149.592 122.974 149.578 123.032 149.582C123.09 149.58 123.147 149.596 123.196 149.627C123.245 149.658 123.284 149.702 123.308 149.755L125.881 155.866C125.897 155.901 125.907 155.939 125.908 155.977C125.909 156.036 125.891 156.093 125.856 156.139C125.821 156.186 125.771 156.219 125.715 156.234C125.671 156.251 125.624 156.257 125.577 156.251V156.251ZM124.156 153.691C124.239 153.691 124.284 153.67 124.284 153.625C124.279 153.595 124.27 153.565 124.256 153.538C124.256 153.5 124.16 153.317 124.029 152.991L123.58 151.917L123.122 150.777C123.097 150.697 123.07 150.659 123.039 150.659C123.008 150.659 122.594 151.557 121.887 153.358L121.804 153.576C121.803 153.59 121.803 153.604 121.804 153.618C121.804 153.666 121.842 153.691 121.921 153.691H124.156Z" fill="white"/>
<path opacity="0.75" d="M133.016 156.189C132.989 156.163 132.968 156.132 132.954 156.097C132.94 156.063 132.933 156.025 132.934 155.988V151.19C132.934 151.037 132.913 150.961 132.868 150.961C132.823 150.961 132.803 151.006 132.74 151.096L132.123 151.99L130.94 153.722C130.499 154.362 130.111 154.928 129.778 155.42L129.274 156.165C129.249 156.201 129.214 156.231 129.175 156.251C129.135 156.272 129.091 156.283 129.047 156.283C128.999 156.282 128.952 156.271 128.909 156.251C128.857 156.227 128.813 156.187 128.785 156.137C128.754 156.093 128.736 156.042 128.733 155.988V149.849C128.732 149.811 128.739 149.774 128.753 149.74C128.768 149.705 128.789 149.674 128.816 149.648C128.845 149.62 128.88 149.598 128.918 149.583C128.956 149.569 128.996 149.563 129.036 149.565C129.075 149.563 129.114 149.57 129.15 149.584C129.186 149.599 129.219 149.62 129.247 149.648C129.274 149.674 129.295 149.705 129.309 149.74C129.323 149.774 129.33 149.811 129.33 149.849V154.581C129.33 154.741 129.354 154.82 129.402 154.82C129.44 154.82 129.492 154.779 129.557 154.692L132.978 149.693C133.004 149.655 133.037 149.624 133.077 149.601C133.116 149.579 133.161 149.566 133.206 149.565C133.25 149.566 133.293 149.575 133.334 149.592C133.39 149.61 133.44 149.645 133.475 149.693C133.51 149.741 133.528 149.8 133.527 149.859V155.988C133.528 156.025 133.521 156.063 133.506 156.097C133.492 156.132 133.471 156.163 133.444 156.189C133.417 156.217 133.384 156.238 133.347 156.253C133.311 156.267 133.273 156.274 133.234 156.272C133.194 156.274 133.154 156.267 133.116 156.253C133.079 156.239 133.045 156.217 133.016 156.189V156.189ZM132.375 148.442C132.449 148.365 132.494 148.265 132.503 148.158L132.485 148.085C132.447 147.988 132.399 147.933 132.337 147.926C132.298 147.923 132.259 147.923 132.22 147.926C132.171 147.93 132.124 147.944 132.081 147.967C132.038 147.99 132.001 148.022 131.971 148.061C131.893 148.181 131.788 148.282 131.664 148.356C131.539 148.427 131.395 148.462 131.251 148.456C131.102 148.463 130.954 148.428 130.823 148.356C130.702 148.281 130.598 148.18 130.519 148.061C130.49 148.022 130.452 147.99 130.41 147.967C130.367 147.944 130.32 147.93 130.271 147.926H130.226C130.195 147.926 130.164 147.933 130.135 147.946C130.106 147.959 130.081 147.977 130.059 148C130.037 148.023 130.021 148.05 130.01 148.079C129.999 148.109 129.994 148.14 129.995 148.172C130.004 148.277 130.046 148.377 130.116 148.456C130.261 148.61 130.436 148.733 130.631 148.817C130.825 148.901 131.034 148.944 131.245 148.944C131.457 148.944 131.666 148.901 131.86 148.817C132.054 148.733 132.23 148.61 132.375 148.456V148.442Z" fill="white"/>
<path opacity="0.75" d="M141.2 156.272C141.16 156.274 141.12 156.267 141.083 156.253C141.046 156.238 141.012 156.217 140.983 156.189C140.956 156.163 140.935 156.131 140.92 156.097C140.906 156.062 140.899 156.025 140.9 155.988V153.216C140.9 153.154 140.873 153.122 140.817 153.122H137.407C137.351 153.122 137.324 153.154 137.324 153.216V155.988C137.325 156.025 137.318 156.062 137.303 156.097C137.289 156.131 137.268 156.163 137.241 156.189C137.213 156.216 137.181 156.238 137.144 156.252C137.108 156.267 137.069 156.273 137.031 156.272C136.99 156.274 136.95 156.267 136.912 156.253C136.874 156.239 136.839 156.217 136.81 156.189C136.783 156.163 136.762 156.131 136.747 156.097C136.733 156.062 136.726 156.025 136.727 155.988V149.848C136.726 149.811 136.733 149.774 136.747 149.739C136.762 149.705 136.783 149.673 136.81 149.648C136.839 149.619 136.874 149.597 136.912 149.583C136.95 149.569 136.99 149.562 137.031 149.564C137.069 149.563 137.108 149.57 137.144 149.584C137.181 149.598 137.213 149.62 137.241 149.648C137.268 149.673 137.289 149.705 137.303 149.739C137.318 149.774 137.325 149.811 137.324 149.848V152.44C137.323 152.463 137.331 152.485 137.344 152.502C137.352 152.511 137.361 152.519 137.372 152.524C137.383 152.528 137.395 152.531 137.407 152.53H140.817C140.829 152.531 140.84 152.529 140.85 152.524C140.861 152.519 140.869 152.512 140.876 152.502C140.891 152.485 140.899 152.463 140.9 152.44V149.838C140.899 149.801 140.906 149.763 140.92 149.729C140.935 149.694 140.956 149.663 140.983 149.637C141.012 149.609 141.046 149.587 141.083 149.573C141.12 149.559 141.16 149.552 141.2 149.554C141.239 149.553 141.278 149.559 141.314 149.574C141.35 149.588 141.383 149.609 141.411 149.637C141.437 149.663 141.459 149.694 141.473 149.729C141.487 149.763 141.494 149.801 141.493 149.838V155.977C141.494 156.015 141.487 156.052 141.473 156.087C141.459 156.121 141.437 156.152 141.411 156.178C141.384 156.208 141.351 156.231 141.315 156.247C141.279 156.264 141.24 156.272 141.2 156.272V156.272Z" fill="white"/>
<path opacity="0.75" d="M152.985 156.272C152.945 156.274 152.905 156.268 152.867 156.253C152.83 156.239 152.796 156.217 152.767 156.189C152.74 156.163 152.719 156.132 152.705 156.097C152.691 156.063 152.684 156.026 152.685 155.988V151.19C152.685 151.037 152.664 150.961 152.619 150.961C152.574 150.961 152.554 151.006 152.491 151.096L151.874 151.99L150.691 153.722C150.25 154.362 149.862 154.928 149.529 155.42L149.025 156.165C149 156.201 148.965 156.231 148.926 156.251C148.886 156.272 148.842 156.283 148.798 156.283C148.75 156.282 148.703 156.271 148.66 156.251C148.608 156.227 148.564 156.187 148.536 156.137C148.505 156.093 148.487 156.042 148.484 155.988V149.849C148.483 149.811 148.49 149.774 148.504 149.74C148.519 149.705 148.54 149.674 148.567 149.648C148.596 149.62 148.631 149.598 148.669 149.583C148.706 149.569 148.747 149.563 148.787 149.565C148.826 149.563 148.865 149.57 148.901 149.584C148.937 149.599 148.97 149.62 148.998 149.648C149.025 149.674 149.046 149.705 149.06 149.74C149.074 149.774 149.081 149.811 149.081 149.849V154.582C149.081 154.741 149.105 154.821 149.153 154.821C149.191 154.821 149.236 154.782 149.294 154.703C149.353 154.623 149.553 154.332 149.898 153.83L151.071 152.118L152.226 150.427L152.729 149.693C152.755 149.655 152.788 149.624 152.828 149.601C152.867 149.579 152.912 149.567 152.957 149.565C153.001 149.566 153.044 149.575 153.085 149.593C153.141 149.61 153.191 149.645 153.226 149.693C153.261 149.742 153.279 149.8 153.278 149.859V155.988C153.279 156.026 153.272 156.063 153.257 156.097C153.243 156.132 153.222 156.163 153.195 156.189C153.167 156.217 153.135 156.238 153.098 156.253C153.062 156.267 153.023 156.274 152.985 156.272V156.272Z" fill="white"/>
<path opacity="0.75" d="M163.948 156.393C163.342 156.396 162.745 156.233 162.224 155.922C161.705 155.618 161.272 155.185 160.969 154.664C160.664 154.133 160.503 153.53 160.503 152.916C160.503 152.303 160.664 151.7 160.969 151.168C161.273 150.65 161.705 150.219 162.224 149.918C162.747 149.61 163.342 149.45 163.948 149.454C164.555 149.444 165.152 149.605 165.673 149.918C166.175 150.223 166.59 150.654 166.876 151.168C167.166 151.705 167.318 152.306 167.318 152.916C167.318 153.527 167.166 154.128 166.876 154.664C166.59 155.181 166.175 155.614 165.673 155.922C165.154 156.239 164.556 156.402 163.948 156.393ZM163.948 155.839C164.452 155.847 164.946 155.709 165.373 155.44C165.789 155.176 166.131 154.808 166.366 154.373C166.606 153.924 166.732 153.423 166.732 152.913C166.732 152.403 166.606 151.902 166.366 151.453C166.131 151.019 165.789 150.654 165.373 150.392C164.945 150.126 164.451 149.989 163.948 149.997C163.57 149.992 163.194 150.065 162.844 150.213C162.495 150.361 162.181 150.58 161.92 150.857C161.473 151.312 161.186 151.903 161.103 152.538C161.021 153.173 161.148 153.818 161.465 154.373C161.715 154.811 162.071 155.178 162.5 155.44C162.936 155.708 163.438 155.846 163.948 155.839V155.839Z" fill="white"/>
<path opacity="0.75" d="M172.163 156.393C171.804 156.399 171.449 156.322 171.124 156.169C170.799 156.016 170.513 155.79 170.287 155.51C170.244 155.451 170.219 155.382 170.215 155.309C170.215 155.143 170.308 155.06 170.491 155.06C170.538 155.063 170.584 155.076 170.627 155.098C170.669 155.12 170.706 155.151 170.736 155.188C170.916 155.386 171.132 155.547 171.374 155.662C171.62 155.78 171.89 155.841 172.163 155.839C172.45 155.842 172.733 155.779 172.991 155.655C173.243 155.542 173.461 155.365 173.626 155.143C173.791 154.924 173.878 154.655 173.874 154.38C173.883 154.185 173.848 153.989 173.771 153.809C173.694 153.629 173.577 153.469 173.429 153.341C173.124 153.083 172.735 152.948 172.336 152.96H171.184C171.147 152.961 171.11 152.954 171.075 152.94C171.041 152.925 171.01 152.904 170.984 152.877C170.956 152.848 170.934 152.814 170.92 152.776C170.906 152.739 170.899 152.699 170.901 152.659C170.9 152.62 170.906 152.581 170.921 152.544C170.935 152.508 170.956 152.475 170.984 152.447C171.01 152.42 171.041 152.399 171.075 152.385C171.11 152.37 171.147 152.363 171.184 152.364H172.336C172.668 152.371 172.99 152.246 173.233 152.018C173.352 151.914 173.447 151.786 173.512 151.642C173.577 151.497 173.61 151.341 173.608 151.183C173.605 151.015 173.561 150.851 173.48 150.705C173.4 150.558 173.285 150.433 173.146 150.341C172.866 150.12 172.52 149.998 172.163 149.994C171.778 150.009 171.409 150.15 171.112 150.396C171.044 150.452 170.961 150.484 170.874 150.49C170.825 150.483 170.777 150.469 170.732 150.448C170.663 150.42 170.625 150.344 170.625 150.223C170.629 150.132 170.669 150.046 170.736 149.984C171.133 149.641 171.639 149.452 172.163 149.45C172.498 149.446 172.829 149.52 173.129 149.669C173.423 149.814 173.68 150.026 173.877 150.289C174.065 150.543 174.166 150.852 174.164 151.169C174.16 151.418 174.099 151.663 173.985 151.885C173.87 152.106 173.706 152.298 173.505 152.444V152.444C173.426 152.506 173.384 152.555 173.384 152.589C173.384 152.624 173.429 152.666 173.522 152.721C173.807 152.886 174.041 153.125 174.202 153.413C174.363 153.701 174.444 154.026 174.436 154.356C174.441 154.728 174.329 155.092 174.115 155.396C173.9 155.699 173.614 155.943 173.281 156.106C172.937 156.29 172.553 156.389 172.163 156.393V156.393Z" fill="white"/>
<path opacity="0.75" d="M181.037 156.272H177.743C177.706 156.273 177.67 156.266 177.636 156.252C177.602 156.237 177.572 156.216 177.547 156.189C177.495 156.135 177.466 156.063 177.467 155.988V149.849C177.466 149.774 177.495 149.702 177.547 149.648C177.572 149.621 177.602 149.599 177.636 149.585C177.67 149.57 177.706 149.564 177.743 149.565H180.847C180.925 149.565 180.999 149.596 181.054 149.651C181.109 149.706 181.14 149.781 181.14 149.859C181.14 149.937 181.109 150.012 181.054 150.067C180.999 150.122 180.925 150.154 180.847 150.154H178.157C178.126 150.151 178.094 150.158 178.067 150.174C178.058 150.185 178.05 150.197 178.045 150.211C178.04 150.225 178.039 150.24 178.04 150.254V152.44C178.038 152.471 178.044 152.502 178.057 152.53C178.057 152.551 178.098 152.558 178.14 152.558H180.499C180.537 152.557 180.574 152.564 180.609 152.579C180.644 152.593 180.676 152.614 180.702 152.641C180.755 152.699 180.784 152.774 180.784 152.852C180.784 152.931 180.755 153.006 180.702 153.064C180.676 153.091 180.644 153.112 180.609 153.126C180.574 153.141 180.537 153.148 180.499 153.147H178.157C178.126 153.145 178.095 153.151 178.067 153.164C178.057 153.175 178.049 153.188 178.044 153.203C178.04 153.217 178.038 153.232 178.04 153.247V155.558C178.037 155.588 178.043 155.618 178.057 155.645C178.081 155.663 178.11 155.672 178.14 155.669H181.023C181.098 155.668 181.169 155.697 181.223 155.749C181.277 155.808 181.306 155.885 181.306 155.965C181.306 156.045 181.277 156.123 181.223 156.182C181.199 156.208 181.171 156.23 181.139 156.246C181.107 156.261 181.072 156.27 181.037 156.272V156.272Z" fill="white"/>
<path opacity="0.75" d="M189.338 156.272C189.282 156.274 189.227 156.259 189.181 156.228C189.135 156.197 189.099 156.152 189.08 156.099L187.01 151.006C186.921 150.774 186.852 150.66 186.8 150.66C186.748 150.66 186.679 150.774 186.583 151.006L184.513 156.099C184.494 156.152 184.459 156.197 184.412 156.228C184.366 156.26 184.311 156.275 184.255 156.272C184.209 156.271 184.163 156.261 184.12 156.245C184.07 156.221 184.028 156.183 183.999 156.136C183.969 156.088 183.954 156.034 183.955 155.978C183.95 155.941 183.95 155.904 183.955 155.867L186.517 149.738C186.537 149.685 186.574 149.639 186.621 149.607C186.669 149.576 186.726 149.561 186.783 149.565C186.84 149.564 186.896 149.58 186.945 149.611C186.993 149.641 187.032 149.686 187.055 149.738L189.618 155.867C189.634 155.902 189.644 155.939 189.645 155.978C189.644 156.037 189.624 156.094 189.59 156.141C189.555 156.189 189.507 156.225 189.452 156.245C189.416 156.261 189.378 156.27 189.338 156.272Z" fill="white"/>
<path opacity="0.75" d="M196.064 156.272H192.787C192.75 156.273 192.714 156.266 192.68 156.252C192.646 156.237 192.616 156.216 192.591 156.189C192.565 156.162 192.546 156.13 192.533 156.096C192.52 156.061 192.514 156.025 192.515 155.988V149.849C192.514 149.812 192.52 149.775 192.533 149.741C192.546 149.706 192.565 149.675 192.591 149.648C192.616 149.621 192.646 149.599 192.68 149.585C192.714 149.57 192.75 149.564 192.787 149.565H195.891C195.928 149.564 195.965 149.571 196 149.585C196.034 149.599 196.065 149.621 196.091 149.648C196.144 149.705 196.173 149.781 196.173 149.859C196.173 149.937 196.144 150.013 196.091 150.07C196.065 150.097 196.034 150.119 196 150.133C195.965 150.147 195.928 150.154 195.891 150.154H193.201C193.169 150.151 193.136 150.158 193.108 150.174C193.098 150.185 193.091 150.197 193.086 150.211C193.081 150.225 193.079 150.24 193.08 150.254V152.44C193.078 152.472 193.085 152.503 193.101 152.53C193.101 152.551 193.139 152.558 193.184 152.558H195.546C195.583 152.557 195.621 152.564 195.655 152.578C195.689 152.593 195.72 152.614 195.746 152.641C195.799 152.699 195.828 152.774 195.828 152.852C195.828 152.931 195.799 153.006 195.746 153.064C195.72 153.091 195.689 153.112 195.655 153.126C195.621 153.141 195.583 153.148 195.546 153.147H193.201C193.169 153.145 193.137 153.151 193.108 153.164C193.098 153.175 193.09 153.188 193.085 153.203C193.08 153.217 193.079 153.232 193.08 153.247V155.558C193.077 155.589 193.084 155.619 193.101 155.645C193.112 155.654 193.126 155.662 193.14 155.666C193.154 155.67 193.169 155.671 193.184 155.669H196.064C196.138 155.668 196.21 155.697 196.264 155.749C196.317 155.808 196.347 155.885 196.347 155.965C196.347 156.045 196.317 156.123 196.264 156.182C196.238 156.21 196.208 156.233 196.173 156.248C196.139 156.264 196.101 156.272 196.064 156.272V156.272Z" fill="white"/>
<path opacity="0.75" d="M203.823 156.272C203.783 156.274 203.743 156.267 203.706 156.253C203.669 156.238 203.635 156.217 203.606 156.189C203.579 156.163 203.558 156.131 203.544 156.097C203.529 156.062 203.522 156.025 203.523 155.988V153.216C203.523 153.154 203.496 153.122 203.44 153.122H200.03C199.974 153.122 199.947 153.154 199.947 153.216V155.988C199.948 156.025 199.941 156.062 199.926 156.097C199.912 156.131 199.891 156.163 199.864 156.189C199.837 156.216 199.804 156.238 199.767 156.252C199.731 156.267 199.693 156.273 199.654 156.272C199.613 156.274 199.573 156.267 199.535 156.253C199.497 156.239 199.462 156.217 199.433 156.189C199.406 156.163 199.385 156.131 199.371 156.097C199.356 156.062 199.349 156.025 199.35 155.988V149.848C199.349 149.811 199.356 149.774 199.371 149.739C199.385 149.705 199.406 149.673 199.433 149.648C199.462 149.619 199.497 149.597 199.535 149.583C199.573 149.569 199.613 149.562 199.654 149.564C199.693 149.563 199.731 149.57 199.767 149.584C199.804 149.598 199.837 149.62 199.864 149.648C199.891 149.673 199.912 149.705 199.926 149.739C199.941 149.774 199.948 149.811 199.947 149.848V152.44C199.946 152.463 199.954 152.485 199.967 152.502C199.975 152.511 199.984 152.519 199.995 152.524C200.006 152.528 200.018 152.531 200.03 152.53H203.44C203.452 152.531 203.463 152.529 203.473 152.524C203.484 152.519 203.492 152.512 203.499 152.502C203.507 152.494 203.513 152.484 203.518 152.474C203.522 152.463 203.524 152.451 203.523 152.44V149.838C203.522 149.801 203.529 149.763 203.544 149.729C203.558 149.694 203.579 149.663 203.606 149.637C203.635 149.609 203.669 149.587 203.706 149.573C203.743 149.559 203.783 149.552 203.823 149.554C203.862 149.553 203.901 149.559 203.937 149.574C203.973 149.588 204.006 149.609 204.034 149.637C204.06 149.663 204.082 149.694 204.096 149.729C204.11 149.763 204.117 149.801 204.116 149.838V155.977C204.117 156.015 204.11 156.052 204.096 156.087C204.082 156.121 204.06 156.152 204.034 156.178C204.007 156.208 203.975 156.231 203.938 156.247C203.902 156.264 203.863 156.272 203.823 156.272V156.272Z" fill="white"/>
<path opacity="0.75" d="M210.872 156.272H207.579C207.542 156.273 207.505 156.266 207.471 156.252C207.438 156.237 207.407 156.216 207.382 156.189C207.33 156.135 207.302 156.063 207.303 155.988V149.849C207.302 149.774 207.33 149.702 207.382 149.648C207.407 149.621 207.438 149.599 207.471 149.585C207.505 149.57 207.542 149.564 207.579 149.565H210.683C210.72 149.564 210.758 149.571 210.793 149.585C210.828 149.599 210.86 149.621 210.886 149.648C210.939 149.705 210.968 149.781 210.968 149.859C210.968 149.937 210.939 150.013 210.886 150.07C210.86 150.097 210.828 150.119 210.793 150.133C210.758 150.147 210.72 150.154 210.683 150.154H207.996C207.964 150.15 207.931 150.158 207.903 150.174C207.893 150.185 207.885 150.197 207.881 150.211C207.876 150.225 207.874 150.24 207.875 150.254V152.44C207.873 152.471 207.879 152.502 207.892 152.53C207.892 152.551 207.934 152.558 207.975 152.558H210.338C210.375 152.557 210.412 152.564 210.446 152.578C210.481 152.593 210.512 152.614 210.538 152.641C210.591 152.699 210.62 152.774 210.62 152.852C210.62 152.931 210.591 153.006 210.538 153.064C210.512 153.091 210.481 153.112 210.446 153.126C210.412 153.141 210.375 153.148 210.338 153.147H207.996C207.964 153.145 207.932 153.151 207.903 153.164C207.892 153.175 207.885 153.188 207.88 153.203C207.875 153.217 207.874 153.232 207.875 153.247V155.558C207.873 155.588 207.879 155.618 207.892 155.645C207.916 155.663 207.946 155.672 207.975 155.669H210.858C210.933 155.668 211.005 155.697 211.059 155.749C211.112 155.808 211.142 155.885 211.142 155.965C211.142 156.045 211.112 156.123 211.059 156.182C211.035 156.208 211.006 156.23 210.974 156.246C210.942 156.261 210.908 156.27 210.872 156.272V156.272Z" fill="white"/>
<path opacity="0.75" d="M218.619 156.272C218.578 156.273 218.538 156.267 218.5 156.253C218.462 156.238 218.427 156.217 218.398 156.189C218.372 156.162 218.351 156.131 218.337 156.096C218.324 156.062 218.317 156.025 218.319 155.988V153.216C218.319 153.154 218.291 153.122 218.236 153.122H214.822C214.77 153.122 214.742 153.154 214.742 153.216V155.988C214.743 156.025 214.736 156.062 214.722 156.097C214.708 156.131 214.686 156.163 214.659 156.189C214.632 156.216 214.599 156.237 214.563 156.252C214.527 156.266 214.488 156.273 214.449 156.272C214.409 156.274 214.368 156.267 214.33 156.253C214.292 156.239 214.258 156.217 214.228 156.189C214.201 156.163 214.18 156.131 214.166 156.097C214.152 156.062 214.145 156.025 214.146 155.988V149.848C214.145 149.811 214.152 149.774 214.166 149.739C214.18 149.705 214.201 149.673 214.228 149.647C214.258 149.619 214.292 149.597 214.33 149.583C214.368 149.569 214.409 149.562 214.449 149.564C214.488 149.563 214.527 149.57 214.563 149.584C214.599 149.599 214.632 149.62 214.659 149.647C214.686 149.673 214.708 149.705 214.722 149.739C214.736 149.774 214.743 149.811 214.742 149.848V152.44C214.742 152.462 214.749 152.485 214.763 152.502C214.77 152.511 214.779 152.519 214.789 152.523C214.799 152.528 214.81 152.531 214.822 152.53H218.236C218.247 152.531 218.258 152.528 218.269 152.523C218.279 152.519 218.288 152.511 218.294 152.502C218.306 152.484 218.311 152.462 218.308 152.44V149.838C218.307 149.801 218.313 149.764 218.327 149.729C218.341 149.695 218.361 149.663 218.388 149.637C218.417 149.609 218.452 149.587 218.49 149.573C218.528 149.559 218.568 149.552 218.608 149.554C218.647 149.553 218.686 149.559 218.722 149.573C218.758 149.588 218.791 149.609 218.819 149.637C218.846 149.663 218.867 149.694 218.881 149.729C218.895 149.763 218.902 149.801 218.901 149.838V155.977C218.902 156.015 218.895 156.052 218.881 156.086C218.867 156.121 218.846 156.152 218.819 156.178C218.793 156.206 218.762 156.229 218.728 156.245C218.694 156.261 218.657 156.27 218.619 156.272V156.272Z" fill="white"/>
<path opacity="0.75" d="M226.613 156.272C226.572 156.274 226.532 156.267 226.494 156.253C226.456 156.239 226.421 156.217 226.392 156.189C226.365 156.163 226.344 156.132 226.329 156.097C226.315 156.063 226.308 156.026 226.309 155.988V151.19C226.309 151.037 226.288 150.961 226.247 150.961C226.223 150.961 226.178 151.006 226.119 151.096C226.061 151.186 225.85 151.481 225.502 151.99L224.316 153.722L223.157 155.42L222.653 156.165C222.627 156.202 222.592 156.232 222.552 156.252C222.512 156.273 222.467 156.283 222.422 156.283C222.376 156.281 222.33 156.271 222.288 156.251C222.234 156.229 222.19 156.189 222.164 156.137C222.133 156.093 222.115 156.042 222.112 155.988V149.849C222.111 149.811 222.118 149.774 222.132 149.74C222.147 149.705 222.168 149.674 222.195 149.648C222.224 149.62 222.258 149.598 222.296 149.583C222.334 149.569 222.375 149.563 222.415 149.565C222.454 149.564 222.493 149.571 222.529 149.585C222.565 149.599 222.598 149.621 222.626 149.648C222.653 149.674 222.674 149.705 222.688 149.74C222.702 149.774 222.709 149.811 222.709 149.849V154.582C222.709 154.741 222.733 154.821 222.781 154.821C222.815 154.821 222.864 154.782 222.922 154.703C222.981 154.623 223.181 154.332 223.526 153.83L224.695 152.118C225.133 151.481 225.519 150.919 225.854 150.427L226.357 149.693C226.382 149.655 226.416 149.623 226.455 149.601C226.495 149.578 226.54 149.566 226.585 149.565C226.629 149.566 226.672 149.575 226.713 149.593C226.769 149.61 226.818 149.646 226.853 149.694C226.888 149.742 226.906 149.8 226.906 149.859V155.988C226.907 156.026 226.9 156.063 226.885 156.097C226.871 156.132 226.85 156.163 226.823 156.189C226.795 156.217 226.763 156.238 226.726 156.253C226.69 156.267 226.651 156.274 226.613 156.272V156.272Z" fill="white"/>
<path opacity="0.75" d="M233.673 156.272H230.379C230.342 156.273 230.306 156.266 230.272 156.252C230.238 156.237 230.207 156.216 230.182 156.189C230.131 156.135 230.102 156.063 230.103 155.988V149.849C230.102 149.774 230.131 149.702 230.182 149.648C230.207 149.621 230.238 149.599 230.272 149.585C230.306 149.57 230.342 149.564 230.379 149.565H233.483C233.52 149.564 233.557 149.57 233.592 149.585C233.626 149.599 233.657 149.621 233.683 149.648C233.736 149.705 233.765 149.781 233.765 149.859C233.765 149.937 233.736 150.013 233.683 150.07C233.657 150.098 233.626 150.119 233.592 150.133C233.557 150.148 233.52 150.155 233.483 150.154H230.793C230.761 150.151 230.73 150.158 230.703 150.174C230.693 150.185 230.686 150.197 230.681 150.211C230.676 150.225 230.674 150.24 230.676 150.254V152.44C230.674 152.471 230.68 152.502 230.693 152.53C230.693 152.551 230.734 152.558 230.776 152.558H233.138C233.176 152.557 233.213 152.564 233.248 152.579C233.283 152.593 233.315 152.614 233.341 152.641C233.394 152.699 233.424 152.774 233.424 152.852C233.424 152.931 233.394 153.006 233.341 153.064C233.315 153.091 233.283 153.112 233.248 153.126C233.213 153.141 233.176 153.148 233.138 153.147H230.796C230.765 153.145 230.735 153.151 230.707 153.164C230.696 153.175 230.688 153.188 230.684 153.203C230.679 153.217 230.677 153.232 230.679 153.247V155.558C230.677 155.588 230.683 155.618 230.696 155.645C230.72 155.663 230.749 155.672 230.779 155.669H233.659C233.697 155.668 233.735 155.675 233.771 155.69C233.807 155.704 233.839 155.726 233.866 155.754C233.893 155.781 233.914 155.814 233.927 155.85C233.941 155.886 233.947 155.925 233.945 155.964C233.947 156.004 233.94 156.044 233.926 156.081C233.912 156.119 233.89 156.153 233.862 156.182C233.813 156.236 233.745 156.268 233.673 156.272V156.272Z" fill="white"/>
</g>
<defs>
<clipPath id="clip0">
<rect width="234" height="157" fill="white"/>
</clipPath>
</defs>
</svg>
